<svg xmlns="http://www.w3.org/2000/svg" viewBox="0 0 126.157 37.387"><g id="Calque_2" data-name="Calque 2"><g id="Design"><path d="M53.264,29.226a8.013,8.013,0,0,1-3.833-.841,5.748,5.748,0,0,1-2.394-2.368,8.3,8.3,0,0,1-.929-3.592q-.027-1.12-.026-2.381t.026-2.407a8.2,8.2,0,0,1,.929-3.578,5.668,5.668,0,0,1,2.407-2.344,8.137,8.137,0,0,1,3.82-.827,8.657,8.657,0,0,1,3.108.509,6.86,6.86,0,0,1,2.177,1.286A5.629,5.629,0,0,1,59.823,14.3a3.746,3.746,0,0,1,.446,1.478.412.412,0,0,1-.128.369.578.578,0,0,1-.408.14h-1.5a.551.551,0,0,1-.37-.1.963.963,0,0,1-.216-.357,4.254,4.254,0,0,0-.751-1.3,4.016,4.016,0,0,0-1.4-1.057,5.172,5.172,0,0,0-2.229-.42,4.754,4.754,0,0,0-3.273,1.095,4.9,4.9,0,0,0-1.337,3.616q-.075,2.268,0,4.534A4.95,4.95,0,0,0,50,25.952a4.722,4.722,0,0,0,3.26,1.109,5.472,5.472,0,0,0,2.407-.51,3.829,3.829,0,0,0,1.668-1.541,5.1,5.1,0,0,0,.612-2.636V21.305H54.13a.571.571,0,0,1-.42-.166.6.6,0,0,1-.165-.445v-.816a.6.6,0,0,1,.165-.445.571.571,0,0,1,.42-.166h5.756a.561.561,0,0,1,.433.166.63.63,0,0,1,.153.445v2.446a7.442,7.442,0,0,1-.853,3.641,5.858,5.858,0,0,1-2.483,2.407A8.233,8.233,0,0,1,53.264,29.226Z" fill="#ef1f1e"/><path d="M64.369,28.971a.568.568,0,0,1-.586-.586V16.338a.607.607,0,0,1,.166-.432.544.544,0,0,1,.42-.179h1.172a.609.609,0,0,1,.611.611v1.12a3.242,3.242,0,0,1,1.4-1.3,4.927,4.927,0,0,1,2.165-.432h.993a.568.568,0,0,1,.586.586v1.044a.528.528,0,0,1-.166.407.591.591,0,0,1-.42.153H69.183a2.9,2.9,0,0,0-2.165.8,2.968,2.968,0,0,0-.79,2.178v7.488a.545.545,0,0,1-.178.42.611.611,0,0,1-.433.166Z" fill="#ef1f1e"/><path d="M76.951,29.226a5.211,5.211,0,0,1-2.318-.51,4.483,4.483,0,0,1-1.681-1.375,3.222,3.222,0,0,1-.636-1.961,3.3,3.3,0,0,1,1.426-2.8A8.2,8.2,0,0,1,77.461,21.2l3.794-.534v-.739a2.556,2.556,0,0,0-.7-1.91,3.174,3.174,0,0,0-2.28-.688,3.338,3.338,0,0,0-1.833.459,2.45,2.45,0,0,0-.994,1.171.541.541,0,0,1-.535.382H73.767a.519.519,0,0,1-.42-.165.593.593,0,0,1-.14-.395,2.13,2.13,0,0,1,.293-.942,3.876,3.876,0,0,1,.9-1.1,5.251,5.251,0,0,1,1.566-.9,6.514,6.514,0,0,1,2.331-.369,7.32,7.32,0,0,1,2.572.4,4.143,4.143,0,0,1,1.643,1.057,4.052,4.052,0,0,1,.866,1.5,5.6,5.6,0,0,1,.268,1.706v8.252a.568.568,0,0,1-.586.586H81.892a.558.558,0,0,1-.433-.166.592.592,0,0,1-.153-.42v-1.1a4.666,4.666,0,0,1-.891.905,4.743,4.743,0,0,1-1.4.738A6.324,6.324,0,0,1,76.951,29.226Zm.535-1.91a4.1,4.1,0,0,0,1.91-.447,3.168,3.168,0,0,0,1.363-1.387,5.049,5.049,0,0,0,.5-2.369V22.4l-2.954.433a6.817,6.817,0,0,0-2.725.853,1.765,1.765,0,0,0-.917,1.515,1.714,1.714,0,0,0,.42,1.185,2.525,2.525,0,0,0,1.07.7A3.957,3.957,0,0,0,77.486,27.316Z" fill="#ef1f1e"/><path d="M92.36,28.971a4.378,4.378,0,0,1-2.318-.548,3.158,3.158,0,0,1-1.3-1.554,6.305,6.305,0,0,1-.407-2.38V17.764H86.349a.566.566,0,0,1-.586-.585v-.866a.568.568,0,0,1,.586-.586h1.987V11.474a.565.565,0,0,1,.585-.586h1.2a.565.565,0,0,1,.585.586v4.253h3.158a.565.565,0,0,1,.434.166.593.593,0,0,1,.152.42v.866a.593.593,0,0,1-.152.42.565.565,0,0,1-.434.165H90.7V24.31a3.691,3.691,0,0,0,.408,1.885,1.543,1.543,0,0,0,1.452.687h1.553a.566.566,0,0,1,.586.586v.917a.566.566,0,0,1-.586.586Z" fill="#ef1f1e"/><path d="M102.089,29.226a5.015,5.015,0,0,1-2.763-.726,4.567,4.567,0,0,1-1.719-2.025,7.171,7.171,0,0,1-.586-2.98V16.313a.566.566,0,0,1,.586-.586H98.88a.568.568,0,0,1,.586.586v7.054q0,3.8,3.311,3.795a3.334,3.334,0,0,0,2.534-1,3.889,3.889,0,0,0,.955-2.79V16.313a.568.568,0,0,1,.586-.586h1.274a.53.53,0,0,1,.407.166.593.593,0,0,1,.153.42V28.385a.592.592,0,0,1-.153.42.526.526,0,0,1-.407.166h-1.2a.568.568,0,0,1-.586-.586v-1.12a5.278,5.278,0,0,1-1.668,1.426A5.4,5.4,0,0,1,102.089,29.226Z" fill="#ef1f1e"/><path d="M112.862,13.256a.566.566,0,0,1-.586-.586V11.3a.607.607,0,0,1,.166-.432.544.544,0,0,1,.42-.179h1.605a.609.609,0,0,1,.611.611V12.67a.552.552,0,0,1-.178.421.616.616,0,0,1-.433.165Zm.2,15.715a.568.568,0,0,1-.586-.586V16.313a.568.568,0,0,1,.586-.586h1.222a.566.566,0,0,1,.586.586V28.385a.566.566,0,0,1-.586.586Z" fill="#ef1f1e"/><path d="M123.814,28.971a4.378,4.378,0,0,1-2.318-.548,3.158,3.158,0,0,1-1.3-1.554,6.305,6.305,0,0,1-.407-2.38V17.764H117.8a.566.566,0,0,1-.586-.585v-.866a.568.568,0,0,1,.586-.586h1.987V11.474a.565.565,0,0,1,.586-.586h1.2a.565.565,0,0,1,.585.586v4.253h3.159a.561.561,0,0,1,.433.166.593.593,0,0,1,.152.42v.866a.593.593,0,0,1-.152.42.561.561,0,0,1-.433.165h-3.159V24.31a3.691,3.691,0,0,0,.408,1.885,1.543,1.543,0,0,0,1.452.687h1.553a.566.566,0,0,1,.586.586v.917a.566.566,0,0,1-.586.586Z" fill="#ef1f1e"/><path d="M15.362,37.3a18.809,18.809,0,1,1,6.7.031" fill="#fff"/><path d="M21.378,30.715c0-2.121,0-4.243-.006-6.365,0-.265.071-.33.33-.327,1.244.014,2.488,0,3.732.01.191,0,.275-.041.3-.25q.3-2.378.638-4.751c.034-.245-.035-.3-.27-.3-1.481.01-2.962.006-4.443,0-.127,0-.29.054-.284-.181a33.84,33.84,0,0,1,.07-3.489,3.79,3.79,0,0,1,.289-1.083,2.321,2.321,0,0,1,2.052-1.474c.836-.06,1.676-.07,2.514-.082.223,0,.3-.042.3-.286q-.018-1.938,0-3.878c0-.21-.056-.284-.269-.32a15.569,15.569,0,0,0-5-.24,6.031,6.031,0,0,0-5.4,4.907,10.207,10.207,0,0,0-.238,2.439c0,1.086,0,2.171,0,3.257,0,.492.067.429-.416.43-1.333,0-2.666.006-4,0-.223,0-.282.06-.28.281.009,1.569.011,3.138,0,4.707,0,.261.089.3.322.3,1.353-.01,2.706,0,4.059-.01.244,0,.315.061.314.31q-.012,6.351,0,12.7c0,.277-.061.319-.332.269a18.809,18.809,0,1,1,6.7.031c-.685.12-.685.12-.685-.572Z" fill="#0180fe"/></g></g></svg>