<?xml version="1.0" encoding="utf-8"?>
<!-- Generator: Adobe Illustrator 25.3.1, SVG Export Plug-In . SVG Version: 6.00 Build 0)  -->
<svg version="1.1" id="Calque_1" xmlns="http://www.w3.org/2000/svg" xmlns:xlink="http://www.w3.org/1999/xlink" x="0px" y="0px"
	 viewBox="0 0 134.9 36.1" style="enable-background:new 0 0 134.9 36.1;" xml:space="preserve">
<style type="text/css">
	.st0{enable-background:new    ;}
	.st1{fill:#EF1F1E;}
	.st2{fill:#FFFFFF;}
	.st3{fill:#0180FE;}
</style>
<g id="Calque_2_1_">
	<g id="Design">
		<g class="st0">
			<path class="st1" d="M51.4,28.2c-1.5,0-2.7-0.3-3.7-0.8s-1.8-1.3-2.3-2.3c-0.5-1-0.8-2.1-0.9-3.5c0-0.7,0-1.5,0-2.3s0-1.6,0-2.3
				c0.1-1.3,0.4-2.5,0.9-3.5c0.5-1,1.3-1.7,2.3-2.3c1-0.5,2.2-0.8,3.7-0.8c1.1,0,2.1,0.2,3,0.5c0.9,0.3,1.6,0.7,2.1,1.2s1,1,1.2,1.6
				s0.4,1,0.4,1.4c0,0.1,0,0.3-0.1,0.4s-0.2,0.1-0.4,0.1h-1.5c-0.2,0-0.3,0-0.4-0.1s-0.1-0.2-0.2-0.3c-0.1-0.4-0.4-0.8-0.7-1.3
				c-0.3-0.4-0.8-0.8-1.4-1c-0.6-0.3-1.3-0.4-2.2-0.4c-1.3,0-2.4,0.4-3.2,1.1c-0.8,0.7-1.2,1.9-1.3,3.5c0,1.5,0,2.9,0,4.4
				c0.1,1.6,0.5,2.8,1.3,3.5c0.8,0.7,1.9,1.1,3.1,1.1c0.9,0,1.6-0.2,2.3-0.5c0.7-0.3,1.2-0.8,1.6-1.5s0.6-1.5,0.6-2.5v-1h-3.7
				c-0.2,0-0.3-0.1-0.4-0.2c-0.1-0.1-0.2-0.2-0.2-0.4v-0.8c0-0.2,0.1-0.3,0.2-0.4c0.1-0.1,0.2-0.2,0.4-0.2h5.6
				c0.2,0,0.3,0.1,0.4,0.2c0.1,0.1,0.1,0.2,0.1,0.4v2.4c0,1.3-0.3,2.5-0.8,3.5c-0.5,1-1.3,1.8-2.4,2.3
				C54.1,27.9,52.9,28.2,51.4,28.2z"/>
			<path class="st1" d="M62.2,28c-0.2,0-0.3-0.1-0.4-0.2c-0.1-0.1-0.2-0.2-0.2-0.4V15.8c0-0.2,0.1-0.3,0.2-0.4
				c0.1-0.1,0.2-0.2,0.4-0.2h1.1c0.2,0,0.3,0.1,0.4,0.2c0.1,0.1,0.2,0.3,0.2,0.4v1.1c0.3-0.6,0.8-1,1.4-1.3c0.6-0.3,1.3-0.4,2.1-0.4
				h1c0.2,0,0.3,0.1,0.4,0.2s0.2,0.2,0.2,0.4v1c0,0.2-0.1,0.3-0.2,0.4s-0.2,0.1-0.4,0.1h-1.5c-0.9,0-1.6,0.3-2.1,0.8
				s-0.8,1.2-0.8,2.1v7.2c0,0.2-0.1,0.3-0.2,0.4c-0.1,0.1-0.3,0.2-0.4,0.2H62.2z"/>
			<path class="st1" d="M74.3,28.2c-0.8,0-1.6-0.2-2.2-0.5c-0.7-0.3-1.2-0.8-1.6-1.3c-0.4-0.6-0.6-1.2-0.6-1.9c0-1.1,0.5-2,1.4-2.7
				c0.9-0.7,2.1-1.1,3.6-1.3l3.7-0.5v-0.7c0-0.8-0.2-1.4-0.7-1.8c-0.5-0.4-1.2-0.7-2.2-0.7c-0.7,0-1.3,0.1-1.8,0.4
				c-0.5,0.3-0.8,0.7-1,1.1c-0.1,0.2-0.3,0.4-0.5,0.4h-1.1c-0.2,0-0.3-0.1-0.4-0.2c-0.1-0.1-0.1-0.2-0.1-0.4c0-0.2,0.1-0.5,0.3-0.9
				c0.2-0.4,0.5-0.7,0.9-1.1c0.4-0.3,0.9-0.6,1.5-0.9c0.6-0.2,1.4-0.4,2.2-0.4c1,0,1.8,0.1,2.5,0.4c0.7,0.3,1.2,0.6,1.6,1
				c0.4,0.4,0.7,0.9,0.8,1.5c0.2,0.5,0.3,1.1,0.3,1.6v8c0,0.2-0.1,0.3-0.2,0.4c-0.1,0.1-0.2,0.2-0.4,0.2h-1.1
				c-0.2,0-0.3-0.1-0.4-0.2c-0.1-0.1-0.1-0.2-0.1-0.4v-1.1c-0.2,0.3-0.5,0.6-0.9,0.9c-0.4,0.3-0.8,0.5-1.4,0.7S75.1,28.2,74.3,28.2z
				 M74.8,26.4c0.7,0,1.3-0.1,1.8-0.4c0.6-0.3,1-0.7,1.3-1.3c0.3-0.6,0.5-1.4,0.5-2.3v-0.7L75.6,22c-1.2,0.2-2,0.4-2.6,0.8
				c-0.6,0.4-0.9,0.9-0.9,1.5c0,0.5,0.1,0.8,0.4,1.1c0.3,0.3,0.6,0.5,1,0.7C73.9,26.3,74.4,26.4,74.8,26.4z"/>
			<path class="st1" d="M89.2,28c-0.9,0-1.7-0.2-2.2-0.5c-0.6-0.4-1-0.9-1.3-1.5c-0.3-0.6-0.4-1.4-0.4-2.3v-6.5h-1.9
				c-0.2,0-0.3-0.1-0.4-0.2c-0.1-0.1-0.2-0.2-0.2-0.4v-0.8c0-0.2,0.1-0.3,0.2-0.4c0.1-0.1,0.2-0.2,0.4-0.2h1.9v-4.1
				c0-0.2,0.1-0.3,0.2-0.4c0.1-0.1,0.2-0.2,0.4-0.2H87c0.2,0,0.3,0.1,0.4,0.2c0.1,0.1,0.2,0.2,0.2,0.4v4.1h3c0.2,0,0.3,0.1,0.4,0.2
				c0.1,0.1,0.1,0.2,0.1,0.4v0.8c0,0.2,0,0.3-0.1,0.4c-0.1,0.1-0.2,0.2-0.4,0.2h-3v6.3c0,0.8,0.1,1.4,0.4,1.8
				c0.3,0.4,0.7,0.7,1.4,0.7h1.5c0.2,0,0.3,0.1,0.4,0.2c0.1,0.1,0.2,0.2,0.2,0.4v0.9c0,0.2-0.1,0.3-0.2,0.4C91.2,27.9,91,28,90.9,28
				H89.2z"/>
			<path class="st1" d="M98.6,28.2c-1,0-1.9-0.2-2.7-0.7c-0.7-0.5-1.3-1.1-1.7-2s-0.6-1.8-0.6-2.9v-6.9c0-0.2,0.1-0.3,0.2-0.4
				s0.2-0.2,0.4-0.2h1.2c0.2,0,0.3,0.1,0.4,0.2c0.1,0.1,0.2,0.2,0.2,0.4v6.8c0,2.4,1.1,3.7,3.2,3.7c1,0,1.8-0.3,2.4-1
				c0.6-0.6,0.9-1.5,0.9-2.7v-6.8c0-0.2,0.1-0.3,0.2-0.4c0.1-0.1,0.2-0.2,0.4-0.2h1.2c0.2,0,0.3,0.1,0.4,0.2s0.1,0.2,0.1,0.4v11.7
				c0,0.2,0,0.3-0.1,0.4c-0.1,0.1-0.2,0.2-0.4,0.2h-1.2c-0.2,0-0.3-0.1-0.4-0.2c-0.1-0.1-0.2-0.2-0.2-0.4v-1.1c-0.4,0.6-1,1-1.6,1.4
				S99.6,28.2,98.6,28.2z"/>
			<path class="st1" d="M109,12.8c-0.2,0-0.3-0.1-0.4-0.2s-0.2-0.2-0.2-0.4v-1.3c0-0.2,0.1-0.3,0.2-0.4c0.1-0.1,0.2-0.2,0.4-0.2h1.5
				c0.2,0,0.3,0.1,0.4,0.2c0.1,0.1,0.2,0.3,0.2,0.4v1.3c0,0.2-0.1,0.3-0.2,0.4s-0.3,0.2-0.4,0.2H109z M109.2,28
				c-0.2,0-0.3-0.1-0.4-0.2c-0.1-0.1-0.2-0.2-0.2-0.4V15.8c0-0.2,0.1-0.3,0.2-0.4c0.1-0.1,0.2-0.2,0.4-0.2h1.2
				c0.2,0,0.3,0.1,0.4,0.2c0.1,0.1,0.2,0.2,0.2,0.4v11.7c0,0.2-0.1,0.3-0.2,0.4c-0.1,0.1-0.2,0.2-0.4,0.2H109.2z"/>
			<path class="st1" d="M119.5,28c-0.9,0-1.7-0.2-2.2-0.5s-1-0.9-1.3-1.5c-0.3-0.6-0.4-1.4-0.4-2.3v-6.5h-1.9
				c-0.2,0-0.3-0.1-0.4-0.2c-0.1-0.1-0.2-0.2-0.2-0.4v-0.8c0-0.2,0.1-0.3,0.2-0.4s0.2-0.2,0.4-0.2h1.9v-4.1c0-0.2,0.1-0.3,0.2-0.4
				c0.1-0.1,0.2-0.2,0.4-0.2h1.2c0.2,0,0.3,0.1,0.4,0.2c0.1,0.1,0.2,0.2,0.2,0.4v4.1h3c0.2,0,0.3,0.1,0.4,0.2
				c0.1,0.1,0.1,0.2,0.1,0.4v0.8c0,0.2,0,0.3-0.1,0.4c-0.1,0.1-0.2,0.2-0.4,0.2h-3v6.3c0,0.8,0.1,1.4,0.4,1.8
				c0.3,0.4,0.7,0.7,1.4,0.7h1.5c0.2,0,0.3,0.1,0.4,0.2c0.1,0.1,0.2,0.2,0.2,0.4v0.9c0,0.2-0.1,0.3-0.2,0.4
				c-0.1,0.1-0.2,0.2-0.4,0.2H119.5z"/>
			<path class="st1" d="M128.6,28.2c-0.9,0-1.7-0.1-2.4-0.3c-0.7-0.2-1.2-0.5-1.6-0.8s-0.7-0.7-0.9-1s-0.3-0.6-0.3-0.8
				c0-0.2,0-0.3,0.2-0.4s0.3-0.1,0.4-0.1h1.1c0.1,0,0.2,0,0.2,0c0.1,0,0.1,0.1,0.2,0.2c0.2,0.2,0.5,0.5,0.7,0.7
				c0.3,0.2,0.6,0.4,1,0.6s0.9,0.2,1.4,0.2c0.8,0,1.5-0.2,2.1-0.5c0.5-0.3,0.8-0.8,0.8-1.4c0-0.4-0.1-0.7-0.3-1
				c-0.2-0.2-0.6-0.5-1.2-0.7c-0.6-0.2-1.3-0.4-2.3-0.6c-1-0.2-1.8-0.5-2.3-0.8c-0.6-0.3-1-0.7-1.2-1.2s-0.4-1-0.4-1.6
				c0-0.6,0.2-1.2,0.5-1.8s0.9-1,1.6-1.4c0.7-0.4,1.6-0.5,2.6-0.5c0.9,0,1.6,0.1,2.2,0.3c0.6,0.2,1.1,0.5,1.5,0.8
				c0.4,0.3,0.7,0.6,0.9,0.9c0.2,0.3,0.3,0.6,0.3,0.8c0,0.2,0,0.3-0.1,0.4c-0.1,0.1-0.2,0.2-0.4,0.2h-1c-0.1,0-0.2,0-0.3-0.1
				c-0.1,0-0.1-0.1-0.2-0.2c-0.2-0.2-0.4-0.4-0.6-0.6c-0.2-0.2-0.5-0.4-0.9-0.5s-0.8-0.2-1.4-0.2c-0.8,0-1.4,0.2-1.8,0.5
				c-0.4,0.3-0.6,0.8-0.6,1.3c0,0.3,0.1,0.6,0.3,0.8c0.2,0.2,0.5,0.5,1,0.7c0.5,0.2,1.3,0.4,2.3,0.6c1.1,0.2,1.9,0.5,2.6,0.9
				c0.6,0.4,1.1,0.8,1.3,1.3s0.4,1,0.4,1.6c0,0.7-0.2,1.3-0.6,1.9c-0.4,0.6-1,1-1.8,1.4C130.7,28.1,129.7,28.2,128.6,28.2z"/>
		</g>
		<path class="st2" d="M14.8,36C5,34.2-1.5,24.7,0.3,14.8S11.6-1.5,21.5,0.3S37.8,11.6,36,21.5c-1.4,7.4-7.2,13.3-14.7,14.6"/>
		<path class="st3" d="M20.6,29.7c0-2,0-4.1,0-6.1c0-0.3,0.1-0.3,0.3-0.3c1.2,0,2.4,0,3.6,0c0.2,0,0.3,0,0.3-0.2
			c0.2-1.5,0.4-3.1,0.6-4.6c0-0.2,0-0.3-0.3-0.3c-1.4,0-2.9,0-4.3,0c-0.1,0-0.3,0.1-0.3-0.2c0-1.1,0-2.2,0.1-3.4
			c0-0.4,0.1-0.7,0.3-1c0.3-0.8,1.1-1.4,2-1.4c0.8-0.1,1.6-0.1,2.4-0.1c0.2,0,0.3,0,0.3-0.3c0-1.2,0-2.5,0-3.7
			c0-0.2-0.1-0.3-0.3-0.3c-1.6-0.3-3.2-0.4-4.8-0.2c-2.6,0.2-4.7,2.2-5.2,4.7c-0.2,0.8-0.2,1.6-0.2,2.4c0,1,0,2.1,0,3.1
			c0,0.5,0.1,0.4-0.4,0.4c-1.3,0-2.6,0-3.9,0c-0.2,0-0.3,0.1-0.3,0.3c0,1.5,0,3,0,4.5c0,0.3,0.1,0.3,0.3,0.3c1.3,0,2.6,0,3.9,0
			c0.2,0,0.3,0.1,0.3,0.3c0,4.1,0,8.2,0,12.3c0,0.3-0.1,0.3-0.3,0.3C5,34.2-1.5,24.7,0.3,14.8S11.6-1.5,21.5,0.3S37.8,11.6,36,21.5
			c-1.4,7.4-7.2,13.3-14.7,14.6c-0.7,0.1-0.7,0.1-0.7-0.6L20.6,29.7z"/>
	</g>
</g>
</svg>
