<svg xmlns="http://www.w3.org/2000/svg" viewBox="0 0 58.375 24.291"><g id="Calque_2" data-name="Calque 2"><g id="Design"><path d="M4.757,16.955c.047,0,.071.018.071.056v1.165a.062.062,0,0,1-.071.07H1.4V7.58h1.53v9.375Z" transform="translate(-1.403)" fill="#ef1e1e"/><path d="M5.389,5.251,8.673,4.03v.8L5.389,6.065Zm0,1.586L8.673,5.616v.8L5.389,7.65Z" transform="translate(-1.403)" fill="#ef1e1e"/><path d="M4.617,18.246a.062.062,0,0,1-.07-.07V17.011c0-.038.023-.056.07-.056H6.441V11.4h1.53v6.849Zm2.568-8.14a.788.788,0,0,1-.6-.238.923.923,0,0,1-.225-.66.933.933,0,0,1,.218-.666.8.8,0,0,1,.61-.232.8.8,0,0,1,.625.239.942.942,0,0,1,.217.659.935.935,0,0,1-.224.653A.8.8,0,0,1,7.185,10.106Z" transform="translate(-1.403)" fill="#ef1e1e"/><path d="M13.921,16.955c.047,0,.07.018.07.056v1.165a.062.062,0,0,1-.07.07H10.567V7.58H12.1v9.375Z" transform="translate(-1.403)" fill="#ef1e1e"/><path d="M13.781,18.246a.062.062,0,0,1-.07-.07V17.011c0-.038.023-.056.07-.056h5.908a1.928,1.928,0,0,1-.344-.5,4.579,4.579,0,0,1-.294-.793c-.09-.313-.171-.676-.246-1.088a5.922,5.922,0,0,0-.239-.94A2.009,2.009,0,0,0,18.223,13a1.172,1.172,0,0,0-.492-.344,1.937,1.937,0,0,0-.666-.1,3.636,3.636,0,0,0-.961.132,5.066,5.066,0,0,0-1.018.415l-.533-1.165a4.29,4.29,0,0,1,1.263-.519,5.95,5.95,0,0,1,1.375-.155A4.689,4.689,0,0,1,18,11.32a2.495,2.495,0,0,1,1.368.73,2.656,2.656,0,0,1,.512.835,6.115,6.115,0,0,1,.33,1.249,12.64,12.64,0,0,0,.26,1.27,5.71,5.71,0,0,0,.33.947,1.932,1.932,0,0,0,.407.6h.926c.047,0,.07.018.07.056v1.165a.062.062,0,0,1-.07.07Zm3.368,3.045a.8.8,0,0,1-.617-.238,1.091,1.091,0,0,1,0-1.327.819.819,0,0,1,.617-.231.783.783,0,0,1,.61.238,1.1,1.1,0,0,1,0,1.313A.774.774,0,0,1,17.149,21.291Z" transform="translate(-1.403)" fill="#ef1e1e"/><path d="M21.99,18.246a.062.062,0,0,1-.07-.07V17.011c0-.038.024-.056.07-.056h1.684a6.732,6.732,0,0,1-.35-1.165,5.494,5.494,0,0,1-.113-1.08,5.19,5.19,0,0,1,.148-1.229,4.187,4.187,0,0,1,.428-1.1,4.489,4.489,0,0,1,1.263-.659,4.234,4.234,0,0,1,1.375-.24,3.221,3.221,0,0,1,1.6.394A2.7,2.7,0,0,1,29.112,13a3.483,3.483,0,0,1,.387,1.656,4.72,4.72,0,0,1-.106,1.031,3.621,3.621,0,0,1-.315.878,3.135,3.135,0,0,1-1.228,1.249,3.554,3.554,0,0,1-1.762.435ZM24.7,14.653a6.252,6.252,0,0,0,.1,1.1,5.8,5.8,0,0,0,.365,1.2H26a1.882,1.882,0,0,0,1.038-.28,1.845,1.845,0,0,0,.674-.793,2.894,2.894,0,0,0,.239-1.229,2.033,2.033,0,0,0-.442-1.361,1.391,1.391,0,0,0-1.1-.52,2.379,2.379,0,0,0-.8.141,3.39,3.39,0,0,0-.73.365,2.893,2.893,0,0,0-.147.659A6.76,6.76,0,0,0,24.7,14.653Z" transform="translate(-1.403)" fill="#ef1e1e"/><path d="M45.325,24.232a12.22,12.22,0,1,1,4.354.02" transform="translate(-1.403)" fill="#fff"/><path d="M49.234,19.956c0-1.378,0-2.757,0-4.135,0-.172.046-.215.214-.213.808.009,1.617,0,2.425.007.124,0,.179-.027.2-.162q.2-1.545.414-3.088c.023-.159-.022-.193-.175-.192-.962.006-1.924,0-2.887,0-.082,0-.188.035-.184-.117a22.289,22.289,0,0,1,.045-2.268,2.489,2.489,0,0,1,.188-.7A1.509,1.509,0,0,1,50.8,8.129c.543-.039,1.089-.045,1.634-.053.145,0,.2-.027.2-.186q-.012-1.26,0-2.52c0-.136-.036-.184-.175-.208A10.11,10.11,0,0,0,49.2,5.007,3.919,3.919,0,0,0,45.7,8.2a6.65,6.65,0,0,0-.154,1.585c0,.705,0,1.41,0,2.116,0,.319.044.278-.27.279-.866,0-1.732,0-2.6,0-.145,0-.183.039-.182.183q.009,1.529,0,3.059c0,.169.058.2.209.2.879-.007,1.758,0,2.637-.007.158,0,.2.04.2.2q-.008,4.126,0,8.253c0,.18-.039.207-.215.175a12.22,12.22,0,1,1,4.354.02c-.445.078-.445.078-.445-.371Z" transform="translate(-1.403)" fill="#0180fe"/></g></g></svg>