<?xml version="1.0" encoding="utf-8"?>
<!-- Generator: Adobe Illustrator 25.3.1, SVG Export Plug-In . SVG Version: 6.00 Build 0)  -->
<svg version="1.1" id="Calque_1" xmlns="http://www.w3.org/2000/svg" xmlns:xlink="http://www.w3.org/1999/xlink" x="0px" y="0px"
	 viewBox="0 0 113.8 42.5" style="enable-background:new 0 0 113.8 42.5;" xml:space="preserve">
<style type="text/css">
	.st0{enable-background:new    ;}
	.st1{fill:#EF1F1E;}
	.st2{fill:#FFFFFF;}
	.st3{fill:#0180FE;}
</style>
<g id="Calque_2_1_">
	<g id="Design">
		<g class="st0">
			<path class="st1" d="M7.8,33.8c-1,0-1.9-0.2-2.6-0.7c-0.7-0.5-1.3-1.2-1.7-2c-0.4-0.9-0.6-1.8-0.6-2.9c0-0.8,0.1-1.6,0.2-2.4
				c0.1-0.8,0.3-1.5,0.6-2.3h2.9c-0.2,0.7-0.4,1.3-0.5,2S6,26.8,6,27.7c0,0.7,0.1,1.3,0.4,1.8c0.3,0.5,0.6,1,1.1,1.3
				c0.5,0.3,1,0.5,1.5,0.5h4.4c0.7,0,1.3-0.1,1.9-0.2c0.5-0.1,1-0.3,1.3-0.5c0.3-0.2,0.5-0.5,0.5-0.9c0-0.3-0.1-0.6-0.4-0.8
				c-0.3-0.2-0.7-0.4-1.3-0.6c-0.7-0.2-1.2-0.4-1.7-0.6c-0.5-0.2-0.9-0.5-1.2-0.7c-0.3-0.3-0.5-0.6-0.7-1c-0.1-0.4-0.2-0.8-0.2-1.3
				c0-0.4,0.1-0.9,0.2-1.4c0.2-0.5,0.4-0.9,0.7-1.4c0.4-0.6,0.9-1.2,1.5-1.6c0.6-0.5,1.2-0.9,1.8-1.2c0.6-0.3,1.2-0.4,1.9-0.4
				c0.3,0,0.5,0,0.8,0.1c0.2,0,0.5,0.1,0.7,0.2c0.5,0.2,1,0.6,1.4,1.1c0.5,0.5,1,1.2,1.7,2.2c0.4,0.7,0.8,1.2,1.1,1.6
				s0.6,0.7,0.9,0.9c0.2,0.2,0.5,0.3,0.7,0.4c0.3,0.1,0.5,0.1,0.8,0.1h0.1c0.1,0,0.1,0,0.1,0.1v2.4c0,0.1,0,0.1-0.1,0.1h-0.1
				c-0.5,0-1-0.1-1.5-0.2c-0.5-0.1-0.9-0.3-1.3-0.6c-0.4-0.3-0.8-0.6-1.3-1.1c-0.1-0.1-0.2-0.3-0.4-0.6c-0.2-0.3-0.5-0.7-0.8-1.1
				c-0.4-0.5-0.7-1-1-1.4c-0.3-0.4-0.6-0.6-0.8-0.8c-0.2-0.2-0.5-0.3-0.7-0.4c-0.2-0.1-0.4-0.1-0.6-0.1c-0.3,0-0.5,0.1-0.9,0.3
				c-0.3,0.2-0.6,0.4-0.9,0.7c-0.3,0.3-0.5,0.6-0.7,0.9c-0.2,0.3-0.3,0.6-0.3,0.8c0,0.2,0.1,0.4,0.2,0.6c0.1,0.2,0.3,0.3,0.6,0.5
				s0.6,0.3,1,0.4c0.6,0.2,1,0.4,1.4,0.5c0.4,0.2,0.7,0.3,1,0.4c0.5,0.3,0.9,0.7,1.1,1.1c0.3,0.4,0.4,0.9,0.4,1.5
				c0,1.5-0.6,2.7-1.7,3.4c-1.1,0.8-2.8,1.2-5.1,1.2H7.8z M9.3,39.5c-0.5,0-0.8-0.1-1.1-0.4c-0.3-0.3-0.4-0.7-0.4-1.2
				c0-0.5,0.1-0.9,0.4-1.2c0.3-0.3,0.7-0.4,1.1-0.4c0.5,0,0.9,0.1,1.1,0.4c0.3,0.3,0.4,0.7,0.4,1.2c0,0.5-0.1,1-0.4,1.2
				S9.8,39.5,9.3,39.5z M13.5,39.5c-0.5,0-0.9-0.1-1.1-0.4c-0.3-0.3-0.4-0.7-0.4-1.2c0-0.5,0.1-0.9,0.4-1.2c0.3-0.3,0.7-0.5,1.1-0.5
				c0.5,0,0.9,0.2,1.1,0.5c0.3,0.3,0.4,0.7,0.4,1.2c0,0.5-0.1,0.9-0.4,1.2C14.4,39.4,14,39.5,13.5,39.5z"/>
			<path class="st1" d="M25.5,27.9c-0.1,0-0.1,0-0.1-0.1v-2.4c0-0.1,0-0.1,0.1-0.1h3.1v-9.5h3.2v12.1H25.5z M30.2,13.6
				c-0.5,0-0.9-0.1-1.2-0.4c-0.3-0.3-0.4-0.7-0.4-1.2s0.1-0.9,0.4-1.2c0.3-0.3,0.7-0.4,1.2-0.4c0.5,0,0.8,0.2,1.1,0.5
				c0.3,0.3,0.4,0.7,0.4,1.2s-0.1,0.9-0.4,1.2C31.1,13.5,30.7,13.6,30.2,13.6z"/>
			<path class="st1" d="M42.7,25.3C42.7,25.3,42.8,25.4,42.7,25.3l0.1,2.5c0,0.1,0,0.1-0.1,0.1h-6.3V9.2h3.2v16.1H42.7z"/>
			<path class="st1" d="M46,13.7c-0.7,0-1.2-0.2-1.5-0.6c-0.4-0.4-0.6-1-0.6-1.8V9.8h1.5V11c0,0.5,0.1,0.8,0.2,1s0.4,0.3,0.7,0.3
				s0.6-0.1,0.8-0.3c0.2-0.2,0.2-0.5,0.2-0.9v-2h1.3v1.5c0,0.4,0.1,0.7,0.2,0.9c0.1,0.2,0.4,0.3,0.7,0.3c0.4,0,0.6-0.1,0.8-0.3
				c0.1-0.2,0.2-0.5,0.2-1.1V8.8h1.5v2c0,0.8-0.2,1.3-0.6,1.8s-0.9,0.6-1.6,0.6c-0.4,0-0.7-0.1-1-0.2c-0.3-0.1-0.5-0.3-0.7-0.6
				c-0.2,0.4-0.5,0.7-0.8,0.9C46.8,13.6,46.4,13.7,46,13.7z"/>
			<path class="st1" d="M42.4,27.9c-0.1,0-0.1,0-0.1-0.1v-2.4c0-0.1,0-0.1,0.1-0.1h10.1c-0.2-0.2-0.4-0.5-0.6-0.8s-0.4-0.8-0.5-1.3
				c-0.1-0.5-0.3-1.1-0.4-1.7c-0.1-0.6-0.3-1.1-0.4-1.5c-0.2-0.4-0.4-0.8-0.6-1s-0.5-0.4-0.8-0.6c-0.3-0.1-0.7-0.2-1.2-0.2
				c-0.6,0-1.1,0.1-1.7,0.2c-0.5,0.2-1.1,0.4-1.7,0.7l-1-2.4c0.7-0.4,1.5-0.7,2.3-0.9c0.8-0.2,1.6-0.3,2.5-0.3c0.5,0,1,0,1.4,0.1
				c0.4,0.1,0.8,0.2,1.1,0.3c0.5,0.2,1,0.5,1.4,0.9c0.4,0.4,0.7,0.9,1,1.5c0.3,0.6,0.5,1.3,0.6,2.1c0.1,0.8,0.3,1.6,0.5,2.2
				c0.2,0.6,0.4,1.2,0.6,1.6c0.2,0.4,0.4,0.8,0.7,1h1.6c0.1,0,0.1,0,0.1,0.1v2.4c0,0.1,0,0.1-0.1,0.1H42.4z M48.3,33.7
				c-0.5,0-0.9-0.1-1.1-0.4s-0.4-0.7-0.4-1.2c0-0.5,0.1-0.9,0.4-1.2c0.3-0.3,0.7-0.5,1.1-0.5s0.9,0.2,1.1,0.5
				c0.3,0.3,0.4,0.7,0.4,1.2c0,0.5-0.1,0.9-0.4,1.2C49.2,33.5,48.8,33.7,48.3,33.7z"/>
			<path class="st1" d="M57.1,27.9c-0.1,0-0.1,0-0.1-0.1v-2.4c0-0.1,0-0.1,0.1-0.1H60c-0.2-0.6-0.4-1.2-0.6-1.8s-0.2-1.2-0.2-1.8
				c0-0.7,0.1-1.4,0.3-2.2s0.5-1.5,0.8-2c0.7-0.5,1.5-0.8,2.4-1.1c0.9-0.3,1.6-0.4,2.4-0.4c1.1,0,2.1,0.2,3,0.7c0.9,0.5,1.5,1.1,2,2
				c0.5,0.9,0.7,1.9,0.7,3c0,0.6-0.1,1.2-0.2,1.8c-0.1,0.6-0.3,1.1-0.6,1.5c-0.5,1-1.3,1.7-2.3,2.2c-1,0.5-2.1,0.8-3.3,0.8H57.1z
				 M62.2,21.9c0,0.5,0.1,1.1,0.2,1.6c0.1,0.6,0.3,1.2,0.5,1.8h1.2c0.7,0,1.3-0.2,1.8-0.5c0.5-0.3,0.9-0.8,1.2-1.3
				c0.3-0.6,0.4-1.2,0.4-2c0-0.9-0.2-1.7-0.7-2.2c-0.5-0.6-1.1-0.8-1.8-0.8c-0.4,0-0.8,0.1-1.3,0.2c-0.4,0.1-0.8,0.3-1.2,0.6
				c-0.1,0.4-0.2,0.8-0.3,1.2S62.2,21.4,62.2,21.9z"/>
		</g>
		<path class="st2" d="M92.3,38.2C82.5,36.3,76,26.9,77.8,17C79.6,7.1,89.1,0.6,99,2.5s16.4,11.3,14.5,21.2
			c-1.4,7.4-7.2,13.3-14.7,14.6"/>
		<path class="st3" d="M98.1,31.8c0-2,0-4.1,0-6.1c0-0.3,0.1-0.3,0.3-0.3c1.2,0,2.4,0,3.6,0c0.2,0,0.3,0,0.3-0.2
			c0.2-1.5,0.4-3.1,0.6-4.6c0-0.2,0-0.3-0.3-0.3c-1.4,0-2.9,0-4.3,0c-0.1,0-0.3,0.1-0.3-0.2c0-1.1,0-2.2,0.1-3.4
			c0-0.4,0.1-0.7,0.3-1c0.3-0.8,1.1-1.4,2-1.4c0.8-0.1,1.6-0.1,2.4-0.1c0.2,0,0.3,0,0.3-0.3c0-1.2,0-2.5,0-3.7
			c0-0.2-0.1-0.3-0.3-0.3c-1.6-0.3-3.2-0.4-4.8-0.2c-2.6,0.2-4.7,2.2-5.2,4.7c-0.2,0.8-0.2,1.6-0.2,2.4c0,1,0,2.1,0,3.1
			c0,0.5,0.1,0.4-0.4,0.4c-1.3,0-2.6,0-3.9,0c-0.2,0-0.3,0.1-0.3,0.3c0,1.5,0,3,0,4.5c0,0.3,0.1,0.3,0.3,0.3c1.3,0,2.6,0,3.9,0
			c0.2,0,0.3,0.1,0.3,0.3c0,4.1,0,8.2,0,12.3c0,0.3-0.1,0.3-0.3,0.3C82.5,36.3,76,26.9,77.8,17C79.6,7.1,89.1,0.6,99,2.5
			s16.4,11.3,14.5,21.2c-1.4,7.4-7.2,13.3-14.7,14.6c-0.7,0.1-0.7,0.1-0.7-0.6L98.1,31.8z"/>
	</g>
</g>
</svg>
