<svg xmlns="http://www.w3.org/2000/svg" viewBox="0 0 22.336 22.357"><g id="Calque_2" data-name="Calque 2"><g id="Design"><path d="M0,6.157c.033-.258.051-.519.1-.774a3.239,3.239,0,0,1,.863-1.66c.6-.614,1.179-1.253,1.825-1.815a2.047,2.047,0,0,1,3,.035C6.8,2.888,7.762,3.879,8.7,4.89a1.987,1.987,0,0,1,.016,2.674c-.5.573-1.058,1.1-1.6,1.641a.219.219,0,0,0-.059.309,12.285,12.285,0,0,0,2.132,2.911,14.744,14.744,0,0,0,2.829,2.386c.3.19.618.348.952.534.359-.364.708-.724,1.064-1.076.238-.235.478-.47.734-.684a2,2,0,0,1,2.623.038c1.042.994,2.062,2.013,3.049,3.06a2.021,2.021,0,0,1,.035,2.75,27.1,27.1,0,0,1-2.074,2.118,3.449,3.449,0,0,1-2.729.786,13.009,13.009,0,0,1-5.2-1.831,21.5,21.5,0,0,1-5.337-4.182A21.075,21.075,0,0,1,.669,9.381,8.883,8.883,0,0,1,.031,6.61.856.856,0,0,0,0,6.463Zm1.285.183c.024.254.044.507.072.76a3.328,3.328,0,0,0,.066.342,14.055,14.055,0,0,0,1.814,4.3,21.391,21.391,0,0,0,8.872,8.19,10.308,10.308,0,0,0,3.66,1.145,2.416,2.416,0,0,0,2.07-.7c.49-.507.989-1.006,1.48-1.513a.954.954,0,0,0,0-1.551c-.361-.37-.73-.732-1.095-1.1-.51-.509-1.015-1.023-1.531-1.525a.836.836,0,0,0-1.244-.029c-.072.062-.139.129-.206.2-.5.5-1,1-1.5,1.495a.935.935,0,0,1-1.155.224,13.762,13.762,0,0,1-1.26-.693,16.424,16.424,0,0,1-3.577-3.144,11.708,11.708,0,0,1-1.87-2.75c-.371-.8-.318-1.053.319-1.669.5-.485,1-.973,1.481-1.481A.81.81,0,0,0,7.7,5.64c-.042-.05-.085-.1-.131-.146Q6.272,4.2,4.975,2.9A1.318,1.318,0,0,0,4.66,2.67a.9.9,0,0,0-1.12.266c-.488.479-.96.975-1.455,1.447A2.472,2.472,0,0,0,1.285,6.34Z"/><path d="M12.533,0c.5.131,1.014.244,1.512.4a11.678,11.678,0,0,1,4.337,2.437A12.048,12.048,0,0,1,21.5,7.091a11.838,11.838,0,0,1,.823,2.77.6.6,0,0,1-.459.712.61.61,0,0,1-.756-.419c-.133-.468-.22-.948-.36-1.413a10.542,10.542,0,0,0-3.5-5.2A10.549,10.549,0,0,0,12.44,1.3c-.49-.092-.708-.319-.7-.692A.683.683,0,0,1,12.227,0Z"/><path d="M11.564,4.7a.63.63,0,0,1,.765-.627,7.269,7.269,0,0,1,4.706,2.977,7.168,7.168,0,0,1,1.238,2.926.639.639,0,1,1-1.239.307,10.949,10.949,0,0,0-.446-1.431,5.965,5.965,0,0,0-4.449-3.521A.629.629,0,0,1,11.564,4.7Z"/></g></g></svg>