<svg xmlns="http://www.w3.org/2000/svg" viewBox="0 0 56.235 16.044"><g id="Calque_2" data-name="Calque 2"><g id="Design"><path d="M1.441,7.09C1.324,6.2,1.213,5.352,1.1,4.5A.222.222,0,0,1,1.26,4.22a7.406,7.406,0,0,1,6.4.137A4.582,4.582,0,0,1,10.1,8.311c.058.688.029,1.384.036,2.076,0,.17-.022.328.243.322.68-.013,1.36,0,2.078,0a7.1,7.1,0,0,1-.351-1.89,5.553,5.553,0,0,1,6.47-5.592.625.625,0,0,0,.58-.208,5.609,5.609,0,0,1,5.813-1.372,5.56,5.56,0,0,1,3.945,4.464,5.869,5.869,0,0,1,.106,1.155c.01,2.2,0,4.4.013,6.6,0,.331-.089.411-.415.411q-14.117-.014-28.231,0c-.319,0-.392-.085-.386-.391q.032-1.411,0-2.824C0,10.77.072,10.7.365,10.7c1.932.014,3.864,0,5.8.014.315,0,.441-.06.422-.4a9.681,9.681,0,0,0-.115-1.776A2.633,2.633,0,0,0,3.26,6.592,7.519,7.519,0,0,0,1.441,7.09ZM19.691,9.6c0-.378.01-.668,0-.958a2.007,2.007,0,1,0-2.464,2,5.016,5.016,0,0,0,1.283.059c.383,0,.886.169,1.117-.07S19.666,9.9,19.691,9.6Zm5.759-.87h0c0-.553.017-1.107,0-1.66A2.241,2.241,0,0,0,22.38,5.075c-.22.09-.354.154-.148.426a5.065,5.065,0,0,1,.916,2.111,14.449,14.449,0,0,1,.113,2.773c0,.251.062.337.324.326.528-.021,1.056-.015,1.584,0,.215.006.292-.053.286-.276C25.44,9.865,25.45,9.3,25.45,8.73Z" fill="#232d39"/><path d="M41.494,14.269c-3.407,0-6.813-.005-10.219.007-.359,0-.489-.06-.487-.462q.024-6.687,0-13.375c0-.335.07-.449.427-.438.917.027,1.835.023,2.752,0,.325-.008.417.075.416.408-.014,3.254,0,6.508-.018,9.761,0,.412.075.547.527.546,6.812-.017,13.624-.009,20.436-.02.373,0,.488.08.481.469-.025,1.509-.016,3.018,0,4.528,0,.266-.062.355-.345.35q-1.458-.027-2.919,0c-.262,0-.337-.07-.32-.324.022-.345-.022-.7.013-1.038.037-.365-.108-.422-.441-.421-2.808.014-5.616.008-8.425.008Z" fill="#232d39"/><path d="M39.741,7.578a2.243,2.243,0,0,1-2.255-2.2,2.241,2.241,0,1,1,2.255,2.2Z" fill="#00d358"/><path d="M54.011,7.567a2.21,2.21,0,1,1,2.224-2.21A2.217,2.217,0,0,1,54.011,7.567Z" fill="#09f"/><path d="M49.089,5.366a2.224,2.224,0,1,1-2.2-2.224A2.2,2.2,0,0,1,49.089,5.366Z" fill="#0c9"/></g></g></svg>