<svg xmlns="http://www.w3.org/2000/svg" xmlns:xlink="http://www.w3.org/1999/xlink" viewBox="0 0 77.703 36.427"><defs><linearGradient id="Dégradé_sans_nom_5" x1="13.71" y1="175.305" x2="13.71" y2="139.096" gradientTransform="translate(4.395 -138.878)" gradientUnits="userSpaceOnUse"><stop offset="0" stop-color="#ffc336"/><stop offset="0.494" stop-color="#fc308c"/><stop offset="1" stop-color="#9671e3"/></linearGradient><linearGradient id="Dégradé_sans_nom_13" x1="53.791" y1="139.337" x2="53.791" y2="156.274" gradientTransform="translate(4.395 -138.878)" gradientUnits="userSpaceOnUse"><stop offset="0" stop-color="#9671e3"/><stop offset="0.506" stop-color="#fc308c"/><stop offset="1" stop-color="#ffc336"/></linearGradient><linearGradient id="Dégradé_sans_nom_13-2" x1="64.934" y1="139.337" x2="64.934" y2="156.274" xlink:href="#Dégradé_sans_nom_13"/><linearGradient id="Dégradé_sans_nom_13-3" x1="55.559" y1="139.337" x2="55.559" y2="156.274" xlink:href="#Dégradé_sans_nom_13"/><linearGradient id="Dégradé_sans_nom_13-4" x1="67.678" y1="139.337" x2="67.678" y2="156.274" xlink:href="#Dégradé_sans_nom_13"/></defs><g id="Calque_2" data-name="Calque 2"><g id="Design"><path d="M52.189,16.532H50.615A.839.839,0,0,1,49.836,16c-.242-.571-.5-1.159-.761-1.8H44.526c-.242.588-.5,1.176-.761,1.8a.864.864,0,0,1-.848.536h-1.5c-.312,0-.675-.19-.5-.605l4.67-10.9a1.334,1.334,0,0,1,2.457,0l4.652,10.9C52.864,16.342,52.5,16.532,52.189,16.532ZM48.159,11.9c-.45-1.142-.917-2.353-1.35-3.564-.449,1.263-.882,2.4-1.349,3.564Z"/><path d="M57.021,10.438l.062,5.506a.541.541,0,0,1-.571.588H54.886a.545.545,0,0,1-.588-.588V7.462Z"/><path d="M73.2,5.412l4.46,10.515c.173.415-.19.605-.5.605H75.582A.838.838,0,0,1,74.8,16c-.243-.571-.5-1.159-.761-1.8H70.184l.773-2.3h2.169c-.42-1.068-.746-2.006-1.154-3.138Z"/><path d="M50.883,30.062a1.4,1.4,0,0,1-1.44,1.384H42.188a1.442,1.442,0,0,1-1.44-1.44,1.829,1.829,0,0,1,.443-1.126l5.5-7.4H42.151a1.385,1.385,0,1,1,0-2.769h7.181a1.411,1.411,0,0,1,1.422,1.421,1.609,1.609,0,0,1-.425,1l-5.52,7.551h4.634A1.4,1.4,0,0,1,50.883,30.062Z"/><path d="M52.2,30.818V20a1.482,1.482,0,0,1,1.477-1.477A1.5,1.5,0,0,1,55.176,20V30.818a.577.577,0,0,1-.609.628H52.831A.582.582,0,0,1,52.2,30.818Z"/><path d="M67.592,30.043a1.453,1.453,0,0,1-1.514,1.514,1.53,1.53,0,0,1-1.071-.5l-4.246-4.394v4.154a.577.577,0,0,1-.609.628H58.417a.582.582,0,0,1-.628-.628V20a1.482,1.482,0,0,1,1.477-1.477A1.5,1.5,0,0,1,60.761,20v2.935l4.246-4a1.449,1.449,0,0,1,1.015-.407,1.428,1.428,0,0,1,1.385,1.422,1.505,1.505,0,0,1-.5,1.07L62.9,24.763c1.439,1.44,2.861,2.769,4.264,4.283A1.66,1.66,0,0,1,67.592,30.043Z"/><circle cx="18.105" cy="18.322" r="18.105" fill="url(#Dégradé_sans_nom_5)"/><rect x="19.275" y="11.827" width="3.877" height="15.952" rx="1.939" fill="#fff"/><rect x="12.877" y="8.359" width="3.877" height="15.952" rx="1.939" fill="#fff"/><rect x="6.955" y="14.37" width="3.877" height="7.976" rx="1.939" fill="#fff"/><rect x="25.607" y="14.37" width="3.877" height="7.976" rx="1.939" fill="#fff"/><path d="M52.218,3.143a1.421,1.421,0,0,1,1.4-1.419,1.636,1.636,0,0,1,1.332.813L61.4,10.53l-.043-4.852a1.388,1.388,0,0,1,1.384-1.384,1.4,1.4,0,0,1,1.4,1.384l.017,10.171a.535.535,0,0,1-.553.553H62.477A1.2,1.2,0,0,1,61.44,15.8L52.883,4.154A1.916,1.916,0,0,1,52.218,3.143Z" fill="url(#Dégradé_sans_nom_13)"/><path d="M71.777,8.333c-.45,1.263-.882,2.4-1.35,3.564l-.933,2.3c-.243.588-.5,1.176-.761,1.8a.865.865,0,0,1-.848.536H66.38c-.311,0-.675-.19-.5-.605l4.671-10.9a1.34,1.34,0,0,1,1.228-.814h.014A1.091,1.091,0,0,1,72.755,5.7Z" fill="url(#Dégradé_sans_nom_13-2)"/><circle cx="59.954" cy="1.767" r="1.767" fill="url(#Dégradé_sans_nom_13-3)"/><path d="M73.121,1.231a1.059,1.059,0,0,0-.624-.209.654.654,0,0,0-.676.677.685.685,0,0,0,.191.493.64.64,0,0,0,.485.2h.936a.5.5,0,0,1,.416.174.561.561,0,0,1,.138.346.57.57,0,0,1-.138.373.515.515,0,0,1-.416.165H70.695a.5.5,0,0,1-.389-.165.541.541,0,0,1-.147-.373.531.531,0,0,1,.147-.346.483.483,0,0,1,.389-.174h.294a.85.85,0,0,1-.19-.4,2.17,2.17,0,0,1-.034-.345A1.553,1.553,0,0,1,71.259.468,1.709,1.709,0,0,1,72.48,0a1.954,1.954,0,0,1,.675.121,1.585,1.585,0,0,1,.572.364A.514.514,0,0,1,73.9.849a.43.43,0,0,1-.157.364.551.551,0,0,1-.347.121A.413.413,0,0,1,73.121,1.231Z" fill="url(#Dégradé_sans_nom_13-4)"/></g></g></svg>