<svg xmlns="http://www.w3.org/2000/svg" xmlns:xlink="http://www.w3.org/1999/xlink" viewBox="0 0 55.812 25.947"><defs><linearGradient id="Dégradé_sans_nom_3" x1="33.542" y1="13.343" x2="33.542" y2="4.957" gradientUnits="userSpaceOnUse"><stop offset="0" stop-color="#9a101c"/><stop offset="1" stop-color="#e40022"/></linearGradient><linearGradient id="Dégradé_sans_nom_2" x1="40.003" y1="3.454" x2="40.003" y2="11.579" gradientUnits="userSpaceOnUse"><stop offset="0" stop-color="#e40022"/><stop offset="1" stop-color="#9a101c"/></linearGradient><linearGradient id="Dégradé_sans_nom_3-2" x1="51.66" y1="13.343" x2="51.66" y2="4.957" xlink:href="#Dégradé_sans_nom_3"/><linearGradient id="Dégradé_sans_nom_3-3" x1="32.756" y1="23.142" x2="32.756" y2="14.756" xlink:href="#Dégradé_sans_nom_3"/><linearGradient id="Dégradé_sans_nom_3-4" x1="39.667" y1="23.142" x2="39.667" y2="14.756" xlink:href="#Dégradé_sans_nom_3"/><linearGradient id="Dégradé_sans_nom_3-5" x1="44.853" y1="23.142" x2="44.853" y2="14.756" xlink:href="#Dégradé_sans_nom_3"/><linearGradient id="Dégradé_sans_nom_3-6" x1="50.822" y1="23.142" x2="50.822" y2="14.756" xlink:href="#Dégradé_sans_nom_3"/><linearGradient id="Dégradé_sans_nom_3-7" x1="12.92" y1="-5.198" x2="12.92" y2="40.023" xlink:href="#Dégradé_sans_nom_3"/></defs><g id="Calque_2" data-name="Calque 2"><g id="Design"><path d="M37.664,11.794,34.408,4.169a.934.934,0,0,0-1.719,0l-3.267,7.625c-.122.29.133.424.35.424h1.053a.606.606,0,0,0,.593-.375c.181-.436.363-.847.533-1.26h3.183c.181.448.363.86.533,1.26a.587.587,0,0,0,.544.375h1.1C37.531,12.218,37.784,12.084,37.664,11.794ZM32.6,8.974c.326-.811.63-1.61.945-2.493.3.848.628,1.694.943,2.493Z" fill="url(#Dégradé_sans_nom_3)"/><path d="M39.223,4.7l5.179,7.1a.843.843,0,0,0,.727.424h.787a.375.375,0,0,0,.387-.388l-.012-7.476a.982.982,0,0,0-.98-.968.972.972,0,0,0-.969.968l.037,4.414L39.235,1.794a1.144,1.144,0,0,0-.932-.569.956.956,0,0,0-.247.033.858.858,0,0,0-.436,1.35Z"/><path d="M39.028,5.543v6.263a.383.383,0,0,0,.413.412h1.137a.379.379,0,0,0,.4-.412l-.041-3.824Z" fill="url(#Dégradé_sans_nom_2)"/><path d="M55.78,11.794,52.93,5.118,52.13,7.1v0c.236.638.48,1.268.718,1.871H51.659l-.628,1.078a.353.353,0,0,0,.3.531h1.915c.182.448.364.86.532,1.26a.59.59,0,0,0,.546.375h1.1C55.647,12.218,55.9,12.084,55.78,11.794ZM52.618,4.419a.69.69,0,0,0-.009-.517h0a.934.934,0,0,0-1.719,0l-3.352,7.892c-.12.29.133.424.352.424h1.052a.605.605,0,0,0,.593-.375c.182-.436.364-.847.533-1.26,0,0,.4-.835.757-1.609C51.019,8.555,52.254,5.36,52.618,4.419Z" fill="url(#Dégradé_sans_nom_3-2)"/><path d="M34.82,15.481a.91.91,0,1,0,0-1.816H30.68a.892.892,0,0,0-.956.945v7a.381.381,0,0,0,.411.412h1.138a.378.378,0,0,0,.4-.412V18.931h2.6a.91.91,0,1,0,0-1.816h-2.6V15.481Z" fill="url(#Dégradé_sans_nom_3-3)"/><path d="M41.616,20.262H38.711V14.513a.981.981,0,0,0-.98-.968.971.971,0,0,0-.969.968v6.766a.752.752,0,0,0,.812.738h4.042a.881.881,0,1,0,0-1.755Z" fill="url(#Dégradé_sans_nom_3-4)"/><path d="M44.847,13.545a.97.97,0,0,0-.968.968v7.092a.381.381,0,0,0,.411.412h1.138a.378.378,0,0,0,.4-.412V14.513A.981.981,0,0,0,44.847,13.545Z" fill="url(#Dégradé_sans_nom_3-5)"/><path d="M54.157,20.48l-2.082-2.747,1.912-2.53a1.077,1.077,0,0,0,.243-.69.966.966,0,0,0-.981-.968.991.991,0,0,0-.811.411l-1.609,2.13-1.623-2.13a.988.988,0,0,0-.81-.411.967.967,0,0,0-.981.968,1.071,1.071,0,0,0,.243.69l1.912,2.53L47.488,20.48a1.07,1.07,0,0,0-.242.689.967.967,0,0,0,.981.969,1,1,0,0,0,.811-.411l1.791-2.349,1.778,2.349a1,1,0,0,0,.812.411.967.967,0,0,0,.98-.969A1.075,1.075,0,0,0,54.157,20.48Z" fill="url(#Dégradé_sans_nom_3-6)"/><circle cx="42.779" cy="2.852" r="1.195"/><path d="M52.669.964A.831.831,0,0,0,52.181.8a.51.51,0,0,0-.53.529.54.54,0,0,0,.149.387.506.506,0,0,0,.381.156h.733a.393.393,0,0,1,.325.136.418.418,0,0,1,0,.563.4.4,0,0,1-.325.13H50.769a.388.388,0,0,1-.306-.13.4.4,0,0,1,0-.563.384.384,0,0,1,.306-.136H51a.662.662,0,0,1-.149-.312,1.708,1.708,0,0,1-.027-.271A1.221,1.221,0,0,1,51.21.366,1.339,1.339,0,0,1,52.167,0,1.526,1.526,0,0,1,52.7.1a1.209,1.209,0,0,1,.448.285.4.4,0,0,1,.136.285.339.339,0,0,1-.122.285.427.427,0,0,1-.271.095A.328.328,0,0,1,52.669.964Z"/><circle cx="12.92" cy="13.028" r="12.92" fill="url(#Dégradé_sans_nom_3-7)"/><path d="M6.208,12.791v7.884a.7.7,0,0,0,.7.7H19a.7.7,0,0,0,.7-.7V12.791ZM12.2,17.384l-2.664,1.5a.416.416,0,0,1-.621-.364v-2.88a.416.416,0,0,1,.621-.362l2.664,1.5A.346.346,0,0,1,12.2,17.384Zm2.5,1.268a.3.3,0,0,1-.3.3h-.605a.3.3,0,0,1-.3-.3V15.4a.3.3,0,0,1,.3-.3H14.4a.3.3,0,0,1,.3.3Zm2.139,0a.3.3,0,0,1-.3.3h-.6a.3.3,0,0,1-.3-.3V15.4a.3.3,0,0,1,.3-.3h.6a.3.3,0,0,1,.3.3Z" fill="#fff"/><path d="M19.984,10.4H5.869a.149.149,0,0,0-.15.148v1.926a.15.15,0,0,0,.15.15H19.984a.15.15,0,0,0,.149-.15V10.545A.149.149,0,0,0,19.984,10.4ZM19.9,12.383H7.152a1.2,1.2,0,0,1-1.2-1.2v-.553H19.9Z" fill="#fff"/><path d="M20.133,10.545v.365l-.238.256L18.76,12.383l-.222.238H16.459l.207-.238,1.525-1.749L18.4,10.4h1.586A.149.149,0,0,1,20.133,10.545Z" fill="#fff"/><polygon points="16.693 10.397 16.471 10.634 14.84 12.383 14.618 12.621 12.539 12.621 12.745 12.383 14.27 10.634 14.477 10.397 16.693 10.397" fill="#fff"/><polygon points="12.862 10.397 12.64 10.634 11.01 12.383 10.788 12.621 8.709 12.621 8.915 12.383 10.441 10.634 10.647 10.397 12.862 10.397" fill="#fff"/><path d="M9.8,11.081,7.222,8.451A.6.6,0,0,0,6.2,8.9l.144,2.585a.476.476,0,0,0,.475.45H9.444A.5.5,0,0,0,9.8,11.081ZM6.54,8.993a.3.3,0,1,1,.3.3A.3.3,0,0,1,6.54,8.993Zm.522,2.6a.3.3,0,1,1,.3-.3A.3.3,0,0,1,7.062,11.592Zm2.147.095a.3.3,0,1,1,.3-.3A.3.3,0,0,1,9.209,11.687Z" fill="#fff"/><path d="M18.978,4.835c-.061.09-.123.185-.187.281-.554.841-1.216,1.844-1.529,2.322-.1.158-.167.258-.178.276l0,0-1.974.4.149-.273h0l1.213-2.23.149-.274Z" fill="#fff"/><polygon points="15.007 5.682 14.982 5.749 14.858 5.957 13.519 8.193 13.354 8.47 11.294 8.885 11.445 8.612 11.446 8.612 12.665 6.426 12.666 6.426 12.819 6.151 15.007 5.682" fill="#fff"/><polygon points="11.173 6.502 11.006 6.781 9.7 8.964 9.535 9.24 7.548 9.641 7.734 9.361 7.735 9.361 9.2 7.166 9.201 7.166 9.389 6.883 9.39 6.883 11.173 6.502" fill="#fff"/><path d="M20.368,6.9l-.313-1.5-.129-.611a.15.15,0,0,0-.177-.116l-.771.166-2.358.5-1.613.344-2.188.469L11.173,6.5,9.39,6.883h0l-3.5.749a.147.147,0,0,0-.113.178l.451,1.951a.149.149,0,0,0,.175.111l1.148-.231h0l1.987-.4,1.758-.355h0l2.06-.415,1.754-.355,1.974-.4,1.979-.4,1.192-.24A.149.149,0,0,0,20.368,6.9Zm-.4-.01-.769.156-1.939.391-2,.4h0l-1.738.351-2.073.419h0L9.7,8.964l-1.965.4h0l-1.155.233A.149.149,0,0,1,6.4,9.482L6.128,8.29l.463-.566L9.2,7.166h0l1.8-.385,1.659-.355h0l2.192-.469,1.613-.345,2.32-.5.775-.165a.15.15,0,0,1,.176.115l.139.665.206.984A.149.149,0,0,1,19.97,6.891Z" fill="#fff"/><path d="M20.253,7.078l-1.192.24.14-.271.68-1.316.174-.335L20.368,6.9A.149.149,0,0,1,20.253,7.078Z" fill="#fff"/></g></g></svg>