<svg xmlns="http://www.w3.org/2000/svg" viewBox="0 0 27.221 24.287"><g id="Calque_2" data-name="Calque 2"><g id="Design"><path d="M0,5.206c.045-.224.084-.449.135-.672A5.716,5.716,0,0,1,5.765.017q7.839-.034,15.678,0a5.711,5.711,0,0,1,5.7,4.821,5.8,5.8,0,0,1,.076,1q.009,3.6,0,7.2A5.745,5.745,0,0,1,22.338,18.8a6.565,6.565,0,0,1-1.059.068c-2.887.006-5.775,0-8.663.009a.888.888,0,0,0-.443.124c-2.785,1.72-5.565,3.451-8.353,5.168a.857.857,0,0,1-.538.115c-.248-.039-.342-.3-.267-.6q.525-2.1,1.055-4.193c.066-.264.13-.529.2-.811-.159-.052-.3-.091-.441-.146A5.705,5.705,0,0,1,.048,13.836,1.6,1.6,0,0,0,0,13.659ZM4.174,22.858c.141-.083.225-.129.307-.18q3.666-2.275,7.335-4.545a1.3,1.3,0,0,1,.643-.183c2.932-.012,5.864,0,8.8-.013a5.834,5.834,0,0,0,1.239-.116,4.8,4.8,0,0,0,3.8-4.774c.012-2.41,0-4.819,0-7.229a4.669,4.669,0,0,0-.062-.793,4.8,4.8,0,0,0-4.86-4.08q-7.759-.006-15.52,0A5.17,5.17,0,0,0,4.8,1.041a4.8,4.8,0,0,0-3.876,4.8c-.009,2.409,0,4.819,0,7.229a4.676,4.676,0,0,0,.061.793,4.8,4.8,0,0,0,3.858,4,.474.474,0,0,1,.422.669c-.132.532-.267,1.063-.4,1.595C4.639,21.008,4.415,21.9,4.174,22.858Z"/><path d="M13.582,11.148l1.193-2.969c.178-.444.354-.887.534-1.33a.738.738,0,0,1,.966-.471c.312.058.473.3.473.725,0,1.514,0,3.029,0,4.544a.483.483,0,0,1-.235.495c-.3.156-.616-.067-.618-.443,0-.983,0-1.966,0-2.95V7.776l-.066-.025A2.28,2.28,0,0,0,15.694,8q-.753,1.855-1.5,3.714a.64.64,0,0,1-.577.472.621.621,0,0,1-.652-.477q-.749-1.843-1.493-3.688c-.037-.091-.083-.178-.124-.267l-.069.016c-.005.091-.013.182-.013.273q0,1.767,0,3.534a1.119,1.119,0,0,1-.021.29.4.4,0,0,1-.457.315.377.377,0,0,1-.369-.382c-.014-.2-.006-.407-.006-.611q0-2.046,0-4.092c0-.412.15-.672.453-.709.472-.058.781-.051.98.446q.8,2.008,1.608,4.014C13.486,10.934,13.526,11.02,13.582,11.148Z"/><path d="M7.207,12.228a4.791,4.791,0,0,1-1.762-.342C5.127,11.76,5,11.545,5.1,11.3s.315-.294.629-.17a3.633,3.633,0,0,0,1.978.242,1.718,1.718,0,0,0,.474-.158.666.666,0,0,0,.369-.656.547.547,0,0,0-.4-.514c-.321-.123-.654-.214-.981-.32C6.8,9.6,6.407,9.5,6.043,9.344A1.343,1.343,0,0,1,5.131,8.09a1.488,1.488,0,0,1,.8-1.428,2.9,2.9,0,0,1,.976-.311,4.107,4.107,0,0,1,1.959.233.388.388,0,0,1,.273.522.375.375,0,0,1-.518.224,3.485,3.485,0,0,0-1.752-.157,1.682,1.682,0,0,0-.541.2.655.655,0,0,0,.061,1.19,10.776,10.776,0,0,0,1.134.363A7.082,7.082,0,0,1,8.594,9.3a1.446,1.446,0,0,1,.129,2.527A2.533,2.533,0,0,1,7.207,12.228Z"/><path d="M19.981,12.288a6.268,6.268,0,0,1-1.824-.421c-.285-.119-.395-.324-.3-.556s.3-.313.6-.2a3.631,3.631,0,0,0,2,.257,1.524,1.524,0,0,0,.52-.18.628.628,0,0,0-.05-1.141,9.054,9.054,0,0,0-.979-.325c-.377-.123-.765-.223-1.129-.376a1.352,1.352,0,0,1-.93-1.269,1.508,1.508,0,0,1,.83-1.438,2.786,2.786,0,0,1,.875-.282,4.123,4.123,0,0,1,2.036.224.388.388,0,0,1,.27.523.378.378,0,0,1-.52.221,3.371,3.371,0,0,0-1.75-.154,1.639,1.639,0,0,0-.644.283.631.631,0,0,0,.091,1.068,4.288,4.288,0,0,0,.792.293c.421.132.856.223,1.269.377a1.4,1.4,0,0,1,1.018,1.4,1.451,1.451,0,0,1-1.019,1.412A8.965,8.965,0,0,1,19.981,12.288Z"/></g></g></svg>