<?xml version="1.0" encoding="utf-8"?>
<!-- Generator: Adobe Illustrator 16.0.0, SVG Export Plug-In . SVG Version: 6.00 Build 0)  -->
<!DOCTYPE svg PUBLIC "-//W3C//DTD SVG 1.1//EN" "http://www.w3.org/Graphics/SVG/1.1/DTD/svg11.dtd">
<svg version="1.1" id="Calque_1" xmlns="http://www.w3.org/2000/svg" xmlns:xlink="http://www.w3.org/1999/xlink" x="0px" y="0px"
	 width="21.25px" height="19px" viewBox="0 0 21.25 19" enable-background="new 0 0 21.25 19" xml:space="preserve">
<g>
	<g>
		<g>
			<defs>
				<path id="SVGID_1_" d="M1.125,9.5c0,5.246,4.253,9.5,9.5,9.5c5.246,0,9.5-4.254,9.5-9.5c0-5.247-4.255-9.5-9.5-9.5
					C5.378,0,1.125,4.253,1.125,9.5"/>
			</defs>
			<clipPath id="SVGID_2_">
				<use xlink:href="#SVGID_1_"  overflow="visible"/>
			</clipPath>
			
				<linearGradient id="SVGID_3_" gradientUnits="userSpaceOnUse" x1="-1539.5264" y1="118.2637" x2="-1539.2725" y2="118.2637" gradientTransform="matrix(0 -74.8353 -74.8353 0 8860.9277 -115191.8438)">
				<stop  offset="0" style="stop-color:#E30613"/>
				<stop  offset="0.1446" style="stop-color:#E30613"/>
				<stop  offset="0.2757" style="stop-color:#DB0813"/>
				<stop  offset="0.4738" style="stop-color:#C70D14"/>
				<stop  offset="0.7133" style="stop-color:#A51615"/>
				<stop  offset="0.7805" style="stop-color:#9A1915"/>
				<stop  offset="1" style="stop-color:#9A1915"/>
			</linearGradient>
			<rect x="1.125" clip-path="url(#SVGID_2_)" fill="url(#SVGID_3_)" width="19" height="19"/>
		</g>
	</g>
</g>
<g>
	<path fill="#FFFFFF" d="M5.299,7.391L5.33,7.385l0.083-0.429L5.33,6.564L5.837,5.78L7.36,5.453L6.722,6.441l0.38,0.563l0.653-0.139
		l1.524-0.327l1.516-0.326l1.523-0.328l1.519-0.325l1.522-0.327l0.985-0.212l-0.212-0.984l-0.139-0.645L15.116,3.58l-1.518,0.326
		l-1.525,0.327l-1.517,0.326L9.034,4.886L7.517,5.211L5.994,5.539L4.95,5.762l0.224,1.044L5.299,7.391z M14.958,3.821l0.881-0.188
		l0.138,0.644l-0.461,0.713l-1.524,0.327L14.958,3.821z M11.919,4.476l1.522-0.327l-0.967,1.495L10.951,5.97L11.919,4.476z
		 M8.877,5.127L10.4,4.8L9.434,6.295L7.91,6.623L8.877,5.127z"/>
	<path fill="#FFFFFF" d="M15.048,7.723h-1.559h-1.551h-1.558H8.828H7.823l0.203,0.203h0.598L8.285,8.265
		c0.022,0.062,0.036,0.129,0.036,0.197c0,0.329-0.262,0.591-0.585,0.591H7.496L7.365,9.185H5.807l0.131-0.132H5.812
		c-0.323,0-0.586-0.262-0.586-0.585V8.216L5.11,8.331V7.926h0.116V7.723h-0.32v0.812v0.854h0.698h1.558h1.552h1.559h1.55h1.559
		h1.552h1.27V8.119V7.723H15.048z M10.475,9.186H8.917l1.259-1.259h1.56L10.475,9.186z M13.585,9.186h-1.558l1.258-1.259h1.559
		L13.585,9.186z M16,9.186h-0.864L16,8.321V9.186z"/>
	<path fill="#FFFFFF" d="M5.827,6.172H5.812c-0.212,0-0.383,0.172-0.383,0.383v1.914c0,0.211,0.17,0.382,0.383,0.382h1.924
		c0.211,0,0.382-0.171,0.382-0.382V8.463c0-0.102-0.04-0.198-0.112-0.27L6.098,6.285C6.026,6.213,5.928,6.172,5.827,6.172
		 M5.841,8.709c-0.163,0-0.293-0.131-0.293-0.293c0-0.162,0.131-0.293,0.293-0.293c0.162,0,0.292,0.131,0.292,0.293
		C6.133,8.578,6.002,8.709,5.841,8.709 M7.653,8.123c0.163,0,0.293,0.131,0.293,0.293c0,0.162-0.131,0.293-0.293,0.293
		c-0.161,0-0.293-0.131-0.293-0.293C7.36,8.254,7.492,8.123,7.653,8.123 M5.841,6.901c-0.163,0-0.293-0.131-0.293-0.293
		c0-0.162,0.131-0.292,0.293-0.292c0.162,0,0.292,0.131,0.292,0.292C6.133,6.771,6.002,6.901,5.841,6.901"/>
	<path fill="#FFFFFF" d="M5.226,9.587v6.156c0,0.22,0.178,0.399,0.399,0.399h9.859c0.221,0,0.4-0.179,0.4-0.399V9.587H5.226z
		 M10.152,13.12l-2.245,1.303c-0.212,0.124-0.478-0.03-0.478-0.272v-2.57c0-0.242,0.262-0.395,0.474-0.277l2.245,1.268
		C10.362,12.69,10.365,12.996,10.152,13.12 M12.014,14.09c0,0.152-0.125,0.278-0.277,0.278h-0.521c-0.152,0-0.278-0.126-0.278-0.278
		v-2.477c0-0.152,0.126-0.277,0.278-0.277h0.521c0.152,0,0.277,0.125,0.277,0.277V14.09z M13.68,14.09
		c0,0.152-0.124,0.278-0.277,0.278H12.88c-0.151,0-0.278-0.126-0.278-0.278v-2.477c0-0.152,0.127-0.277,0.278-0.277h0.522
		c0.153,0,0.277,0.125,0.277,0.277V14.09z"/>
</g>
</svg>
