<?xml version="1.0" encoding="utf-8"?>
<!-- Generator: Adobe Illustrator 25.0.1, SVG Export Plug-In . SVG Version: 6.00 Build 0)  -->
<svg version="1.1" id="Layer_1" xmlns="http://www.w3.org/2000/svg" xmlns:xlink="http://www.w3.org/1999/xlink" x="0px" y="0px"
	 viewBox="0 0 124.7 124.7" style="enable-background:new 0 0 124.7 124.7;" xml:space="preserve">
<style type="text/css">
	.st0{fill:#ED1C24;}
	.st1{fill:#FFFFFF;}
</style>
<g id="Calque_2">
	<g id="Calque_1-2">
		<circle class="st0" cx="62.4" cy="62.4" r="45.3"/>
		<path class="st1" d="M42.9,84.9l-3.4-8c-0.2-0.5-0.8-0.7-1.3-0.5c-0.2,0.1-0.4,0.3-0.5,0.5l-3.4,8c-0.1,0.3,0.1,0.4,0.4,0.4h1.1
			c0.3,0,0.5-0.1,0.6-0.4c0.2-0.5,0.4-0.9,0.6-1.3h3.3c0.2,0.5,0.4,0.9,0.6,1.3c0.1,0.2,0.3,0.4,0.6,0.4h1.1
			C42.8,85.3,43.1,85.2,42.9,84.9z M37.7,81.9c0.3-0.8,0.7-1.7,1-2.6c0.3,0.9,0.7,1.8,1,2.6H37.7z"/>
		<path class="st1" d="M44.6,77.5l5.4,7.4c0.2,0.3,0.4,0.4,0.8,0.4h0.8c0.2,0,0.4-0.2,0.4-0.4c0,0,0,0,0,0l0-7.8c0-0.6-0.5-1-1-1
			c-0.6,0-1,0.5-1,1l0,4.6l-5.4-7.3c-0.2-0.4-0.6-0.6-1-0.6c-0.1,0-0.2,0-0.3,0c-0.5,0.1-0.7,0.6-0.6,1.1c0,0.1,0.1,0.2,0.2,0.3
			L44.6,77.5z"/>
		<path class="st1" d="M44.4,78.3v6.5c0,0.2,0.1,0.4,0.4,0.4c0,0,0,0,0.1,0H46c0.2,0,0.4-0.2,0.4-0.4c0,0,0,0,0-0.1l0-4L44.4,78.3z"
			/>
		<path class="st1" d="M61.9,84.9l-3-7L58.1,80l0,0c0.2,0.7,0.5,1.3,0.7,2h-1.2L56.9,83c-0.1,0.2,0,0.4,0.1,0.5c0.1,0,0.1,0,0.2,0.1
			h2c0.2,0.5,0.4,0.9,0.6,1.3c0.1,0.2,0.3,0.4,0.6,0.4h1.1C61.7,85.3,62,85.2,61.9,84.9z M58.6,77.2c0.1-0.2,0.1-0.4,0-0.5l0,0
			C58.4,76.3,58,76,57.7,76c-0.4,0-0.7,0.2-0.9,0.6l-3.5,8.2c-0.1,0.3,0.1,0.4,0.4,0.4h1.1c0.3,0,0.5-0.1,0.6-0.4
			c0.2-0.5,0.4-0.9,0.6-1.3c0,0,0.4-0.9,0.8-1.7C56.9,81.5,58.2,78.1,58.6,77.2z"/>
		<path class="st1" d="M71.1,78.5c0.5,0,1-0.4,1-0.9c0-0.5-0.4-1-0.9-1c0,0-0.1,0-0.1,0h-4.3c-0.5,0-1,0.3-1,0.9c0,0,0,0.1,0,0.1
			v7.3c0,0.2,0.1,0.4,0.4,0.4c0,0,0,0,0.1,0h1.2c0.2,0,0.4-0.2,0.4-0.4c0,0,0,0,0-0.1v-2.8h2.7c0.5,0,1-0.4,1-0.9s-0.4-1-0.9-1
			c0,0-0.1,0-0.1,0h-2.7v-1.7H71.1z"/>
		<path class="st1" d="M78.2,83.5h-3v-6c0-0.6-0.5-1-1-1c-0.6,0-1,0.5-1,1v7.1c0,0.4,0.4,0.8,0.8,0.8c0,0,0,0,0,0h4.2
			c0.5,0,1-0.4,1-0.9c0,0,0,0,0,0C79.2,83.9,78.8,83.5,78.2,83.5C78.3,83.5,78.3,83.5,78.2,83.5z"/>
		<path class="st1" d="M81.6,76.5c-0.6,0-1,0.5-1,1v7.4c0,0.2,0.1,0.4,0.4,0.4c0,0,0,0,0.1,0h1.2c0.2,0,0.4-0.2,0.4-0.4
			c0,0,0,0,0-0.1v-7.4C82.6,76.9,82.2,76.5,81.6,76.5z"/>
		<path class="st1" d="M91.3,83.7l-2.2-2.9l2-2.6c0.2-0.2,0.3-0.5,0.3-0.7c0-0.6-0.4-1-1-1c0,0,0,0,0,0c-0.3,0-0.7,0.2-0.8,0.4
			l-1.7,2.2l-1.7-2.2c-0.2-0.3-0.5-0.4-0.8-0.4c-0.6,0-1,0.4-1,1c0,0,0,0,0,0c0,0.3,0.1,0.5,0.3,0.7l2,2.6l-2.2,2.9
			c-0.2,0.2-0.3,0.5-0.3,0.7c0,0.6,0.4,1,1,1c0,0,0,0,0,0c0.3,0,0.7-0.2,0.8-0.4l1.9-2.5l1.9,2.4c0.2,0.3,0.5,0.4,0.8,0.4
			c0.6,0,1-0.4,1-1c0,0,0,0,0,0C91.6,84.2,91.5,83.9,91.3,83.7z"/>
		<circle class="st1" cx="48.3" cy="75.5" r="1.2"/>
		<path class="st1" d="M58.6,73.6c-0.1-0.1-0.3-0.2-0.5-0.2c-0.3,0-0.5,0.2-0.6,0.5c0,0,0,0,0,0c0,0.2,0.1,0.3,0.2,0.4
			c0.1,0.1,0.2,0.2,0.4,0.2h0.8c0.1,0,0.3,0,0.3,0.1c0.1,0.1,0.1,0.2,0.1,0.3c0,0.1,0,0.2-0.1,0.3c-0.1,0.1-0.2,0.1-0.3,0.1h-2.2
			c-0.1,0-0.2,0-0.3-0.1c-0.1-0.1-0.1-0.2-0.1-0.3c0-0.1,0-0.2,0.1-0.3c0.1-0.1,0.2-0.1,0.3-0.1h0.2c-0.1-0.1-0.1-0.2-0.2-0.3
			c0-0.1,0-0.2,0-0.3c0-0.4,0.1-0.7,0.4-1c0.3-0.3,0.6-0.4,1-0.4c0.2,0,0.4,0,0.6,0.1c0.2,0.1,0.3,0.2,0.5,0.3
			c0.1,0.1,0.1,0.2,0.1,0.3c0,0.1,0,0.2-0.1,0.3c-0.1,0.1-0.2,0.1-0.3,0.1C58.8,73.6,58.7,73.6,58.6,73.6z"/>
		<circle class="st1" cx="62.8" cy="53.7" r="13.5"/>
		<path class="st1" d="M49.9,69c-0.5,0-0.9-0.2-1.3-0.5c-4.1-3.9-6.3-9.2-6.3-14.8c0-5.8,2.5-11.4,6.8-15.2c0.7-0.7,1.9-0.6,2.6,0.1
			c0.7,0.7,0.6,1.9-0.1,2.6l0,0C48,44.3,46,48.9,46,53.7c0,4.6,1.9,9,5.2,12.2c0.7,0.7,0.8,1.8,0.1,2.6C50.9,68.8,50.4,69,49.9,69
			L49.9,69z"/>
		<path class="st1" d="M75.5,69.1c-1,0-1.8-0.8-1.8-1.8c0-0.5,0.2-1,0.6-1.3c6.8-6.4,7.2-17,0.8-23.8c-0.3-0.3-0.5-0.5-0.8-0.8
			c-0.7-0.7-0.8-1.8-0.1-2.6c0.7-0.7,1.8-0.8,2.6-0.1c0,0,0,0,0,0c8.3,7.7,8.7,20.7,1,28.9c-0.3,0.3-0.6,0.7-1,1
			C76.4,68.9,76,69.1,75.5,69.1z"/>
		<path class="st1" d="M38,61.1c-0.8,0-1.6-0.6-1.8-1.4c-0.9-4.1-0.9-8.4,0.1-12.5c0.2-1,1.2-1.6,2.2-1.3c1,0.2,1.6,1.2,1.3,2.2
			c0,0,0,0,0,0c-0.9,3.6-0.9,7.3-0.1,10.8c0.2,1-0.4,1.9-1.4,2.2c0,0,0,0,0,0C38.3,61.1,38.1,61.1,38,61.1z"/>
		<path class="st1" d="M87.6,61.1c-0.1,0-0.3,0-0.4,0c-1-0.2-1.6-1.2-1.4-2.2c0,0,0,0,0,0c0.8-3.6,0.8-7.3-0.1-10.9
			c-0.2-1,0.4-2,1.3-2.2c1-0.2,2,0.4,2.2,1.3l0,0c1,4.1,1,8.4,0.1,12.5C89.2,60.5,88.4,61.1,87.6,61.1z"/>
		<path class="st0" d="M55.8,53.4v8.2c0,0.4,0.3,0.7,0.7,0.7h12.6c0.4,0,0.7-0.3,0.7-0.7v-8.2H55.8z M62,58.2l-2.8,1.6
			c-0.2,0.1-0.5,0-0.6-0.2c0-0.1-0.1-0.1-0.1-0.2v-3c0-0.2,0.2-0.4,0.4-0.4c0.1,0,0.1,0,0.2,0.1l2.8,1.6c0.2,0.1,0.2,0.3,0.1,0.5
			C62.1,58.1,62.1,58.2,62,58.2L62,58.2z M64.7,59.5c0,0.2-0.1,0.3-0.3,0.3c0,0,0,0,0,0h-0.6c-0.2,0-0.3-0.1-0.3-0.3c0,0,0,0,0,0
			v-3.4c0-0.2,0.1-0.3,0.3-0.3h0.6c0.2,0,0.3,0.1,0.3,0.3l0,0V59.5z M66.9,59.5c0,0.2-0.1,0.3-0.3,0.3c0,0,0,0,0,0h-0.6
			c-0.2,0-0.3-0.1-0.3-0.3v-3.4c0-0.2,0.1-0.3,0.3-0.3h0.6c0.2,0,0.3,0.1,0.3,0.3l0,0V59.5z"/>
		<path class="st0" d="M70.2,50.9H55.4c-0.1,0-0.2,0.1-0.2,0.2c0,0,0,0,0,0v2c0,0.1,0.1,0.2,0.2,0.2c0,0,0,0,0,0h14.7
			c0.1,0,0.2-0.1,0.2-0.2c0,0,0,0,0,0v-2C70.3,51,70.3,50.9,70.2,50.9z M70.1,53H56.8c-0.7,0-1.2-0.6-1.2-1.2v-0.6h14.6L70.1,53z"/>
		<path class="st0" d="M70.3,51.1v0.4l-0.2,0.3L68.9,53l-0.2,0.2h-2.2l0.2-0.2l1.6-1.8l0.2-0.2h1.7C70.3,50.9,70.3,51,70.3,51.1
			C70.3,51.1,70.3,51.1,70.3,51.1z"/>
		<polygon class="st0" points="66.7,50.9 66.5,51.2 64.8,53 64.6,53.2 62.4,53.2 62.6,53 64.2,51.2 64.4,50.9 		"/>
		<polygon class="st0" points="62.7,50.9 62.5,51.2 60.8,53 60.6,53.2 58.4,53.2 58.6,53 60.2,51.2 60.4,50.9 		"/>
		<path class="st0" d="M59.5,51.6l-2.7-2.7c-0.2-0.2-0.6-0.2-0.9,0c-0.1,0.1-0.2,0.3-0.2,0.5l0.2,2.7c0,0.3,0.2,0.5,0.5,0.5h2.7
			c0.3,0,0.5-0.2,0.5-0.5C59.7,51.9,59.6,51.7,59.5,51.6z M56.1,49.5c0-0.2,0.1-0.3,0.3-0.3s0.3,0.1,0.3,0.3c0,0.2-0.1,0.3-0.3,0.3
			C56.3,49.8,56.1,49.6,56.1,49.5z M56.7,52.2c-0.2,0-0.3-0.1-0.3-0.3c0-0.2,0.1-0.3,0.3-0.3c0.2,0,0.3,0.1,0.3,0.3c0,0,0,0,0,0
			C57,52,56.9,52.2,56.7,52.2C56.7,52.2,56.7,52.2,56.7,52.2z M58.9,52.3c-0.2,0-0.3-0.1-0.3-0.3c0-0.2,0.1-0.3,0.3-0.3
			c0.2,0,0.3,0.1,0.3,0.3c0,0,0,0,0,0C59.2,52.1,59.1,52.3,58.9,52.3z"/>
		<path class="st0" d="M69.1,45.1c-0.1,0.1-0.1,0.2-0.2,0.3c-0.6,0.9-1.3,1.9-1.6,2.4c-0.1,0.2-0.2,0.3-0.2,0.3l0,0l-2.1,0.4
			l0.2-0.3l0,0l1.3-2.3l0.2-0.3L69.1,45.1z"/>
		<polygon class="st0" points="65,46 64.9,46.1 64.8,46.3 63.4,48.6 63.2,48.9 61.1,49.3 61.3,49.1 61.3,49.1 62.5,46.8 62.5,46.8 
			62.7,46.5 		"/>
		<polygon class="st0" points="61,46.9 60.8,47.2 59.4,49.4 59.3,49.7 57.2,50.1 57.4,49.8 57.4,49.8 58.9,47.6 58.9,47.6 
			59.1,47.3 59.1,47.3 		"/>
		<path class="st0" d="M70.6,47.3l-0.3-1.6l-0.1-0.6c0-0.1-0.1-0.1-0.2-0.1l-0.8,0.2l-2.5,0.5L65,46l-2.3,0.5L61,46.9l-1.9,0.4l0,0
			L55.4,48c-0.1,0-0.1,0.1-0.1,0.2c0,0,0,0,0,0l0.5,2c0,0.1,0.1,0.1,0.2,0.1l1.2-0.2l0,0l2.1-0.4l1.8-0.4l0,0l2.2-0.4l1.8-0.4
			l2.1-0.4l2.1-0.4l1.2-0.3C70.5,47.4,70.6,47.4,70.6,47.3z M70.2,47.3l-0.8,0.2l-2,0.4l-2.1,0.4l0,0l-1.8,0.4l-2.2,0.4l0,0
			l-1.8,0.4l-2.1,0.4l0,0l-1.2,0.2c-0.1,0-0.2,0-0.2-0.1l-0.3-1.2l0.5-0.6l2.7-0.6l0,0l1.9-0.4l1.7-0.4l0,0l2.3-0.5l1.7-0.4l2.4-0.5
			l0.8-0.2c0.1,0,0.2,0,0.2,0.1l0.1,0.7l0.2,1C70.3,47.2,70.2,47.2,70.2,47.3C70.2,47.3,70.2,47.3,70.2,47.3L70.2,47.3z"/>
		<path class="st0" d="M70.5,47.5l-1.2,0.3l0.1-0.3l0.7-1.4l0.2-0.3l0.3,1.6C70.6,47.4,70.5,47.4,70.5,47.5z"/>
	</g>
</g>
</svg>
