<?xml version="1.0" encoding="utf-8"?>
<!-- Generator: Adobe Illustrator 16.0.0, SVG Export Plug-In . SVG Version: 6.00 Build 0)  -->
<!DOCTYPE svg PUBLIC "-//W3C//DTD SVG 1.1//EN" "http://www.w3.org/Graphics/SVG/1.1/DTD/svg11.dtd">
<svg version="1.1" id="Calque_1" xmlns="http://www.w3.org/2000/svg" xmlns:xlink="http://www.w3.org/1999/xlink" x="0px" y="0px"
	 width="21.25px" height="19px" viewBox="0 0 21.25 19" enable-background="new 0 0 21.25 19" xml:space="preserve">
<path fill="#BAB354" d="M8.594,0.23c1.069,0,2.137,0,3.207,0c0.059,0.011,0.116,0.001,0.176,0.004c0.034,0,0.07,0,0.105,0
	c0.21,0.001,0.421,0.004,0.63,0.023c0.244,0.021,0.486,0.059,0.728,0.103c0.369,0.067,0.731,0.159,1.088,0.276
	c0.271,0.089,0.537,0.193,0.798,0.314c0.366,0.171,0.723,0.366,1.058,0.596c0.227,0.155,0.44,0.321,0.646,0.501
	c0.121,0.106,0.24,0.215,0.354,0.33c0.387,0.392,0.729,0.821,1.014,1.295c0.277,0.462,0.504,0.948,0.678,1.458
	c0.171,0.503,0.291,1.018,0.365,1.543c0.035,0.262,0.062,0.525,0.065,0.791c0.009,0.338,0.009,0.676,0.009,1.015
	c0,0.948,0,1.894-0.003,2.843c0,0.24,0,0.482-0.021,0.723c-0.023,0.277-0.063,0.551-0.113,0.826
	c-0.078,0.428-0.189,0.848-0.336,1.258c-0.129,0.361-0.282,0.709-0.465,1.047c-0.186,0.34-0.393,0.666-0.633,0.973
	c-0.143,0.182-0.291,0.361-0.455,0.527c-0.077,0.078-0.156,0.158-0.235,0.236c-0.226,0.219-0.467,0.414-0.718,0.598
	c-0.225,0.164-0.457,0.314-0.699,0.447c-0.251,0.137-0.506,0.264-0.771,0.371c-0.361,0.148-0.732,0.271-1.112,0.367
	c-0.339,0.084-0.685,0.145-1.03,0.188c-0.212,0.027-0.425,0.037-0.639,0.043c-0.053,0.002-0.107,0.004-0.163,0.004
	c-0.037,0-0.075,0-0.114,0c-0.056,0.002-0.111-0.006-0.167,0.004c-1.094,0-2.188,0-3.281,0c-0.05-0.012-0.1-0.002-0.149-0.004
	c-0.033,0-0.066,0-0.1,0c-0.026,0-0.053,0-0.08,0c-0.373-0.002-0.745-0.031-1.114-0.092c-0.516-0.084-1.021-0.209-1.515-0.383
	c-0.341-0.121-0.672-0.268-0.992-0.438c-0.329-0.176-0.644-0.375-0.941-0.602c-0.173-0.131-0.34-0.27-0.5-0.418
	c-0.397-0.365-0.746-0.77-1.046-1.221c-0.137-0.205-0.262-0.416-0.377-0.637c-0.201-0.379-0.363-0.771-0.493-1.18
	c-0.137-0.43-0.237-0.869-0.303-1.313c-0.042-0.279-0.068-0.561-0.069-0.842c-0.001-0.051-0.004-0.1-0.004-0.148
	c0-0.023,0-0.049,0-0.07c0-0.031,0-0.061,0-0.092c-0.002-0.057,0.006-0.113-0.004-0.168c0-1.209,0-2.417,0-3.626
	C0.879,7.667,0.87,7.63,0.873,7.592c0-0.031,0-0.063,0-0.095c0-0.424,0.041-0.843,0.119-1.26C1.068,5.832,1.169,5.43,1.304,5.041
	c0.087-0.257,0.19-0.509,0.306-0.755c0.165-0.349,0.357-0.681,0.576-0.999c0.152-0.22,0.317-0.429,0.495-0.629
	c0.111-0.125,0.227-0.246,0.347-0.363c0.185-0.182,0.382-0.35,0.587-0.509C3.892,1.57,4.184,1.379,4.49,1.21
	c0.26-0.144,0.527-0.272,0.802-0.384C5.647,0.683,6.01,0.565,6.381,0.474c0.344-0.085,0.692-0.147,1.043-0.193
	c0.219-0.027,0.438-0.039,0.658-0.043C8.135,0.237,8.187,0.234,8.24,0.234c0.044,0,0.087,0,0.131,0c0.039,0,0.078,0,0.118,0
	C8.523,0.232,8.559,0.24,8.594,0.23z"/>
<path fill="#8A86F5" d="M11.979,0.19c-0.06-0.002-0.119,0.01-0.178-0.009c0.059,0,0.117,0,0.176,0
	C11.982,0.184,11.984,0.186,11.979,0.19z"/>
<path fill="#8480F5" d="M0.868,11.282c0.019,0.055,0.006,0.11,0.009,0.169c-0.004,0.005-0.007,0.005-0.009-0.002
	C0.868,11.395,0.868,11.337,0.868,11.282z"/>
<path fill="#9491F6" d="M11.838,18.887c0.057-0.018,0.112-0.007,0.169-0.008c0.003,0.003,0.004,0.005,0.002,0.006
	c-0.001,0.001-0.002,0.002-0.004,0.002C11.949,18.887,11.895,18.887,11.838,18.887z"/>
<path fill="#8986F5" d="M8.407,18.879c0.049,0.001,0.101-0.011,0.15,0.008c-0.05,0-0.1,0-0.149,0
	C8.401,18.885,8.401,18.882,8.407,18.879z"/>
<path fill="#D2D1FA" d="M8.229,0.189C8.23,0.187,8.23,0.184,8.23,0.182c0.047,0,0.094,0,0.14,0c0.006,0.003,0.006,0.006,0,0.008
	C8.323,0.189,8.277,0.189,8.229,0.189z"/>
<path fill="#ABA9F8" d="M8.37,0.189c0-0.002,0-0.005,0-0.008c0.041,0,0.081,0,0.121,0c0.006,0.003,0.006,0.006,0,0.009
	C8.451,0.19,8.41,0.189,8.37,0.189z"/>
<path fill="#CDCBFA" d="M12.005,18.887c0.001-0.003,0.001-0.005,0.002-0.008c0.04,0,0.08,0,0.121,0
	c-0.001,0.003-0.001,0.005-0.001,0.008C12.086,18.887,12.046,18.887,12.005,18.887z"/>
<path fill="#BEBCF9" d="M11.979,0.19c0-0.003,0-0.006-0.002-0.009c0.039,0,0.075,0,0.112,0c0,0.002,0.001,0.005,0.001,0.007
	C12.053,0.189,12.016,0.189,11.979,0.19z"/>
<path fill="#A6A4F8" d="M0.876,7.543c0.001,0.038,0.008,0.076-0.008,0.113c0-0.038,0-0.074,0-0.111
	C0.87,7.538,0.873,7.537,0.876,7.543z"/>
<path fill="#8E8BF5" d="M8.491,0.19c0-0.003,0-0.006,0-0.009c0.034,0,0.068,0,0.103,0C8.561,0.198,8.525,0.189,8.491,0.19z"/>
<path fill="#D8D6FB" d="M0.876,7.543c-0.002,0-0.005,0-0.008,0.002c0-0.034,0-0.069,0-0.104c0.002,0,0.005,0,0.008,0
	C0.876,7.475,0.876,7.51,0.876,7.543z"/>
<path fill="#AFADF8" d="M8.407,18.879c0,0.003,0,0.005,0,0.008c-0.034,0-0.068,0-0.103,0c-0.006-0.002-0.007-0.005,0-0.008
	C8.339,18.879,8.373,18.879,8.407,18.879z"/>
<path fill="#B1AFF8" d="M0.868,11.449c0.002,0.001,0.005,0.001,0.009,0.002c-0.001,0.031-0.001,0.063-0.001,0.092
	c-0.003,0.007-0.006,0.007-0.008,0C0.868,11.512,0.868,11.48,0.868,11.449z"/>
<path fill="#DDDCFB" d="M8.305,18.879c0,0.003,0,0.005,0,0.008c-0.028,0-0.056,0-0.083,0c0-0.003,0-0.005,0-0.008
	C8.249,18.879,8.277,18.879,8.305,18.879z"/>
<path fill="#E0DFFC" d="M0.868,11.543c0.002,0,0.005,0.001,0.008,0c0,0.023,0,0.05,0,0.074l-0.003,0.001l-0.004-0.001
	C0.868,11.592,0.868,11.566,0.868,11.543z"/>
<path fill="#FFFFFF" d="M13.899,15.958c1.054-0.017,1.931-0.277,2.682-0.909c0.29-0.24,0.562-0.509,0.707-0.868
	c0.128-0.311,0.092-0.65,0.155-0.977c0.064-0.317-0.055-0.508-0.345-0.662c-0.866-0.463-1.739-0.908-2.642-1.293
	c-0.455-0.191-0.472-0.177-0.789,0.202c-0.341,0.412-0.67,0.837-0.978,1.279c-0.129,0.185-0.274,0.235-0.503,0.151
	c-0.49-0.171-0.957-0.389-1.404-0.65c-1.056-0.623-1.925-1.46-2.69-2.404c-0.308-0.381-0.618-0.765-0.8-1.233
	C7.234,8.437,7.254,8.318,7.372,8.208c0.415-0.391,0.72-0.862,1.001-1.352c0.06-0.106,0.075-0.2,0.024-0.327
	C8.061,5.64,7.702,4.757,7.308,3.888C7.021,3.253,7.014,3.256,6.324,3.254c-0.082,0-0.167,0.017-0.241-0.004
	C5.505,3.088,5.147,3.397,4.807,3.804C4.233,4.486,3.828,5.223,3.792,6.14C3.757,7.083,4.027,7.948,4.47,8.749
	c1.45,2.623,3.435,4.73,6.066,6.191C11.604,15.533,12.743,15.927,13.899,15.958z"/>
</svg>
