<svg xmlns="http://www.w3.org/2000/svg" width="21.145" height="21.165" viewBox="0 0 21.145 21.165"><g id="Calque_2" data-name="Calque 2"><g id="Calque_1-2" data-name="Calque 1"><path d="M0,5.829c.031-.244.048-.492.1-.733A3.061,3.061,0,0,1,.913,3.525c.568-.581,1.116-1.187,1.728-1.719a1.936,1.936,0,0,1,2.838.034c.955.894,1.869,1.833,2.761,2.789a1.882,1.882,0,0,1,.014,2.532c-.476.543-1,1.042-1.513,1.553a.209.209,0,0,0-.056.293A11.65,11.65,0,0,0,8.7,11.763a13.914,13.914,0,0,0,2.679,2.258c.282.181.585.33.9.506.341-.345.671-.685,1.008-1.018.225-.223.452-.446.7-.648a1.888,1.888,0,0,1,2.483.036c.986.941,1.952,1.906,2.887,2.9a1.914,1.914,0,0,1,.033,2.6A25.808,25.808,0,0,1,17.426,20.4a3.266,3.266,0,0,1-2.584.743,12.307,12.307,0,0,1-4.926-1.733,20.358,20.358,0,0,1-5.053-3.959A19.968,19.968,0,0,1,.633,8.881a8.419,8.419,0,0,1-.6-2.623A.875.875,0,0,0,0,6.118ZM1.217,6c.022.239.041.479.068.718a2.988,2.988,0,0,0,.063.324,13.3,13.3,0,0,0,1.717,4.069,20.245,20.245,0,0,0,8.4,7.753,9.748,9.748,0,0,0,3.464,1.084,2.289,2.289,0,0,0,1.96-.664c.464-.48.936-.953,1.4-1.433a.9.9,0,0,0,0-1.468c-.341-.35-.691-.693-1.036-1.039-.483-.482-.961-.968-1.45-1.444a.792.792,0,0,0-1.178-.027c-.068.058-.131.122-.194.185-.473.472-.943.947-1.419,1.416a.886.886,0,0,1-1.094.212,13,13,0,0,1-1.192-.656A15.534,15.534,0,0,1,7.34,12.056a11.1,11.1,0,0,1-1.771-2.6c-.35-.76-.3-1,.3-1.58.476-.459.949-.921,1.4-1.4A.767.767,0,0,0,7.288,5.34c-.04-.048-.08-.095-.124-.139Q5.939,3.972,4.71,2.746a1.28,1.28,0,0,0-.3-.219.857.857,0,0,0-1.061.253c-.462.453-.908.923-1.377,1.37A2.338,2.338,0,0,0,1.217,6Z"/><path d="M11.865,0c.477.124.96.231,1.431.375A11.041,11.041,0,0,1,17.4,2.682a11.394,11.394,0,0,1,2.954,4.031,11.224,11.224,0,0,1,.78,2.622.593.593,0,0,1-1.151.278c-.126-.443-.208-.9-.341-1.338a9.976,9.976,0,0,0-3.315-4.924,9.97,9.97,0,0,0-4.552-2.119c-.464-.087-.67-.3-.658-.655A.646.646,0,0,1,11.575,0Z"/><path d="M10.948,4.447a.6.6,0,0,1,.724-.594,6.882,6.882,0,0,1,4.455,2.818A6.786,6.786,0,0,1,17.3,9.442a.6.6,0,1,1-1.173.29A10.277,10.277,0,0,0,15.7,8.378a5.644,5.644,0,0,0-4.212-3.333A.6.6,0,0,1,10.948,4.447Z"/></g></g></svg>