<?xml version="1.0" encoding="utf-8"?>
<!-- Generator: Adobe Illustrator 16.0.0, SVG Export Plug-In . SVG Version: 6.00 Build 0)  -->
<!DOCTYPE svg PUBLIC "-//W3C//DTD SVG 1.1//EN" "http://www.w3.org/Graphics/SVG/1.1/DTD/svg11.dtd">
<svg version="1.1" id="Calque_1" xmlns="http://www.w3.org/2000/svg" xmlns:xlink="http://www.w3.org/1999/xlink" x="0px" y="0px"
	 width="29.765px" height="28.35px" viewBox="0 0 29.765 28.35" enable-background="new 0 0 29.765 28.35" xml:space="preserve">
<g>
	<path fill="#FFFFFF" d="M14.134,2.2c0.498,0,0.998,0,1.497,0c0.06,0.014,0.119,0.03,0.18,0.039
		c0.555,0.081,1.114,0.132,1.661,0.247c4.66,0.978,8.436,4.924,9.2,9.603c0.072,0.444,0.123,0.892,0.185,1.338
		c0,0.498,0,0.997,0,1.497c-0.014,0.067-0.03,0.134-0.04,0.202c-0.081,0.546-0.133,1.099-0.245,1.638
		c-0.972,4.652-4.929,8.44-9.603,9.201c-0.444,0.072-0.893,0.123-1.338,0.185c-0.499,0-0.999,0-1.497,0
		c-0.061-0.014-0.12-0.03-0.181-0.039c-0.554-0.081-1.114-0.132-1.661-0.247c-4.66-0.978-8.437-4.925-9.199-9.604
		c-0.072-0.443-0.124-0.891-0.186-1.336c0-0.5,0-0.999,0-1.497c0.014-0.067,0.03-0.135,0.041-0.203
		c0.095-0.606,0.152-1.222,0.289-1.818c1.055-4.613,4.913-8.24,9.581-9.023C13.255,2.309,13.696,2.261,14.134,2.2z M8.896,20.838
		c3.496,3.236,9.288,3.177,12.727-0.735c3.392-3.859,2.594-9.187-0.089-11.902C17.325,12.409,13.116,16.618,8.896,20.838z"/>
</g>
</svg>
