<?xml version="1.0" encoding="utf-8"?>
<!-- Generator: Adobe Illustrator 16.0.0, SVG Export Plug-In . SVG Version: 6.00 Build 0)  -->
<!DOCTYPE svg PUBLIC "-//W3C//DTD SVG 1.1//EN" "http://www.w3.org/Graphics/SVG/1.1/DTD/svg11.dtd">
<svg version="1.1" id="Calque_1" xmlns="http://www.w3.org/2000/svg" xmlns:xlink="http://www.w3.org/1999/xlink" x="0px" y="0px"
	 width="21.25px" height="19px" viewBox="0 0 21.25 19" enable-background="new 0 0 21.25 19" xml:space="preserve">
<path fill="#1876F0" d="M20.781,16.834c0,1.128-0.914,2.042-2.042,2.042H2.92c-1.128,0-2.042-0.914-2.042-2.042V2.33
	c0-1.127,0.914-2.042,2.042-2.042h15.819c1.128,0,2.042,0.914,2.042,2.042V16.834z"/>
<path fill="#8A86F5" d="M11.979,0.19c-0.06-0.002-0.119,0.01-0.178-0.009c0.059,0,0.117,0,0.176,0
	C11.982,0.184,11.984,0.186,11.979,0.19z"/>
<path fill="#8480F5" d="M0.868,11.282c0.019,0.055,0.006,0.11,0.009,0.169c-0.004,0.005-0.007,0.005-0.009-0.002
	C0.868,11.395,0.868,11.337,0.868,11.282z"/>
<path fill="#9491F6" d="M11.838,18.887c0.057-0.018,0.112-0.007,0.169-0.008c0.003,0.003,0.004,0.005,0.002,0.006
	c-0.001,0.001-0.002,0.002-0.004,0.002C11.949,18.887,11.895,18.887,11.838,18.887z"/>
<path fill="#8986F5" d="M8.407,18.879c0.049,0.001,0.101-0.011,0.15,0.008c-0.05,0-0.1,0-0.149,0
	C8.401,18.885,8.401,18.882,8.407,18.879z"/>
<path fill="#D2D1FA" d="M8.229,0.189C8.23,0.187,8.23,0.184,8.23,0.182c0.047,0,0.094,0,0.14,0c0.006,0.003,0.006,0.006,0,0.008
	C8.323,0.189,8.277,0.189,8.229,0.189z"/>
<path fill="#ABA9F8" d="M8.37,0.189c0-0.002,0-0.005,0-0.008c0.041,0,0.081,0,0.121,0c0.006,0.003,0.006,0.006,0,0.009
	C8.451,0.19,8.41,0.189,8.37,0.189z"/>
<path fill="#CDCBFA" d="M12.005,18.887c0.001-0.003,0.001-0.005,0.002-0.008c0.04,0,0.08,0,0.121,0
	c-0.001,0.003-0.001,0.005-0.001,0.008C12.086,18.887,12.046,18.887,12.005,18.887z"/>
<path fill="#BEBCF9" d="M11.979,0.19c0-0.003,0-0.006-0.002-0.009c0.039,0,0.075,0,0.112,0c0,0.002,0.001,0.005,0.001,0.007
	C12.053,0.189,12.016,0.189,11.979,0.19z"/>
<path fill="#FEFEFE" d="M11.415,18.885v-3.574h0.021c0-0.744,0-1.484,0-2.229c0-0.39,0.002-0.776-0.005-1.164
	c-0.002-0.077,0.015-0.108,0.101-0.104c0.122,0.01,0.243,0.002,0.368,0.002c0.593,0,1.184,0,1.78,0c0.045,0,0.078,0.01,0.089-0.069
	c0.023-0.168,0.052-0.337,0.075-0.506c0.055-0.356,0.116-0.713,0.175-1.067c0.055-0.382,0.113-0.759,0.172-1.139
	c0.014-0.076,0-0.11-0.097-0.11c-0.85,0.005-1.698,0-2.552,0.005c-0.095,0-0.111-0.031-0.106-0.115
	c0.005-0.572-0.007-1.144,0.005-1.716c0.002-0.209,0.025-0.419,0.094-0.617c0.137-0.408,0.405-0.687,0.809-0.832
	c0.262-0.098,0.538-0.119,0.817-0.122c0.3,0,0.6,0,0.901,0c0.08,0,0.183,0.033,0.232-0.014c0.051-0.05,0.015-0.155,0.015-0.233
	c0-0.708,0-1.418,0-2.127c0-0.045,0.014-0.082-0.066-0.093c-0.342-0.058-0.688-0.095-1.03-0.129
	c-0.328-0.034-0.656-0.048-0.988-0.06c-0.225-0.009-0.449,0.02-0.67,0.037c-0.38,0.028-0.744,0.117-1.096,0.252
	C9.733,3.44,9.18,3.923,8.803,4.604C8.515,5.123,8.382,5.695,8.334,6.28C8.313,6.521,8.306,6.764,8.308,7.007
	c0.004,0.603,0,1.208,0.004,1.814c0,0.083-0.014,0.107-0.104,0.107c-0.772-0.005-1.546,0-2.319-0.005
	c-0.088,0-0.102,0.026-0.102,0.107c0.004,0.896,0.004,1.792,0,2.687c0,0.081,0.019,0.105,0.1,0.104
	c0.763-0.007,1.527-0.006,2.29-0.006c0.134,0,0.134,0,0.134,0.132c0,1.12,0,2.246,0,3.365c0,1.112,0,2.221,0,3.331v0.063
	c0,0.002,0,0.004,0,0.007c0.002,0.009,0.002,0.017,0,0.024v0.149C9.345,18.885,10.379,18.885,11.415,18.885z"/>
<path fill="#A6A4F8" d="M0.876,7.543c0.001,0.038,0.008,0.076-0.008,0.113c0-0.038,0-0.074,0-0.111
	C0.87,7.538,0.873,7.537,0.876,7.543z"/>
<path fill="#8E8BF5" d="M8.491,0.19c0-0.003,0-0.006,0-0.009c0.034,0,0.068,0,0.103,0C8.561,0.198,8.525,0.189,8.491,0.19z"/>
<path fill="#D8D6FB" d="M0.876,7.543c-0.002,0-0.005,0-0.008,0.002c0-0.034,0-0.069,0-0.104c0.002,0,0.005,0,0.008,0
	C0.876,7.475,0.876,7.51,0.876,7.543z"/>
<path fill="#AFADF8" d="M8.407,18.879c0,0.003,0,0.005,0,0.008c-0.034,0-0.068,0-0.103,0c-0.006-0.002-0.007-0.005,0-0.008
	C8.339,18.879,8.373,18.879,8.407,18.879z"/>
<path fill="#B1AFF8" d="M0.868,11.449c0.002,0.001,0.005,0.001,0.009,0.002c-0.001,0.031-0.001,0.063-0.001,0.092
	c-0.003,0.007-0.006,0.007-0.008,0C0.868,11.512,0.868,11.48,0.868,11.449z"/>
<path fill="#DDDCFB" d="M8.305,18.879c0,0.003,0,0.005,0,0.008c-0.028,0-0.056,0-0.083,0c0-0.003,0-0.005,0-0.008
	C8.249,18.879,8.277,18.879,8.305,18.879z"/>
<path fill="#E0DFFC" d="M0.868,11.543c0.002,0,0.005,0.001,0.008,0c0,0.023,0,0.05,0,0.074l-0.003,0.001l-0.004-0.001
	C0.868,11.592,0.868,11.566,0.868,11.543z"/>
<path fill="#1876F0" d="M3.955,8.856C3.844,8.75,3.75,8.644,3.665,8.532C3.546,8.374,3.446,8.207,3.396,8.014
	C3.314,7.701,3.403,7.442,3.642,7.23C3.84,7.054,4.079,6.956,4.328,6.877c0.064-0.021,0.13-0.037,0.208-0.059
	C4.226,7.47,4.035,8.14,3.955,8.856z"/>
<path fill="#1876F0" d="M16.427,10.131c0.099,0.1,0.181,0.197,0.253,0.303c0.121,0.17,0.219,0.351,0.25,0.56
	c0.033,0.233-0.031,0.437-0.188,0.608c-0.173,0.189-0.396,0.299-0.63,0.385c-0.055,0.021-0.107,0.041-0.176,0.055
	C16.198,11.428,16.363,10.799,16.427,10.131z"/>
<path fill="#1876F0" d="M-17.977-6.542c9.209,0,16.674,7.464,16.674,16.672c0,9.207-7.465,16.672-16.674,16.672
	c-9.206,0-16.67-7.465-16.67-16.672S-27.182-6.542-17.977-6.542z"/>
<path fill="#1876F0" d="M66.542,38.975c0,2.209-1.791,4-4,4H47.875c-2.209,0-4-1.791-4-4V25.417c0-2.209,1.791-4,4-4h14.667
	c2.209,0,4,1.791,4,4V38.975z"/>
</svg>
