<?xml version="1.0" encoding="utf-8"?>
<!-- Generator: Adobe Illustrator 16.0.0, SVG Export Plug-In . SVG Version: 6.00 Build 0)  -->
<!DOCTYPE svg PUBLIC "-//W3C//DTD SVG 1.1//EN" "http://www.w3.org/Graphics/SVG/1.1/DTD/svg11.dtd">
<svg version="1.1" id="Layer_1" xmlns="http://www.w3.org/2000/svg" xmlns:xlink="http://www.w3.org/1999/xlink" x="0px" y="0px"
	 width="142.333px" height="53px" viewBox="0 0 142.333 53" enable-background="new 0 0 142.333 53" xml:space="preserve">
<g>
	<g>
		<defs>
			<path id="SVGID_1_" d="M4.68,27.76c0,10.729,8.698,19.428,19.428,19.428c10.728,0,19.426-8.699,19.426-19.428
				S34.836,8.333,24.108,8.333C13.378,8.333,4.68,17.03,4.68,27.76"/>
		</defs>
		<clipPath id="SVGID_2_">
			<use xlink:href="#SVGID_1_"  overflow="visible"/>
		</clipPath>
		
			<linearGradient id="SVGID_3_" gradientUnits="userSpaceOnUse" x1="-777.4033" y1="322.625" x2="-776.8848" y2="322.625" gradientTransform="matrix(0 -74.8353 74.8353 0 -24119.7129 -58129.9805)">
			<stop  offset="0" style="stop-color:#E30613"/>
			<stop  offset="0.1446" style="stop-color:#E30613"/>
			<stop  offset="0.2757" style="stop-color:#DB0813"/>
			<stop  offset="0.4738" style="stop-color:#C70D14"/>
			<stop  offset="0.7133" style="stop-color:#A51615"/>
			<stop  offset="0.7805" style="stop-color:#9A1915"/>
			<stop  offset="1" style="stop-color:#9A1915"/>
		</linearGradient>
		<rect x="4.68" y="8.333" clip-path="url(#SVGID_2_)" fill="url(#SVGID_3_)" width="38.854" height="38.854"/>
	</g>
</g>
<g>
	<path fill="#C1C1C1" d="M95.114,31.979c0,0.283-0.227,0.604-0.634,0.604c-0.217,0-0.435-0.142-0.653-0.312
		c-0.199-0.151-0.38-0.302-0.576-0.476c-0.578,0.481-1.25,0.786-2.035,0.786c-1.271,0-2.147-0.739-2.147-1.777
		c0-0.75,0.454-1.318,1.229-1.794c-0.379-0.454-0.644-0.956-0.644-1.553c0-0.957,0.729-1.601,1.854-1.601
		c1.08,0,1.854,0.644,1.854,1.581c0,0.568-0.313,1.252-1.106,1.756l0.916,0.844c0.19-0.253,0.369-0.521,0.541-0.805
		c0.113-0.18,0.322-0.293,0.541-0.293c0.35,0,0.633,0.293,0.633,0.644c0,0.104-0.021,0.219-0.152,0.429
		c-0.189,0.293-0.388,0.584-0.596,0.85c0.218,0.182,0.474,0.381,0.748,0.623C95.032,31.619,95.114,31.741,95.114,31.979z
		 M91.243,31.361c0.389,0,0.739-0.151,1.071-0.397l-1.002-0.928c-0.069-0.066-0.142-0.122-0.207-0.188
		c-0.383,0.228-0.647,0.539-0.647,0.899C90.456,31.126,90.756,31.361,91.243,31.361z M90.948,27.47c0,0.321,0.18,0.614,0.454,0.917
		l0.037-0.019c0.427-0.236,0.673-0.427,0.673-0.898c0-0.331-0.256-0.587-0.607-0.587C91.184,26.883,90.948,27.139,90.948,27.47z"/>
</g>
<g>
	<path fill="#FFFFFF" d="M14.53,23.486l0.055-0.011l0.15-0.772l-0.151-0.704l0.913-1.41l2.739-0.588l-1.148,1.777l0.683,1.012
		l1.174-0.25l2.74-0.588l2.728-0.587l2.74-0.588l2.729-0.585l2.739-0.588l1.771-0.381l-0.381-1.77l-0.249-1.159l-1.579,0.339
		l-2.729,0.586l-2.743,0.588l-2.726,0.586l-2.739,0.588l-2.729,0.586l-2.739,0.588l-1.876,0.402l0.402,1.877L14.53,23.486z
		 M31.899,17.067l1.584-0.338l0.248,1.158l-0.83,1.283l-2.741,0.587L31.899,17.067z M26.434,18.243l2.738-0.588l-1.739,2.688
		l-2.739,0.588L26.434,18.243z M20.964,19.415l2.739-0.588l-1.738,2.689l-2.74,0.588L20.964,19.415z"/>
	<path fill="#FFFFFF" d="M32.061,24.083h-2.804h-2.789h-2.801h-2.792h-1.807l0.366,0.365h1.075l-0.61,0.609
		c0.041,0.112,0.064,0.232,0.064,0.355c0,0.592-0.472,1.063-1.053,1.063h-0.43l-0.236,0.237h-2.801l0.235-0.237H15.45
		c-0.581,0-1.053-0.471-1.053-1.053V24.97l-0.208,0.207v-0.729h0.208v-0.365h-0.575v1.46v1.534h1.255h2.802h2.791h2.802h2.788h2.802
		h2.791h2.283v-2.282v-0.712H32.061z M23.836,26.713h-2.802l2.265-2.265h2.804L23.836,26.713z M29.43,26.713h-2.802l2.263-2.265
		h2.802L29.43,26.713z M33.772,26.713h-1.553l1.553-1.554V26.713z"/>
	<path fill="#FFFFFF" d="M15.479,21.294H15.45c-0.38,0-0.688,0.309-0.688,0.688v3.441c0,0.38,0.307,0.688,0.688,0.688h3.461
		c0.38,0,0.687-0.308,0.687-0.688v-0.009c0-0.183-0.072-0.356-0.201-0.485l-3.432-3.433C15.836,21.367,15.66,21.294,15.479,21.294
		 M15.503,25.856c-0.292,0-0.527-0.236-0.527-0.527s0.236-0.527,0.527-0.527s0.526,0.236,0.526,0.527S15.794,25.856,15.503,25.856
		 M18.763,24.802c0.292,0,0.527,0.236,0.527,0.527s-0.236,0.527-0.527,0.527c-0.29,0-0.527-0.236-0.527-0.527
		S18.473,24.802,18.763,24.802 M15.503,22.606c-0.292,0-0.527-0.236-0.527-0.528c0-0.291,0.236-0.526,0.527-0.526
		s0.526,0.235,0.526,0.526C16.029,22.37,15.794,22.606,15.503,22.606"/>
	<path fill="#FFFFFF" d="M14.397,27.436v11.069c0,0.396,0.321,0.72,0.718,0.72h17.731c0.396,0,0.719-0.322,0.719-0.72V27.436H14.397
		z M23.256,33.788l-4.037,2.344c-0.381,0.222-0.858-0.055-0.858-0.491V31.02c0-0.437,0.471-0.711,0.852-0.498L23.25,32.8
		C23.634,33.016,23.639,33.566,23.256,33.788 M26.603,35.532c0,0.274-0.224,0.5-0.498,0.5h-0.938c-0.275,0-0.5-0.226-0.5-0.5v-4.453
		c0-0.274,0.225-0.498,0.5-0.498h0.938c0.274,0,0.498,0.224,0.498,0.498V35.532z M29.599,35.532c0,0.274-0.223,0.5-0.498,0.5h-0.94
		c-0.273,0-0.5-0.226-0.5-0.5v-4.453c0-0.274,0.227-0.498,0.5-0.498h0.94c0.275,0,0.498,0.224,0.498,0.498V35.532z"/>
</g>
<g>
	<g>
		<defs>
			<path id="SVGID_4_" d="M79.101,17.937l-0.914,2.501c-0.028,0.082-0.028,0.175,0,0.257c0.431,1.191,0.551,1.48,1.004,2.633h-1.737
				c-0.211,0-0.402,0.127-0.48,0.322l-0.557,1.373c-0.14,0.34,0.11,0.711,0.479,0.711h3.258c0.271,0.67,0.541,1.286,0.795,1.881
				c0.162,0.381,0.488,0.561,0.814,0.561h1.646c0.325,0,0.704-0.197,0.522-0.633l-4.134-9.625c-0.063-0.152-0.202-0.229-0.344-0.229
				C79.308,17.688,79.159,17.772,79.101,17.937"/>
		</defs>
		<clipPath id="SVGID_5_">
			<use xlink:href="#SVGID_4_"  overflow="visible"/>
		</clipPath>
		
			<linearGradient id="SVGID_6_" gradientUnits="userSpaceOnUse" x1="-764.2837" y1="308.7441" x2="-763.784" y2="308.7441" gradientTransform="matrix(0 23.3429 -23.3429 0 7287.1616 17856.5703)">
			<stop  offset="0" style="stop-color:#E30613"/>
			<stop  offset="0.1446" style="stop-color:#E30613"/>
			<stop  offset="0.2757" style="stop-color:#DB0813"/>
			<stop  offset="0.4738" style="stop-color:#C70D14"/>
			<stop  offset="0.7133" style="stop-color:#A51615"/>
			<stop  offset="0.7805" style="stop-color:#9A1915"/>
			<stop  offset="1" style="stop-color:#9A1915"/>
		</linearGradient>
		<rect x="76.276" y="17.688" clip-path="url(#SVGID_5_)" fill="url(#SVGID_6_)" width="7.836" height="10.486"/>
	</g>
</g>
<g>
	<g>
		<defs>
			<path id="SVGID_7_" d="M53.241,19.601c0.452,1.266,0.94,2.533,1.411,3.727H51.83C52.318,22.114,52.77,20.921,53.241,19.601
				 M51.956,16.146l-4.884,11.396c-0.181,0.437,0.198,0.633,0.524,0.633h1.574c0.398,0,0.723-0.18,0.886-0.561
				c0.271-0.65,0.543-1.266,0.796-1.881h4.759c0.271,0.67,0.542,1.285,0.796,1.881c0.162,0.381,0.488,0.561,0.813,0.561h1.646
				c0.326,0,0.706-0.196,0.524-0.633l-4.866-11.396c-0.235-0.561-0.778-0.851-1.284-0.851
				C52.608,15.295,52.137,15.711,51.956,16.146"/>
		</defs>
		<clipPath id="SVGID_8_">
			<use xlink:href="#SVGID_7_"  overflow="visible"/>
		</clipPath>
		
			<linearGradient id="SVGID_9_" gradientUnits="userSpaceOnUse" x1="-764.2837" y1="307.417" x2="-763.7839" y2="307.417" gradientTransform="matrix(0 23.3429 -23.3429 0 7229.2397 17856.5703)">
			<stop  offset="0" style="stop-color:#E30613"/>
			<stop  offset="0.1446" style="stop-color:#E30613"/>
			<stop  offset="0.2757" style="stop-color:#DB0813"/>
			<stop  offset="0.4738" style="stop-color:#C70D14"/>
			<stop  offset="0.7133" style="stop-color:#A51615"/>
			<stop  offset="0.7805" style="stop-color:#9A1915"/>
			<stop  offset="1" style="stop-color:#9A1915"/>
		</linearGradient>
		<rect x="46.891" y="15.295" clip-path="url(#SVGID_8_)" fill="url(#SVGID_9_)" width="12.682" height="12.88"/>
	</g>
</g>
<g>
	<g>
		<defs>
			<path id="SVGID_10_" d="M60.074,18.644v8.917c0,0.34,0.276,0.614,0.615,0.614h1.7c0.362,0,0.598-0.233,0.598-0.614l-0.066-5.622
				c-0.004-0.287-0.101-0.564-0.275-0.793l-2.051-2.678c-0.061-0.079-0.145-0.114-0.228-0.114
				C60.219,18.354,60.074,18.466,60.074,18.644"/>
		</defs>
		<clipPath id="SVGID_11_">
			<use xlink:href="#SVGID_10_"  overflow="visible"/>
		</clipPath>
		
			<linearGradient id="SVGID_12_" gradientUnits="userSpaceOnUse" x1="-764.2832" y1="307.8594" x2="-763.7841" y2="307.8594" gradientTransform="matrix(0 23.3429 -23.3429 0 7247.8491 17856.5703)">
			<stop  offset="0" style="stop-color:#E30613"/>
			<stop  offset="0.1446" style="stop-color:#E30613"/>
			<stop  offset="0.2757" style="stop-color:#DB0813"/>
			<stop  offset="0.4738" style="stop-color:#C70D14"/>
			<stop  offset="0.7133" style="stop-color:#A51615"/>
			<stop  offset="0.7805" style="stop-color:#9A1915"/>
			<stop  offset="1" style="stop-color:#9A1915"/>
		</linearGradient>
		<rect x="60.074" y="18.354" clip-path="url(#SVGID_11_)" fill="url(#SVGID_12_)" width="2.913" height="9.821"/>
	</g>
</g>
<path fill="#FFFFFF" d="M64.073,14.767c0-0.208,0.043-0.411,0.127-0.606c0.085-0.196,0.202-0.368,0.353-0.519
	c0.151-0.151,0.319-0.268,0.509-0.353c0.188-0.085,0.395-0.128,0.616-0.128c0.209,0,0.411,0.043,0.606,0.128
	c0.196,0.085,0.369,0.202,0.52,0.353c0.149,0.15,0.267,0.322,0.352,0.519c0.085,0.195,0.128,0.398,0.128,0.606
	c0,0.223-0.043,0.428-0.128,0.617c-0.085,0.189-0.202,0.357-0.352,0.508c-0.15,0.15-0.323,0.268-0.52,0.354
	c-0.195,0.084-0.397,0.127-0.606,0.127c-0.222,0-0.428-0.043-0.616-0.127c-0.189-0.086-0.358-0.203-0.509-0.354
	c-0.151-0.151-0.268-0.318-0.353-0.508C64.116,15.194,64.073,14.989,64.073,14.767"/>
<path fill="#FFFFFF" d="M79.004,11.989c-0.223-0.156-0.457-0.236-0.705-0.236c-0.221,0-0.403,0.072-0.547,0.215
	c-0.145,0.145-0.217,0.328-0.217,0.55s0.072,0.407,0.217,0.558c0.144,0.15,0.326,0.225,0.547,0.225h1.058
	c0.209,0,0.365,0.065,0.472,0.196c0.104,0.13,0.155,0.261,0.155,0.391c0,0.157-0.053,0.298-0.155,0.421
	c-0.105,0.125-0.263,0.187-0.472,0.187h-3.092c-0.183,0-0.33-0.062-0.438-0.187c-0.111-0.123-0.166-0.264-0.166-0.421
	c0-0.13,0.055-0.261,0.166-0.391c0.108-0.131,0.258-0.196,0.438-0.196h0.334c-0.117-0.144-0.188-0.294-0.218-0.449
	c-0.024-0.157-0.039-0.287-0.039-0.393c0-0.534,0.187-0.979,0.56-1.331c0.371-0.353,0.832-0.528,1.379-0.528
	c0.263,0,0.517,0.047,0.765,0.137c0.248,0.092,0.463,0.229,0.646,0.411c0.129,0.131,0.194,0.269,0.194,0.412
	c0,0.183-0.059,0.319-0.176,0.409c-0.117,0.093-0.248,0.138-0.393,0.138C79.2,12.105,79.097,12.066,79.004,11.989"/>
<path fill="#FFFFFF" d="M77.78,19.601l1.035-2.781c0.268-0.723-0.25-1.516-1.02-1.524H77.78c-0.633,0-1.104,0.416-1.285,0.851
	l-4.883,11.396c-0.182,0.436,0.197,0.633,0.523,0.633h1.574c0.397,0,0.723-0.18,0.887-0.561c0.271-0.65,0.543-1.266,0.795-1.881
	l0.979-2.406C76.858,22.114,77.31,20.921,77.78,19.601"/>
<path fill="#FFFFFF" d="M70.929,16.96c0-0.797-0.67-1.447-1.466-1.447s-1.447,0.65-1.447,1.447l0.054,5.979l-7.718-10.111
	l0.004,0.006c-0.416-0.634-1.267-0.811-1.9-0.395s-0.81,1.267-0.394,1.9l2.012,2.656l2.841,3.709l5.192,6.838
	c0.416,0.543,0.741,0.633,1.085,0.633h1.176c0.362,0,0.579-0.271,0.579-0.577L70.929,16.96z"/>
<g>
	<g>
		<defs>
			<path id="SVGID_13_" d="M49.151,31.939h-0.018c-0.765,0-1.405,0.463-1.405,1.388v10.278c0,0.371,0.23,0.604,0.604,0.604h1.673
				c0.355,0,0.587-0.231,0.587-0.604v-3.93h3.823c0.782,0,1.423-0.553,1.423-1.334c0-0.783-0.641-1.334-1.423-1.334h-3.823v-2.4
				h4.623c0.782,0,1.423-0.553,1.423-1.334c0-0.78-0.641-1.334-1.423-1.334H49.151z"/>
		</defs>
		<clipPath id="SVGID_14_">
			<use xlink:href="#SVGID_13_"  overflow="visible"/>
		</clipPath>
		
			<linearGradient id="SVGID_15_" gradientUnits="userSpaceOnUse" x1="-763.5928" y1="311.0781" x2="-763.0931" y2="311.0781" gradientTransform="matrix(0 23.3429 -23.3429 0 7313.646 17856.5703)">
			<stop  offset="0" style="stop-color:#E30613"/>
			<stop  offset="0.1446" style="stop-color:#E30613"/>
			<stop  offset="0.2757" style="stop-color:#DB0813"/>
			<stop  offset="0.4738" style="stop-color:#C70D14"/>
			<stop  offset="0.7133" style="stop-color:#A51615"/>
			<stop  offset="0.7805" style="stop-color:#9A1915"/>
			<stop  offset="1" style="stop-color:#9A1915"/>
		</linearGradient>
		<rect x="47.728" y="31.939" clip-path="url(#SVGID_14_)" fill="url(#SVGID_15_)" width="8.909" height="12.271"/>
	</g>
</g>
<g>
	<g>
		<defs>
			<path id="SVGID_16_" d="M58.109,33.188v9.938c0,0.674,0.551,1.084,1.191,1.084h5.939c0.835,0,1.404-0.586,1.404-1.299
				c0-0.711-0.569-1.279-1.404-1.279h-4.268v-8.444c0-0.783-0.658-1.424-1.441-1.424C58.749,31.764,58.109,32.402,58.109,33.188"/>
		</defs>
		<clipPath id="SVGID_17_">
			<use xlink:href="#SVGID_16_"  overflow="visible"/>
		</clipPath>
		
			<linearGradient id="SVGID_18_" gradientUnits="userSpaceOnUse" x1="-763.5928" y1="311.5205" x2="-763.093" y2="311.5205" gradientTransform="matrix(0 23.3429 -23.3429 0 7334.1616 17856.5703)">
			<stop  offset="0" style="stop-color:#E30613"/>
			<stop  offset="0.1446" style="stop-color:#E30613"/>
			<stop  offset="0.2757" style="stop-color:#DB0813"/>
			<stop  offset="0.4738" style="stop-color:#C70D14"/>
			<stop  offset="0.7133" style="stop-color:#A51615"/>
			<stop  offset="0.7805" style="stop-color:#9A1915"/>
			<stop  offset="1" style="stop-color:#9A1915"/>
		</linearGradient>
		<rect x="58.109" y="31.764" clip-path="url(#SVGID_17_)" fill="url(#SVGID_18_)" width="8.535" height="12.446"/>
	</g>
</g>
<g>
	<g>
		<defs>
			<path id="SVGID_19_" d="M68.304,33.188v10.42c0,0.371,0.232,0.604,0.605,0.604h1.671c0.356,0,0.587-0.232,0.587-0.604v-10.42
				c0-0.783-0.657-1.424-1.44-1.424C68.946,31.764,68.304,32.402,68.304,33.188"/>
		</defs>
		<clipPath id="SVGID_20_">
			<use xlink:href="#SVGID_19_"  overflow="visible"/>
		</clipPath>
		
			<linearGradient id="SVGID_21_" gradientUnits="userSpaceOnUse" x1="-763.5928" y1="311.8477" x2="-763.093" y2="311.8477" gradientTransform="matrix(0 23.3429 -23.3429 0 7349.1616 17856.5703)">
			<stop  offset="0" style="stop-color:#E30613"/>
			<stop  offset="0.1446" style="stop-color:#E30613"/>
			<stop  offset="0.2757" style="stop-color:#DB0813"/>
			<stop  offset="0.4738" style="stop-color:#C70D14"/>
			<stop  offset="0.7133" style="stop-color:#A51615"/>
			<stop  offset="0.7805" style="stop-color:#9A1915"/>
			<stop  offset="1" style="stop-color:#9A1915"/>
		</linearGradient>
		<rect x="68.304" y="31.764" clip-path="url(#SVGID_20_)" fill="url(#SVGID_21_)" width="2.863" height="12.446"/>
	</g>
</g>
<g>
	<g>
		<defs>
			<path id="SVGID_22_" d="M80.366,32.368L78,35.497l-2.383-3.129c-0.357-0.466-0.801-0.604-1.191-0.604
				c-0.836,0-1.44,0.657-1.44,1.424c0,0.442,0.16,0.764,0.354,1.012l2.812,3.717l-3.06,4.037c-0.196,0.248-0.354,0.568-0.354,1.014
				c0,0.764,0.604,1.422,1.438,1.422c0.394,0,0.837-0.143,1.191-0.604L78,40.337l2.613,3.447c0.355,0.463,0.801,0.604,1.191,0.604
				c0.836,0,1.439-0.658,1.439-1.422c0-0.445-0.158-0.766-0.355-1.014l-3.059-4.037l2.811-3.717
				c0.195-0.248,0.355-0.568,0.355-1.012c0-0.767-0.605-1.424-1.441-1.424C81.165,31.764,80.722,31.902,80.366,32.368"/>
		</defs>
		<clipPath id="SVGID_23_">
			<use xlink:href="#SVGID_22_"  overflow="visible"/>
		</clipPath>
		
			<linearGradient id="SVGID_24_" gradientUnits="userSpaceOnUse" x1="-763.5928" y1="312.2402" x2="-763.0923" y2="312.2402" gradientTransform="matrix(0 23.3429 -23.3429 0 7366.5679 17856.5703)">
			<stop  offset="0" style="stop-color:#E30613"/>
			<stop  offset="0.1446" style="stop-color:#E30613"/>
			<stop  offset="0.2757" style="stop-color:#DB0813"/>
			<stop  offset="0.4738" style="stop-color:#C70D14"/>
			<stop  offset="0.7133" style="stop-color:#A51615"/>
			<stop  offset="0.7805" style="stop-color:#9A1915"/>
			<stop  offset="1" style="stop-color:#9A1915"/>
		</linearGradient>
		<rect x="72.737" y="31.764" clip-path="url(#SVGID_23_)" fill="url(#SVGID_24_)" width="10.508" height="12.625"/>
	</g>
</g>
<path fill="#1C5C8C" d="M115.524,13.881c9.209,0,16.674,5.802,16.674,15.01c0,9.208-5.796,17.869-16.674,17.869
	c-9.911,0-16.671-8.735-16.671-17.944C98.853,19.608,106.318,13.881,115.524,13.881z"/>
<circle fill="#1876F0" cx="115.524" cy="28.352" r="16.672"/>
<path fill="#FEFEFE" d="M117.402,42.748v-5.443h0.031c0-1.131,0-2.262,0-3.395c0-0.589,0.005-1.182-0.004-1.772
	c-0.004-0.119,0.022-0.165,0.149-0.159c0.189,0.016,0.375,0.005,0.561,0.005c0.904,0,1.807,0,2.71,0
	c0.071,0,0.124,0.013,0.141-0.105c0.032-0.257,0.075-0.514,0.114-0.771c0.081-0.543,0.176-1.087,0.261-1.629
	c0.091-0.578,0.177-1.153,0.267-1.733c0.018-0.112,0-0.169-0.148-0.169c-1.296,0.007-2.589,0.001-3.889,0.007
	c-0.142,0-0.165-0.045-0.164-0.172c0.008-0.871-0.005-1.744,0.011-2.615c0.002-0.317,0.039-0.638,0.143-0.941
	c0.207-0.62,0.616-1.042,1.229-1.266c0.401-0.146,0.821-0.18,1.244-0.183c0.459-0.002,0.918,0,1.375-0.001
	c0.123-0.001,0.279,0.052,0.356-0.021c0.076-0.078,0.021-0.236,0.021-0.357c0.001-1.078,0-2.159,0-3.239
	c0-0.069,0.02-0.124-0.101-0.145c-0.522-0.086-1.044-0.143-1.57-0.195c-0.499-0.05-1.001-0.07-1.504-0.09
	c-0.342-0.014-0.682,0.028-1.021,0.056c-0.577,0.044-1.132,0.177-1.67,0.385c-1.104,0.428-1.945,1.162-2.518,2.198
	c-0.44,0.792-0.643,1.661-0.716,2.556c-0.03,0.365-0.041,0.735-0.039,1.104c0.009,0.921,0.001,1.843,0.007,2.763
	c0,0.127-0.022,0.164-0.159,0.164c-1.175-0.006-2.354,0-3.53-0.006c-0.137-0.001-0.157,0.037-0.157,0.161
	c0.006,1.367,0.006,2.731,0,4.096c0,0.121,0.027,0.158,0.152,0.154c1.162-0.009,2.326-0.006,3.487-0.006
	c0.205,0,0.205,0,0.205,0.199c0,1.708,0,3.418,0,5.124c0,1.695,0,3.384,0,5.077v0.094c0.001,0.003,0.001,0.006,0.001,0.01
	c0.001,0.015,0.001,0.024-0.001,0.036v0.227C114.25,42.748,115.825,42.748,117.402,42.748z"/>
</svg>
