<?xml version="1.0" encoding="utf-8"?>
<!-- Generator: Adobe Illustrator 16.0.0, SVG Export Plug-In . SVG Version: 6.00 Build 0)  -->
<!DOCTYPE svg PUBLIC "-//W3C//DTD SVG 1.1//EN" "http://www.w3.org/Graphics/SVG/1.1/DTD/svg11.dtd">
<svg version="1.1" id="Layer_1" xmlns="http://www.w3.org/2000/svg" xmlns:xlink="http://www.w3.org/1999/xlink" x="0px" y="0px"
	 width="142.333px" height="53px" viewBox="0 0 142.333 53" enable-background="new 0 0 142.333 53" xml:space="preserve">
<g>
	<g>
		<defs>
			<path id="SVGID_1_" d="M4.68,27.76c0,10.729,8.698,19.428,19.428,19.428c10.728,0,19.426-8.699,19.426-19.428
				S34.836,8.333,24.108,8.333C13.378,8.333,4.68,17.03,4.68,27.76"/>
		</defs>
		<clipPath id="SVGID_2_">
			<use xlink:href="#SVGID_1_"  overflow="visible"/>
		</clipPath>
		
			<linearGradient id="SVGID_3_" gradientUnits="userSpaceOnUse" x1="-777.4033" y1="322.625" x2="-776.8848" y2="322.625" gradientTransform="matrix(0 -74.8353 74.8353 0 -24119.7129 -58129.9805)">
			<stop  offset="0.069" style="stop-color:#FFCB21"/>
			<stop  offset="0.1256" style="stop-color:#FFC028"/>
			<stop  offset="0.2239" style="stop-color:#FFA43B"/>
			<stop  offset="0.352" style="stop-color:#FF765B"/>
			<stop  offset="0.5032" style="stop-color:#FF3785"/>
			<stop  offset="0.6239" style="stop-color:#FF00AB"/>
			<stop  offset="1" style="stop-color:#6E9AFF"/>
		</linearGradient>
		<rect x="4.68" y="8.333" clip-path="url(#SVGID_2_)" fill="url(#SVGID_3_)" width="38.854" height="38.854"/>
	</g>
</g>
<g>
	<path fill="#8E8164" d="M95.114,31.979c0,0.283-0.227,0.604-0.634,0.604c-0.217,0-0.435-0.142-0.653-0.312
		c-0.199-0.151-0.38-0.302-0.576-0.476c-0.578,0.481-1.25,0.786-2.035,0.786c-1.271,0-2.147-0.739-2.147-1.777
		c0-0.75,0.454-1.318,1.229-1.794c-0.379-0.454-0.644-0.956-0.644-1.553c0-0.957,0.729-1.601,1.854-1.601
		c1.08,0,1.854,0.644,1.854,1.581c0,0.568-0.313,1.252-1.106,1.756l0.916,0.844c0.19-0.253,0.369-0.521,0.541-0.805
		c0.113-0.18,0.322-0.293,0.541-0.293c0.35,0,0.633,0.293,0.633,0.644c0,0.104-0.021,0.219-0.152,0.429
		c-0.189,0.293-0.388,0.584-0.596,0.85c0.218,0.182,0.474,0.381,0.748,0.623C95.032,31.619,95.114,31.741,95.114,31.979z
		 M91.243,31.361c0.389,0,0.739-0.151,1.071-0.397l-1.002-0.928c-0.069-0.066-0.142-0.122-0.207-0.188
		c-0.383,0.228-0.647,0.539-0.647,0.899C90.456,31.126,90.756,31.361,91.243,31.361z M90.948,27.47c0,0.321,0.18,0.614,0.454,0.917
		l0.037-0.019c0.427-0.236,0.673-0.427,0.673-0.898c0-0.331-0.256-0.587-0.607-0.587C91.184,26.883,90.948,27.139,90.948,27.47z"/>
</g>
<g id="ZIK_1_">
	<path fill="#1E1E1E" d="M56.502,43.845c0,0.81-0.658,1.41-1.467,1.41h-7.386c-0.808,0-1.466-0.657-1.466-1.467
		c0-0.376,0.131-0.714,0.451-1.146l5.602-7.537h-4.625c-0.808,0-1.447-0.603-1.447-1.41c0-0.809,0.639-1.409,1.447-1.409h7.312
		c0.809,0,1.448,0.639,1.448,1.446c0,0.281-0.095,0.563-0.433,1.016l-5.62,7.688h4.717C55.844,42.436,56.502,43.037,56.502,43.845z"
		/>
	<path fill="#1E1E1E" d="M60.453,44.615V33.602c0-0.828,0.677-1.504,1.504-1.504s1.522,0.676,1.522,1.504v11.015
		c0,0.396-0.244,0.64-0.62,0.64h-1.767C60.697,45.255,60.453,45.011,60.453,44.615z"/>
	<path fill="#1E1E1E" d="M78.725,43.826c0,0.996-0.732,1.542-1.541,1.542c-0.395,0-0.771-0.188-1.09-0.509l-4.324-4.474v4.229
		c0,0.396-0.244,0.64-0.62,0.64h-1.767c-0.395,0-0.639-0.244-0.639-0.64V33.602c0-0.828,0.677-1.504,1.503-1.504
		c0.828,0,1.522,0.676,1.522,1.504v2.987l4.323-4.079c0.263-0.242,0.603-0.412,1.033-0.412c0.752,0,1.41,0.657,1.41,1.446
		c0,0.433-0.225,0.827-0.508,1.091l-4.08,3.815c1.467,1.466,2.916,2.819,4.344,4.36C78.538,43.074,78.725,43.506,78.725,43.826z"/>
</g>
<g id="Equalizer_3_">
	<path fill="#FFFFFF" d="M26.856,39.463L26.856,39.463c-1.192,0-2.158-0.965-2.158-2.158V25.14c0-1.193,0.966-2.16,2.158-2.16l0,0
		c1.193,0,2.159,0.967,2.159,2.16v12.165C29.015,38.498,28.049,39.463,26.856,39.463z"/>
	<path fill="#FFFFFF" d="M20.387,35.749L20.387,35.749c-1.193,0-2.16-0.967-2.16-2.16V21.037c0-1.192,0.967-2.159,2.16-2.159l0,0
		c1.191,0,2.159,0.967,2.159,2.159v12.552C22.545,34.782,21.578,35.749,20.387,35.749z"/>
	<path fill="#FFFFFF" d="M13.855,33.348L13.855,33.348c-1.192,0-2.159-0.968-2.159-2.16v-3.346c0-1.191,0.967-2.158,2.159-2.158l0,0
		c1.192,0,2.159,0.967,2.159,2.158v3.346C16.014,32.38,15.047,33.348,13.855,33.348z"/>
	<path fill="#FFFFFF" d="M33.421,33.395L33.421,33.395c-1.193,0-2.16-0.965-2.16-2.158v-2.975c0-1.191,0.967-2.16,2.16-2.16l0,0
		c1.191,0,2.159,0.966,2.159,2.16v2.975C35.58,32.43,34.613,33.395,33.421,33.395z"/>
</g>
<g id="ANA_1_">
	<path fill="#1E1E1E" d="M85.145,27.563l-4.141-9.643c-0.135-0.313-0.582-0.302-0.7,0.019l-0.914,2.506
		c-0.03,0.083-0.03,0.175,0,0.257c0.428,1.194,0.551,1.483,1.007,2.638h-1.744c-0.212,0-0.4,0.128-0.479,0.323l-0.559,1.375
		c-0.14,0.34,0.111,0.713,0.479,0.713h3.263c0.272,0.67,0.544,1.287,0.798,1.884c0.163,0.381,0.489,0.563,0.815,0.563h1.647
		C84.945,28.199,85.327,27.999,85.145,27.563z"/>
	<path fill="#1E1E1E" d="M58.029,28.199H56.38c-0.326,0-0.652-0.182-0.815-0.563c-0.254-0.598-0.525-1.214-0.798-1.884H50
		c-0.254,0.616-0.525,1.232-0.797,1.884c-0.163,0.382-0.489,0.563-0.888,0.563h-1.578c-0.326,0-0.707-0.2-0.525-0.637l4.894-11.417
		c0.181-0.435,0.653-0.852,1.287-0.852c0.507,0,1.051,0.29,1.287,0.852l4.876,11.417C58.736,27.999,58.355,28.199,58.029,28.199z
		 M53.806,23.341c-0.471-1.196-0.96-2.464-1.414-3.734c-0.471,1.324-0.924,2.52-1.414,3.734H53.806z"/>
	<path fill="#1E1E1E" d="M60.241,18.648v8.935c0,0.341,0.276,0.616,0.616,0.616h1.704c0.363,0,0.599-0.236,0.599-0.616l-0.068-5.631
		c-0.003-0.289-0.1-0.568-0.275-0.797l-2.054-2.683C60.592,18.252,60.241,18.371,60.241,18.648z"/>
</g>
<g id="AN_1_">
	
		<linearGradient id="SVGID_4_" gradientUnits="userSpaceOnUse" x1="-221.8452" y1="147.3975" x2="-221.8452" y2="165.4998" gradientTransform="matrix(1 0 0 -1 287.7002 175.4551)">
		<stop  offset="0.069" style="stop-color:#FFCB21"/>
		<stop  offset="0.1256" style="stop-color:#FFC028"/>
		<stop  offset="0.2239" style="stop-color:#FFA43B"/>
		<stop  offset="0.352" style="stop-color:#FF765B"/>
		<stop  offset="0.5032" style="stop-color:#FF3785"/>
		<stop  offset="0.6239" style="stop-color:#FF00AB"/>
		<stop  offset="1" style="stop-color:#6E9AFF"/>
	</linearGradient>
	<path fill="url(#SVGID_4_)" d="M64.247,14.765c0-0.209,0.042-0.413,0.127-0.608c0.085-0.197,0.203-0.37,0.353-0.52
		c0.151-0.151,0.32-0.268,0.511-0.354c0.188-0.085,0.395-0.127,0.617-0.127c0.208,0,0.412,0.042,0.607,0.127
		c0.197,0.085,0.37,0.202,0.52,0.354c0.15,0.15,0.268,0.323,0.353,0.52c0.085,0.195,0.128,0.398,0.128,0.608
		c0,0.222-0.043,0.428-0.128,0.617c-0.085,0.19-0.203,0.36-0.353,0.51s-0.323,0.268-0.52,0.353
		c-0.195,0.085-0.399,0.127-0.607,0.127c-0.223,0-0.429-0.042-0.617-0.127c-0.19-0.085-0.36-0.203-0.511-0.353
		c-0.15-0.15-0.268-0.32-0.353-0.51C64.289,15.193,64.247,14.987,64.247,14.765z"/>
	
		<linearGradient id="SVGID_5_" gradientUnits="userSpaceOnUse" x1="-208.6763" y1="147.4004" x2="-208.6763" y2="165.5001" gradientTransform="matrix(1 0 0 -1 287.7002 175.4551)">
		<stop  offset="0.069" style="stop-color:#FFCB21"/>
		<stop  offset="0.1256" style="stop-color:#FFC028"/>
		<stop  offset="0.2239" style="stop-color:#FFA43B"/>
		<stop  offset="0.352" style="stop-color:#FF765B"/>
		<stop  offset="0.5032" style="stop-color:#FF3785"/>
		<stop  offset="0.6239" style="stop-color:#FF00AB"/>
		<stop  offset="1" style="stop-color:#6E9AFF"/>
	</linearGradient>
	<path fill="url(#SVGID_5_)" d="M80.208,11.981c-0.222-0.157-0.457-0.235-0.705-0.235c-0.223,0-0.404,0.072-0.549,0.215
		c-0.145,0.144-0.216,0.328-0.216,0.549c0,0.222,0.071,0.408,0.216,0.559s0.326,0.226,0.549,0.226h1.06
		c0.21,0,0.366,0.065,0.472,0.196c0.104,0.13,0.156,0.261,0.156,0.392c0,0.156-0.053,0.297-0.156,0.421
		c-0.104,0.124-0.262,0.186-0.472,0.186h-3.099c-0.184,0-0.33-0.063-0.44-0.186c-0.11-0.124-0.166-0.265-0.166-0.421
		c0-0.131,0.056-0.262,0.166-0.392c0.11-0.131,0.259-0.196,0.44-0.196h0.334c-0.117-0.144-0.189-0.294-0.215-0.451
		c-0.027-0.157-0.039-0.287-0.039-0.392c0-0.536,0.185-0.98,0.559-1.333c0.372-0.353,0.833-0.529,1.382-0.529
		c0.261,0,0.517,0.046,0.765,0.137c0.248,0.092,0.465,0.229,0.646,0.412c0.131,0.131,0.195,0.269,0.195,0.413
		c0,0.184-0.059,0.32-0.176,0.411c-0.117,0.092-0.248,0.137-0.393,0.137C80.405,12.099,80.301,12.06,80.208,11.981z"/>
	<g>
		
			<linearGradient id="SVGID_6_" gradientUnits="userSpaceOnUse" x1="-211.2778" y1="147.3994" x2="-211.2778" y2="165.501" gradientTransform="matrix(1 0 0 -1 287.7002 175.4551)">
			<stop  offset="0.069" style="stop-color:#FFCB21"/>
			<stop  offset="0.1256" style="stop-color:#FFC028"/>
			<stop  offset="0.2239" style="stop-color:#FFA43B"/>
			<stop  offset="0.352" style="stop-color:#FF765B"/>
			<stop  offset="0.5032" style="stop-color:#FF3785"/>
			<stop  offset="0.6239" style="stop-color:#FF00AB"/>
			<stop  offset="1" style="stop-color:#6E9AFF"/>
		</linearGradient>
		<path fill="url(#SVGID_6_)" d="M78.982,19.607l1.036-2.787c0.27-0.724-0.249-1.518-1.021-1.527c-0.004,0-0.01,0-0.015,0
			c-0.635,0-1.106,0.417-1.288,0.852l-4.895,11.417c-0.18,0.437,0.201,0.637,0.527,0.637h1.576c0.398,0,0.725-0.182,0.889-0.563
			c0.271-0.652,0.543-1.268,0.797-1.884l0.979-2.411C78.058,22.127,78.512,20.931,78.982,19.607z"/>
	</g>
	
		<linearGradient id="SVGID_7_" gradientUnits="userSpaceOnUse" x1="-223.1328" y1="147.3994" x2="-223.1328" y2="165.5015" gradientTransform="matrix(1 0 0 -1 287.7002 175.4551)">
		<stop  offset="0.069" style="stop-color:#FFCB21"/>
		<stop  offset="0.1256" style="stop-color:#FFC028"/>
		<stop  offset="0.2239" style="stop-color:#FFA43B"/>
		<stop  offset="0.352" style="stop-color:#FF765B"/>
		<stop  offset="0.5032" style="stop-color:#FF3785"/>
		<stop  offset="0.6239" style="stop-color:#FF00AB"/>
		<stop  offset="1" style="stop-color:#6E9AFF"/>
	</linearGradient>
	<path fill="url(#SVGID_7_)" d="M71.115,16.961c0-0.797-0.67-1.45-1.468-1.45c-0.797,0-1.45,0.653-1.45,1.45l0.054,5.991
		L60.52,12.821l0.003,0.006c-0.417-0.634-1.269-0.811-1.903-0.395c-0.634,0.417-0.811,1.269-0.394,1.903l2.016,2.662l2.845,3.716
		l5.202,6.85c0.417,0.545,0.744,0.637,1.088,0.637h1.178c0.362,0,0.58-0.272,0.58-0.58L71.115,16.961z"/>
</g>
<path fill="#1C5C8C" d="M115.774,13.881c9.209,0,16.674,5.802,16.674,15.01c0,9.208-5.796,17.869-16.674,17.869
	c-9.911,0-16.671-8.735-16.671-17.944C99.103,19.608,106.568,13.881,115.774,13.881z"/>
<circle fill="#1876F0" cx="115.774" cy="28.352" r="16.672"/>
<path fill="#FEFEFE" d="M117.652,42.748v-5.443h0.031c0-1.131,0-2.262,0-3.395c0-0.589,0.005-1.182-0.004-1.772
	c-0.004-0.119,0.022-0.165,0.149-0.159c0.189,0.016,0.375,0.005,0.561,0.005c0.904,0,1.807,0,2.71,0
	c0.071,0,0.124,0.013,0.141-0.105c0.032-0.257,0.075-0.514,0.114-0.771c0.081-0.543,0.176-1.087,0.261-1.629
	c0.091-0.578,0.177-1.153,0.267-1.733c0.018-0.112,0-0.169-0.148-0.169c-1.296,0.007-2.589,0.001-3.889,0.007
	c-0.142,0-0.165-0.045-0.164-0.172c0.008-0.871-0.005-1.744,0.011-2.615c0.002-0.317,0.039-0.638,0.143-0.941
	c0.207-0.62,0.616-1.042,1.229-1.266c0.401-0.146,0.821-0.18,1.244-0.183c0.459-0.002,0.918,0,1.375-0.001
	c0.123-0.001,0.279,0.052,0.356-0.021c0.076-0.078,0.021-0.236,0.021-0.357c0.001-1.078,0-2.159,0-3.239
	c0-0.069,0.02-0.124-0.101-0.145c-0.522-0.086-1.044-0.143-1.57-0.195c-0.499-0.05-1.001-0.07-1.504-0.09
	c-0.342-0.014-0.682,0.028-1.021,0.056c-0.577,0.044-1.132,0.177-1.67,0.385c-1.104,0.428-1.945,1.162-2.518,2.198
	c-0.44,0.792-0.643,1.661-0.716,2.556c-0.03,0.365-0.041,0.735-0.039,1.104c0.009,0.921,0.001,1.843,0.007,2.763
	c0,0.127-0.022,0.164-0.159,0.164c-1.175-0.006-2.354,0-3.53-0.006c-0.137-0.001-0.157,0.037-0.157,0.161
	c0.006,1.367,0.006,2.731,0,4.096c0,0.121,0.027,0.158,0.152,0.154c1.162-0.009,2.326-0.006,3.487-0.006
	c0.205,0,0.205,0,0.205,0.199c0,1.708,0,3.418,0,5.124c0,1.695,0,3.384,0,5.077v0.094c0.001,0.003,0.001,0.006,0.001,0.01
	c0.001,0.015,0.001,0.024-0.001,0.036v0.227C114.5,42.748,116.075,42.748,117.652,42.748z"/>
</svg>
