<?xml version="1.0" encoding="utf-8"?>
<!-- Generator: Adobe Illustrator 16.0.0, SVG Export Plug-In . SVG Version: 6.00 Build 0)  -->
<!DOCTYPE svg PUBLIC "-//W3C//DTD SVG 1.1//EN" "http://www.w3.org/Graphics/SVG/1.1/DTD/svg11.dtd">
<svg version="1.1" id="Calque_1" xmlns="http://www.w3.org/2000/svg" xmlns:xlink="http://www.w3.org/1999/xlink" x="0px" y="0px"
	 width="104px" height="32px" viewBox="0 0 104 32" enable-background="new 0 0 104 32" xml:space="preserve">
<g>
	<path fill="#CDCDCD" d="M20.599,17.895v5.896c0,2.535-3.94,3.91-8.736,3.91c-6.658,0-11.026-4.582-11.026-10.875
		c0-6.261,4.032-10.813,10.997-10.813c3.787,0,6.109,1.405,7.421,3.024c0.397,0.487,0.612,0.978,0.612,1.466
		c0,1.252-1.009,2.138-2.139,2.138c-0.519,0-0.978-0.214-1.344-0.458c-1.375-0.918-2.292-1.894-4.612-1.894
		c-3.879,0-6.078,2.749-6.078,6.565c0,3.818,2.535,6.568,6.719,6.568c1.894,0,2.658-0.213,3.269-0.488v-2.869l-2.321-0.03
		c-1.313-0.032-2.353-0.949-2.353-2.293c0-1.313,1.039-2.26,2.353-2.26l4.734,0.031C19.469,15.511,20.599,16.305,20.599,17.895z"/>
	<path fill="#CDCDCD" d="M21.775,19.299c0-4.612,3.727-8.339,8.339-8.339c4.612,0,8.339,3.727,8.339,8.339
		c0,4.676-3.727,8.4-8.339,8.4C25.502,27.699,21.775,23.975,21.775,19.299z M34.207,19.299c0-2.261-1.802-4.063-4.093-4.063
		c-2.229,0-4.093,1.802-4.093,4.063c0,2.321,1.864,4.124,4.093,4.124C32.404,23.423,34.207,21.62,34.207,19.299z"/>
	<path fill="#CDCDCD" d="M39.463,6.501c0-1.222,0.979-2.2,2.168-2.2c1.221,0,2.2,0.979,2.2,2.2v19.7
		c0,0.794-0.396,1.191-1.161,1.191h-2.016c-0.795,0-1.191-0.397-1.191-1.191V6.501z"/>
	<path fill="#CDCDCD" d="M61.553,6.439v12.616c0,4.948-3.758,8.645-8.371,8.645c-4.612,0-8.335-3.727-8.335-8.4
		c0-4.612,3.726-8.338,8.335-8.338c1.467,0,2.813,0.428,4.002,1.345V6.439c0-1.282,0.979-2.139,2.17-2.139
		C60.574,4.301,61.553,5.156,61.553,6.439z M57.184,19.299c0-2.261-1.863-4.063-4.092-4.063c-2.292,0-4.093,1.802-4.093,4.063
		c0,2.321,1.802,4.124,4.093,4.124C55.32,23.423,57.184,21.62,57.184,19.299z"/>
</g>
<g>
	<path fill="#2A84C6" d="M89.498,11.186c1.254,0.051,2.246,1.102,2.057,2.489c-0.158,1.152-0.391,2.294-0.592,3.439
		c-0.084,0.479-0.154,0.964-0.268,1.437c-0.324,1.366-1.623,2.379-3.023,2.379c-2.1,0.002-4.201,0.002-6.301,0
		c-0.129,0-0.184,0.021-0.209,0.166c-0.271,1.581-0.553,3.161-0.832,4.738c-0.113,0.625-0.188,1.258-0.346,1.872
		c-0.344,1.349-1.625,2.33-3.012,2.33c-1.359,0-2.72,0.013-4.08-0.004c-0.898-0.011-1.627-0.378-2.105-1.159
		c-0.352-0.571-0.42-1.201-0.307-1.854c0.319-1.826,0.643-3.654,0.963-5.482c0.045-0.243,0.102-0.48,0.117-0.729
		c0.006-0.007,0.014-0.015,0.018-0.021c0.082-0.046,0.174-0.029,0.264-0.029c2.193-0.002,4.389-0.004,6.582-0.002
		c0.773,0.002,1.416-0.31,1.98-0.807c0.619-0.548,0.947-1.242,1.086-2.058c0.367-2.174,0.762-4.343,1.143-6.514
		c0.016-0.079,0.008-0.175,0.115-0.202c2.191-0.001,4.385-0.001,6.576,0C89.383,11.177,89.441,11.169,89.498,11.186z"/>
	<path fill="#38C3F3" d="M89.498,11.186c-0.059,0.002-0.115,0.005-0.172,0.005c-2.203,0.002-4.406,0.002-6.605,0.002
		c-0.051,0.019-0.104,0.016-0.156,0.016c-2.174-0.002-4.35-0.003-6.522,0c-1.571,0.002-2.935,1.161-3.205,2.707
		c-0.387,2.214-0.778,4.427-1.168,6.643c-0.017,0.086-0.021,0.178-0.09,0.246c-0.004,0.004-0.011,0.004-0.019,0.006
		c-2.227,0-4.453,0.008-6.678-0.002c-1.377-0.007-2.363-1.168-2.145-2.524c0.213-1.312,0.451-2.623,0.684-3.932
		c0.072-0.407,0.117-0.819,0.262-1.213c0.424-1.158,1.646-2.089,2.974-2.076c2.09,0.019,4.18,0.003,6.271,0.008
		c0.125,0,0.178-0.021,0.198-0.16c0.265-1.529,0.533-3.057,0.81-4.584c0.121-0.68,0.205-1.369,0.375-2.04
		c0.336-1.335,1.625-2.324,3-2.324c1.358-0.001,2.719-0.005,4.08,0.002c0.612,0.003,1.17,0.185,1.637,0.593
		c0.664,0.583,0.936,1.34,0.811,2.193c-0.219,1.456-0.5,2.902-0.752,4.353c-0.113,0.642-0.219,1.281-0.34,1.922
		c-0.023,0.128,0.006,0.16,0.125,0.146c0.031-0.004,0.062,0,0.094,0c2.086,0,4.17-0.001,6.256,0
		C89.311,11.166,89.406,11.149,89.498,11.186z"/>
	<path fill="#09A9E7" d="M71.578,20.802c0.174-0.976,0.348-1.948,0.518-2.925c0.154-0.874,0.289-1.75,0.455-2.622
		c0.119-0.628,0.166-1.275,0.379-1.885c0.281-0.799,0.818-1.392,1.551-1.808c0.521-0.293,1.082-0.404,1.677-0.402
		c2.114,0.003,4.231,0.001,6.35,0.001c0.072,0,0.147-0.016,0.216,0.031c-0.084,0.456-0.166,0.912-0.248,1.37
		c-0.101,0.57-0.199,1.141-0.3,1.71c-0.133,0.754-0.254,1.513-0.399,2.266c-0.133,0.688-0.17,1.405-0.41,2.069
		c-0.414,1.145-1.246,1.85-2.418,2.153c-0.131,0.032-0.266,0.044-0.404,0.044C76.219,20.802,73.9,20.802,71.578,20.802z"/>
	<path fill="#FEFEFE" d="M66.816,13.423c0.283,0.016,0.633-0.036,0.977,0.022c0.543,0.093,0.873,0.425,0.934,0.97
		c0.094,0.813-0.373,1.763-1.313,2.003c-0.317,0.081-0.644,0.048-0.966,0.044c-0.145-0.001-0.198,0.035-0.221,0.185
		c-0.047,0.349-0.119,0.693-0.176,1.041c-0.016,0.096-0.047,0.14-0.154,0.135c-0.276-0.01-0.553-0.006-0.83,0
		c-0.104,0.001-0.114-0.032-0.098-0.125c0.244-1.383,0.486-2.766,0.729-4.15c0.017-0.092,0.052-0.127,0.148-0.124
		C66.148,13.428,66.449,13.423,66.816,13.423z"/>
	<path fill="#FEFEFE" d="M70.232,17.818c-0.437,0-0.871-0.004-1.308,0.002c-0.112,0.002-0.133-0.024-0.112-0.139
		c0.246-1.375,0.485-2.75,0.725-4.125c0.018-0.094,0.045-0.141,0.154-0.136c0.277,0.008,0.553,0.006,0.83,0
		c0.096-0.002,0.117,0.017,0.1,0.118c-0.178,0.977-0.346,1.954-0.518,2.93c-0.006,0.036-0.01,0.071-0.017,0.106
		c-0.019,0.102-0.08,0.237-0.037,0.294c0.06,0.072,0.201,0.023,0.308,0.025c0.438,0.002,0.881,0.006,1.32-0.002
		c0.127-0.002,0.145,0.037,0.12,0.147c-0.045,0.206-0.079,0.413-0.108,0.62c-0.017,0.115-0.056,0.162-0.183,0.158
		C71.082,17.814,70.658,17.818,70.232,17.818z"/>
	<path fill="#FEFEFE" d="M73.961,13.423c-0.16,0.909-0.316,1.8-0.471,2.692c-0.016,0.085-0.027,0.173-0.025,0.26
		c0.004,0.254,0.139,0.424,0.385,0.49c0.578,0.156,1.06-0.159,1.16-0.748c0.145-0.856,0.303-1.713,0.449-2.569
		c0.016-0.093,0.043-0.129,0.141-0.126c0.281,0.006,0.564,0.006,0.848,0c0.095-0.002,0.109,0.03,0.095,0.116
		c-0.164,0.91-0.315,1.824-0.487,2.731c-0.154,0.815-0.859,1.456-1.703,1.579c-0.359,0.055-0.715,0.049-1.063-0.063
		c-0.644-0.207-1.015-0.789-0.904-1.455c0.15-0.934,0.32-1.863,0.482-2.796c0.012-0.063,0.021-0.113,0.108-0.113
		C73.295,13.428,73.617,13.423,73.961,13.423z"/>
	<path fill="#FEFEFE" d="M77.943,17.882c-0.521-0.009-0.986-0.155-1.377-0.514c-0.082-0.073-0.104-0.127-0.017-0.22
		c0.188-0.196,0.363-0.404,0.537-0.613c0.062-0.073,0.095-0.09,0.175-0.018c0.217,0.196,0.471,0.328,0.764,0.366
		c0.156,0.021,0.307,0.007,0.445-0.071c0.248-0.143,0.26-0.382,0.02-0.53c-0.133-0.084-0.279-0.147-0.422-0.214
		c-0.205-0.096-0.412-0.187-0.598-0.315c-0.437-0.306-0.576-0.711-0.416-1.221c0.137-0.44,0.426-0.756,0.834-0.954
		c0.592-0.288,1.192-0.287,1.799-0.032c0.133,0.056,0.248,0.138,0.358,0.23c0.07,0.06,0.07,0.106,0.017,0.179
		c-0.164,0.229-0.324,0.46-0.48,0.693c-0.051,0.076-0.084,0.073-0.152,0.019c-0.289-0.225-0.604-0.362-0.979-0.292
		c-0.084,0.017-0.158,0.048-0.226,0.1c-0.188,0.146-0.188,0.341,0.014,0.479c0.16,0.112,0.349,0.173,0.525,0.25
		c0.182,0.082,0.365,0.16,0.529,0.276c0.416,0.286,0.561,0.659,0.424,1.146c-0.195,0.698-0.686,1.078-1.377,1.224
		C78.211,17.874,78.078,17.891,77.943,17.882z"/>
	<path fill="#38C3F3" d="M66.764,15.546c-0.338,0-0.338,0-0.275-0.343c0.046-0.245,0.091-0.492,0.128-0.741
		c0.012-0.089,0.045-0.121,0.137-0.116c0.158,0.006,0.315-0.003,0.476,0.005c0.248,0.01,0.395,0.163,0.403,0.412
		C67.65,15.269,67.344,15.546,66.764,15.546z"/>
</g>
</svg>
