<?xml version="1.0" encoding="utf-8"?>
<!-- Generator: Adobe Illustrator 16.0.0, SVG Export Plug-In . SVG Version: 6.00 Build 0)  -->
<!DOCTYPE svg PUBLIC "-//W3C//DTD SVG 1.1//EN" "http://www.w3.org/Graphics/SVG/1.1/DTD/svg11.dtd">
<svg version="1.1" id="Calque_1" xmlns="http://www.w3.org/2000/svg" xmlns:xlink="http://www.w3.org/1999/xlink" x="0px" y="0px"
	 width="14px" height="21px" viewBox="0 0 14 21" enable-background="new 0 0 14 21" xml:space="preserve">
<g>
	<path fill="#171717" d="M4.4,13.807V12.8c0-0.871,0.186-1.628,0.559-2.272C5.33,9.884,6.011,9.198,7,8.473
		c0.952-0.681,1.581-1.233,1.885-1.66s0.456-0.903,0.456-1.429c0-0.59-0.218-1.039-0.653-1.348S7.644,3.573,6.864,3.573
		c-1.361,0-2.913,0.444-4.654,1.334l-1.483-2.98c2.022-1.134,4.168-1.701,6.437-1.701c1.869,0,3.354,0.449,4.457,1.348
		c1.103,0.897,1.653,2.096,1.653,3.593c0,0.998-0.227,1.859-0.681,2.585c-0.453,0.727-1.315,1.543-2.585,2.45
		c-0.871,0.644-1.423,1.134-1.654,1.469c-0.23,0.336-0.347,0.776-0.347,1.32v0.816H4.4z M3.965,18.461
		c0-0.762,0.204-1.338,0.612-1.729c0.408-0.39,1.003-0.585,1.783-0.585c0.753,0,1.336,0.2,1.749,0.599
		c0.412,0.399,0.619,0.972,0.619,1.715c0,0.717-0.209,1.282-0.626,1.694c-0.418,0.413-0.998,0.619-1.742,0.619
		c-0.762,0-1.353-0.202-1.77-0.605S3.965,19.196,3.965,18.461z"/>
</g>
</svg>
