<?xml version="1.0" encoding="utf-8"?>
<!-- Generator: Adobe Illustrator 21.0.0, SVG Export Plug-In . SVG Version: 6.00 Build 0)  -->
<svg version="1.1" id="Calque_1" xmlns="http://www.w3.org/2000/svg" xmlns:xlink="http://www.w3.org/1999/xlink" x="0px" y="0px"
	 viewBox="0 0 27 20.1" style="enable-background:new 0 0 27 20.1;" xml:space="preserve">
<style type="text/css">
	.st0{fill:#FFFFFF;}
</style>
<path class="st0" d="M6.5,10l0.8-3.1L8.2,10H6.5z M13.2,16.3l-0.1-0.4L9,3.4L8.9,3C8.7,2.4,8.1,2,7.4,2C6.7,2,6.1,2.4,5.8,3L5.7,3.4
	l-4,12.6l-0.1,0.4l0,0.3C1.6,17.3,2.2,18,3,18c0.6,0,1.1-0.4,1.3-0.9L4.4,17l1.5-4.1h3l1.5,4.1l0.1,0.2c0.2,0.5,0.7,0.9,1.3,0.9
	c0.8,0,1.4-0.6,1.4-1.4L13.2,16.3"/>
<path class="st0" d="M22,9c-0.5,0.4-1.2,0.6-2,0.6h-2.2v-5H20c0.8,0,1.4,0.2,2,0.6c0.5,0.4,0.8,1,0.8,1.9C22.8,8,22.5,8.6,22,9
	 M24.8,11.9c-0.2-0.2-0.4-0.4-0.6-0.6c-0.2-0.1-0.4-0.2-0.6-0.3c0.6-0.3,1-0.8,1.4-1.6c0.3-0.7,0.5-1.5,0.5-2.3
	c0-0.8-0.1-1.6-0.4-2.2c-0.3-0.6-0.6-1.2-1.1-1.6c-0.5-0.4-1-0.8-1.7-1C21.5,2.1,20.8,2,20,2h-3.5h-0.2c-0.7,0-1.3,0.6-1.3,1.3v0.3
	v13c0,0.8,0.6,1.4,1.4,1.4c0.8,0,1.4-0.6,1.4-1.4v-4.3h2.3c0.3,0,0.6,0,0.9,0.1c0.3,0.1,0.6,0.2,0.8,0.3c0.2,0.2,0.4,0.4,0.6,0.6
	c0.1,0.3,0.2,0.6,0.2,1v2.1v0.1c0,0.8,0.7,1.4,1.4,1.4c0.7,0,1.3-0.5,1.4-1.2v-0.5v-2c0-0.6,0-1.1-0.2-1.5
	C25.1,12.4,25,12.1,24.8,11.9"/>
</svg>
