<?xml version="1.0" encoding="utf-8"?>
<!-- Generator: Adobe Illustrator 21.0.0, SVG Export Plug-In . SVG Version: 6.00 Build 0)  -->
<svg version="1.1" id="Calque_1" xmlns="http://www.w3.org/2000/svg" xmlns:xlink="http://www.w3.org/1999/xlink" x="0px" y="0px"
	 viewBox="0 0 364 250" style="enable-background:new 0 0 364 250;" xml:space="preserve">
<style type="text/css">
	.st0{fill:#FFFFFF;}
</style>
<path class="st0" d="M156.8,20.6H49.1c-10.4,0-18.8,8.4-18.8,18.8v172.7c0,10.4,8.4,18.8,18.8,18.8s18.8-8.5,18.8-18.8v-54.6h69.8
	c10.1,0,18.3-8.1,18.8-18.1v-1.6c-0.4-9.3-7.5-16.8-16.5-18h-4.6H67.9V58.2h89c10.4,0,18.8-8.5,18.8-18.8S167.2,20.6,156.8,20.6"/>
<path class="st0" d="M325.9,150.1c-2.4-3.2-5.1-5.7-7.9-7.3c-2.9-1.7-5.6-3.1-8-4.1c7.8-4.2,13.8-11,17.9-20.4s6.2-19.6,6.2-30.6
	c0-10.8-1.7-20.4-5.1-28.7s-8.2-15.3-14.4-20.9c-6.2-5.6-13.8-9.9-22.7-12.8c-8.9-2.9-18.8-4.5-29.6-4.7h-46.1h-2.6
	c-9.2,0.6-16.5,7.8-17.4,16.8v3.9v170.8c0,10.4,8.4,18.8,18.8,18.8c10.4,0,18.8-8.5,18.8-18.8v-56.6H264c4,0,7.9,0.4,11.8,1.3
	c3.9,0.9,7.4,2.4,10.4,4.5s5.4,4.9,7.3,8.4s2.9,7.9,2.9,13.3v28.1v1.7c0.5,10,8.7,18,18.8,18c9.3,0,17-6.7,18.5-15.5v-6.6V183
	c0.2-8.2-0.4-14.9-2-20.3C330.2,157.6,328.3,153.3,325.9,150.1 M289.4,112.5c-6.3,5.2-15.3,7.9-26.9,8.1h-28.8V54.8h28.8
	c10.2,0,18.8,2.6,25.8,7.8s10.5,13.4,10.5,24.7C298.8,98.9,295.7,107.3,289.4,112.5"/>
</svg>
