<?xml version="1.0" encoding="utf-8"?>
<!-- Generator: Adobe Illustrator 16.0.0, SVG Export Plug-In . SVG Version: 6.00 Build 0)  -->
<!DOCTYPE svg PUBLIC "-//W3C//DTD SVG 1.1//EN" "http://www.w3.org/Graphics/SVG/1.1/DTD/svg11.dtd">
<svg version="1.1" id="Calque_1" xmlns="http://www.w3.org/2000/svg" xmlns:xlink="http://www.w3.org/1999/xlink" x="0px" y="0px"
	 width="21.25px" height="19px" viewBox="0 0 21.25 19" enable-background="new 0 0 21.25 19" xml:space="preserve">
<path fill-rule="evenodd" clip-rule="evenodd" fill="#ED1C24" d="M8.594,0.182c1.069,0,2.137,0,3.207,0
	c0.058,0.011,0.116,0.001,0.175,0.004c0.035,0,0.071,0,0.106,0c0.21,0.001,0.421,0.004,0.63,0.023
	c0.244,0.021,0.486,0.059,0.728,0.103c0.369,0.067,0.731,0.159,1.087,0.276c0.271,0.089,0.538,0.193,0.798,0.314
	c0.367,0.171,0.723,0.366,1.058,0.596c0.226,0.155,0.44,0.321,0.646,0.501c0.122,0.106,0.24,0.215,0.354,0.33
	c0.387,0.392,0.729,0.821,1.013,1.295c0.278,0.462,0.505,0.948,0.678,1.458c0.171,0.503,0.291,1.018,0.365,1.543
	c0.036,0.262,0.062,0.525,0.066,0.791c0.008,0.338,0.008,0.676,0.008,1.015c0,0.948,0.001,1.894-0.002,2.843
	c0,0.24,0,0.482-0.021,0.723c-0.023,0.276-0.063,0.551-0.113,0.825c-0.078,0.428-0.19,0.849-0.336,1.259
	c-0.129,0.36-0.282,0.709-0.465,1.046c-0.185,0.34-0.393,0.666-0.632,0.972c-0.143,0.183-0.292,0.362-0.455,0.528
	c-0.078,0.079-0.157,0.158-0.236,0.237c-0.225,0.218-0.467,0.414-0.718,0.598c-0.225,0.163-0.457,0.313-0.699,0.446
	c-0.251,0.138-0.506,0.264-0.771,0.372c-0.362,0.148-0.733,0.271-1.113,0.367c-0.339,0.084-0.684,0.145-1.03,0.188
	c-0.212,0.027-0.425,0.037-0.639,0.042c-0.053,0.002-0.107,0.004-0.163,0.004c-0.037,0-0.075,0-0.114,0
	c-0.056,0.003-0.111-0.005-0.167,0.005c-1.094,0-2.188,0-3.281,0c-0.05-0.012-0.1-0.002-0.149-0.005c-0.033,0-0.066,0-0.1,0
	c-0.026,0-0.053,0-0.08,0c-0.373-0.002-0.745-0.031-1.114-0.091c-0.516-0.084-1.021-0.209-1.515-0.384
	c-0.341-0.121-0.672-0.267-0.992-0.437c-0.329-0.176-0.644-0.375-0.941-0.601c-0.173-0.131-0.34-0.271-0.5-0.418
	c-0.397-0.365-0.746-0.771-1.046-1.221c-0.137-0.205-0.262-0.417-0.377-0.636c-0.201-0.379-0.363-0.773-0.493-1.181
	c-0.137-0.43-0.237-0.868-0.303-1.313c-0.042-0.279-0.068-0.56-0.069-0.841c-0.001-0.05-0.004-0.1-0.004-0.148
	c0-0.024,0-0.049,0-0.071c0-0.03,0-0.061,0-0.092c-0.002-0.056,0.006-0.112-0.004-0.167c0-1.209,0-2.417,0-3.626
	C0.879,7.619,0.87,7.582,0.873,7.544c0-0.031,0-0.063,0-0.095c0-0.424,0.041-0.843,0.119-1.26c0.076-0.406,0.177-0.807,0.312-1.197
	C1.391,4.735,1.494,4.483,1.61,4.237c0.165-0.349,0.357-0.681,0.576-0.999c0.152-0.22,0.317-0.429,0.495-0.629
	c0.111-0.125,0.227-0.246,0.347-0.363c0.185-0.182,0.382-0.35,0.587-0.509C3.892,1.522,4.184,1.331,4.49,1.162
	C4.75,1.018,5.017,0.89,5.292,0.778C5.647,0.635,6.01,0.517,6.381,0.426c0.344-0.085,0.692-0.147,1.043-0.193
	C7.643,0.206,7.862,0.194,8.082,0.19c0.053-0.001,0.105-0.004,0.158-0.004c0.044,0,0.087,0,0.131,0c0.039,0,0.078,0,0.118,0
	C8.523,0.184,8.559,0.192,8.594,0.182z"/>
<path fill-rule="evenodd" clip-rule="evenodd" fill="#8A86F5" d="M11.979,0.19c-0.06-0.002-0.119,0.01-0.178-0.009
	c0.059,0,0.117,0,0.176,0C11.983,0.184,11.984,0.186,11.979,0.19z"/>
<path fill-rule="evenodd" clip-rule="evenodd" fill="#8480F5" d="M0.868,11.282c0.019,0.055,0.006,0.111,0.009,0.169
	c-0.004,0.005-0.007,0.005-0.009-0.002C0.868,11.394,0.868,11.337,0.868,11.282z"/>
<path fill-rule="evenodd" clip-rule="evenodd" fill="#9491F6" d="M11.838,18.887c0.056-0.018,0.112-0.007,0.169-0.008
	c0.003,0.003,0.004,0.005,0.002,0.006c-0.001,0.001-0.002,0.002-0.004,0.002C11.949,18.887,11.894,18.887,11.838,18.887z"/>
<path fill-rule="evenodd" clip-rule="evenodd" fill="#8986F5" d="M8.407,18.879c0.049,0.001,0.101-0.011,0.15,0.008
	c-0.05,0-0.1,0-0.149,0C8.401,18.885,8.401,18.882,8.407,18.879z"/>
<path fill-rule="evenodd" clip-rule="evenodd" fill="#D2D1FA" d="M8.229,0.189C8.23,0.187,8.23,0.184,8.23,0.182
	c0.047,0,0.094,0,0.14,0c0.006,0.003,0.006,0.006,0,0.008C8.323,0.189,8.277,0.189,8.229,0.189z"/>
<path fill-rule="evenodd" clip-rule="evenodd" fill="#ABA9F8" d="M8.37,0.189c0-0.002,0-0.005,0-0.008c0.041,0,0.081,0,0.121,0
	c0.006,0.003,0.006,0.006,0,0.009C8.451,0.19,8.41,0.189,8.37,0.189z"/>
<path fill-rule="evenodd" clip-rule="evenodd" fill="#CDCBFA" d="M12.005,18.887c0.001-0.003,0.001-0.005,0.002-0.008
	c0.04,0,0.08,0,0.121,0c-0.001,0.003-0.001,0.005-0.001,0.008C12.086,18.887,12.046,18.887,12.005,18.887z"/>
<path fill-rule="evenodd" clip-rule="evenodd" fill="#BEBCF9" d="M11.979,0.19c-0.001-0.003-0.001-0.006-0.002-0.009
	c0.038,0,0.075,0,0.112,0c0,0.002,0.001,0.005,0.001,0.007C12.053,0.189,12.016,0.189,11.979,0.19z"/>
<path fill-rule="evenodd" clip-rule="evenodd" fill="#A6A4F8" d="M0.876,7.543c0.001,0.038,0.008,0.076-0.008,0.113
	c0-0.038,0-0.074,0-0.111C0.87,7.538,0.873,7.537,0.876,7.543z"/>
<path fill-rule="evenodd" clip-rule="evenodd" fill="#8E8BF5" d="M8.491,0.19c0-0.003,0-0.006,0-0.009c0.034,0,0.068,0,0.103,0
	C8.561,0.198,8.525,0.189,8.491,0.19z"/>
<path fill-rule="evenodd" clip-rule="evenodd" fill="#D8D6FB" d="M0.876,7.543c-0.002,0-0.005,0-0.008,0.002
	c0-0.034,0-0.069,0-0.104c0.002,0,0.005,0,0.008,0C0.876,7.475,0.876,7.51,0.876,7.543z"/>
<path fill-rule="evenodd" clip-rule="evenodd" fill="#AFADF8" d="M8.407,18.879c0,0.003,0,0.005,0,0.008c-0.034,0-0.068,0-0.103,0
	c-0.006-0.002-0.007-0.005,0-0.008C8.339,18.879,8.373,18.879,8.407,18.879z"/>
<path fill-rule="evenodd" clip-rule="evenodd" fill="#B1AFF8" d="M0.868,11.449c0.002,0.001,0.005,0.001,0.009,0.002
	c-0.001,0.031-0.001,0.062-0.001,0.092c-0.003,0.007-0.006,0.007-0.008,0C0.868,11.512,0.868,11.48,0.868,11.449z"/>
<path fill-rule="evenodd" clip-rule="evenodd" fill="#DDDCFB" d="M8.305,18.879c0,0.003,0,0.005,0,0.008c-0.028,0-0.056,0-0.083,0
	c0-0.003,0-0.005,0-0.008C8.249,18.879,8.277,18.879,8.305,18.879z"/>
<path fill-rule="evenodd" clip-rule="evenodd" fill="#E0DFFC" d="M0.868,11.543c0.002,0,0.005,0.001,0.008,0c0,0.024,0,0.05,0,0.074
	l-0.003,0.001l-0.004-0.001C0.868,11.592,0.868,11.567,0.868,11.543z"/>
<path fill-rule="evenodd" clip-rule="evenodd" fill="#FEFEFE" d="M13.851,13.174c-0.507-0.004-1.081-0.041-1.655-0.11
	c-1.709-0.208-3.364-0.637-4.965-1.271c-0.896-0.355-1.759-0.777-2.569-1.302c-0.48-0.313-0.937-0.657-1.338-1.067
	C3.042,9.137,2.794,8.826,2.625,8.458C2.539,8.269,2.479,8.072,2.467,7.863c-0.02-0.363,0.1-0.677,0.345-0.944
	c0.215-0.234,0.48-0.396,0.768-0.524C3.967,6.222,4.374,6.12,4.791,6.047c0.033-0.005,0.068-0.016,0.101-0.016
	c0.083,0,0.128-0.044,0.174-0.108C5.86,4.811,6.902,4.032,8.196,3.59c0.433-0.147,0.878-0.243,1.333-0.289
	c1.287-0.129,2.503,0.104,3.643,0.72c0.795,0.429,1.465,1.007,2.012,1.727c0.561,0.739,0.938,1.564,1.134,2.472
	c0.06,0.275,0.101,0.554,0.118,0.835c0.004,0.046,0.019,0.079,0.056,0.111c0.389,0.313,0.744,0.653,1.027,1.064
	c0.165,0.238,0.296,0.491,0.357,0.777c0.108,0.503-0.039,0.926-0.414,1.271c-0.261,0.24-0.571,0.396-0.9,0.517
	c-0.414,0.152-0.846,0.241-1.281,0.298C14.828,13.153,14.376,13.174,13.851,13.174z"/>
<path fill-rule="evenodd" clip-rule="evenodd" fill="#ED1C24" d="M14.007,12.13c-0.531,0-1.061-0.04-1.586-0.105
	c-0.775-0.094-1.542-0.241-2.3-0.429c-1.059-0.261-2.095-0.595-3.1-1.021c-0.689-0.292-1.357-0.626-1.984-1.037
	C5.004,9.517,4.992,9.494,4.992,9.454C5.017,8.189,5.435,7.072,6.26,6.113c0.69-0.802,1.553-1.339,2.573-1.62
	c0.535-0.148,1.08-0.205,1.633-0.174c1.156,0.066,2.183,0.468,3.072,1.214c0.768,0.645,1.305,1.449,1.611,2.405
	c0.189,0.593,0.265,1.202,0.233,1.826c-0.034,0.715-0.206,1.394-0.522,2.035c-0.046,0.093-0.096,0.183-0.14,0.272
	c-0.017,0.026-0.033,0.037-0.063,0.039C14.44,12.126,14.223,12.129,14.007,12.13z"/>
<path fill-rule="evenodd" clip-rule="evenodd" fill="#ED1C24" d="M3.955,8.856C3.844,8.75,3.75,8.644,3.665,8.532
	C3.546,8.374,3.446,8.207,3.396,8.014C3.314,7.701,3.403,7.442,3.642,7.23c0.198-0.176,0.437-0.274,0.686-0.353
	c0.064-0.021,0.13-0.037,0.208-0.059C4.226,7.47,4.035,8.14,3.955,8.856z"/>
<path fill-rule="evenodd" clip-rule="evenodd" fill="#ED1C24" d="M16.427,10.131c0.099,0.099,0.18,0.197,0.253,0.302
	c0.121,0.17,0.218,0.351,0.25,0.56c0.033,0.233-0.031,0.436-0.189,0.608c-0.173,0.19-0.395,0.299-0.63,0.386
	c-0.054,0.021-0.107,0.04-0.176,0.054C16.198,11.428,16.363,10.799,16.427,10.131z"/>
<path fill-rule="evenodd" clip-rule="evenodd" fill="#FFFFFF" d="M13.969,14.075c-0.032,0-0.067,0.003-0.101,0.004
	c0.004-0.003,0.009-0.004,0.013-0.007c-3.409,0.197-6.237-0.501-8.414-1.973c-0.001-0.002-0.001-0.003-0.002-0.004
	c-0.479-0.271-0.921-0.562-1.308-0.875c-0.002-0.001-0.003-0.003-0.005-0.003c0.51,1.902,2.078,3.758,4.441,4.379
	c2.174,0.569,4.405-0.074,5.923-1.536C14.333,14.064,14.153,14.075,13.969,14.075z"/>
</svg>
