<svg xmlns="http://www.w3.org/2000/svg" width="23.866" height="23.86" viewBox="0 0 23.866 23.86"><defs><style>.cls-1{fill:#0047bb;}</style></defs><g id="Calque_2" data-name="Calque 2"><g id="Calque_1-2" data-name="Calque 1"><path class="cls-1" d="M12.634,23.86h-1.4c-.075-.014-.15-.031-.226-.042-.507-.071-1.021-.108-1.519-.217a11.686,11.686,0,0,1-7.379-4.937A11.554,11.554,0,0,1,.278,9.435,11.525,11.525,0,0,1,4.259,2.818,11.63,11.63,0,0,1,13.147.061a11.461,11.461,0,0,1,6.309,2.625A11.756,11.756,0,0,1,23.68,9.873c.08.449.125.9.186,1.356v1.4c-.019.168-.039.336-.058.5a11.77,11.77,0,0,1-2.637,6.325,11.756,11.756,0,0,1-7.181,4.218C13.541,23.755,13.086,23.8,12.634,23.86ZM7.6,7a19.111,19.111,0,0,0-.584,4.213h4.208V7Zm9.259,4.22a19.906,19.906,0,0,0-.53-4.01c-.04-.165-.091-.226-.268-.224-1.072.009-2.144,0-3.216.005-.066,0-.133.008-.2.013v4.216Zm-5.639,5.645v-4.22H7.013a19.216,19.216,0,0,0,.588,4.22Zm1.431-4.224v4.22h3.622a19.348,19.348,0,0,0,.585-4.22ZM6.084,6.988c.031.009.017,0,0,0-1.11,0-2.219-.006-3.329,0a.271.271,0,0,0-.192.147c-.286.735-.6,1.462-.825,2.216a17.382,17.382,0,0,0-.351,1.862H5.543Zm11.7,0,.54,4.222h4.111a10.3,10.3,0,0,0-1.16-4.128.213.213,0,0,0-.16-.09C19.992,6.986,18.868,6.987,17.786,6.987Zm-11.7,9.882-.543-4.228h-4.1c0,.052,0,.09,0,.128a10.2,10.2,0,0,0,1.134,3.972.308.308,0,0,0,.233.122c.566.01,1.132.006,1.7.006Zm12.243-4.234-.543,4.229c-.03-.006-.007,0,.015,0,1.1,0,2.2,0,3.306-.006a.311.311,0,0,0,.207-.161,9.872,9.872,0,0,0,.962-2.8c.076-.414.119-.834.179-1.262Zm-5.681,5.64v4.086c1.781-.831,2.491-2.435,3.2-4.086ZM11.229,1.54C9.872,1.9,8.554,3.993,8.066,5.574h3.163ZM15.8,5.581c0-.023.011-.04.006-.053a8.324,8.324,0,0,0-2.127-3.4,2.787,2.787,0,0,0-1.031-.6V5.581ZM11.219,22.332V18.277H8.04c.068.174.124.334.19.489a8.187,8.187,0,0,0,1.843,2.852A3.214,3.214,0,0,0,11.219,22.332ZM3.534,5.589h.205c.87,0,1.74-.005,2.609,0a.245.245,0,0,0,.279-.2A11.686,11.686,0,0,1,8.3,2.112c.01-.013.009-.033.02-.074A10.638,10.638,0,0,0,3.534,5.589Zm12.017-3.55a.243.243,0,0,0,.016.066,11.754,11.754,0,0,1,1.689,3.326c.049.143.13.16.258.16.878,0,1.755,0,2.633,0,.049,0,.1-.009.176-.017A10.6,10.6,0,0,0,15.551,2.039ZM3.534,18.267a10.391,10.391,0,0,0,4.779,3.524,12.309,12.309,0,0,1-1.7-3.378c-.045-.132-.123-.149-.243-.148-.877,0-1.755,0-2.632,0Zm16.8,0c-.975,0-1.891,0-2.807-.006-.176,0-.237.068-.289.217A12.6,12.6,0,0,1,16.1,20.965c-.172.279-.361.547-.569.862A10.681,10.681,0,0,0,20.335,18.265Z"/></g></g></svg>