<?xml version="1.0" encoding="utf-8"?>
<!-- Generator: Adobe Illustrator 16.0.0, SVG Export Plug-In . SVG Version: 6.00 Build 0)  -->
<!DOCTYPE svg PUBLIC "-//W3C//DTD SVG 1.1//EN" "http://www.w3.org/Graphics/SVG/1.1/DTD/svg11.dtd">
<svg version="1.1" id="Calque_1" xmlns="http://www.w3.org/2000/svg" xmlns:xlink="http://www.w3.org/1999/xlink" x="0px" y="0px"
	 width="27px" height="33px" viewBox="0 0 27 33" enable-background="new 0 0 27 33" xml:space="preserve">
<g>
	<path fill-rule="evenodd" clip-rule="evenodd" fill="#FFFFFF" d="M23.131,22.276c-0.066,0.16-0.103,0.276-0.159,0.382
		c-0.641,1.208-1.646,1.877-3.013,1.908c-1.512,0.035-3.027,0.004-4.539,0.011c-0.193,0-0.304-0.059-0.393-0.236
		c-0.22-0.435-0.576-0.779-1.053-0.826c-0.688-0.066-1.404-0.111-2.078,0.006c-0.858,0.147-1.37,1.008-1.259,1.862
		c0.111,0.865,0.825,1.486,1.764,1.512c0.461,0.013,0.924-0.022,1.387-0.021c2.009,0.005,4.017,0.024,6.026,0.023
		c2.828-0.001,5.152-1.907,5.731-4.673c0.025-0.124,0.124-0.258,0.229-0.336c0.52-0.387,0.906-0.874,0.974-1.523
		c0.062-0.591,0.06-1.195,0.028-1.789c-0.035-0.678-0.366-1.227-0.916-1.625c-0.169-0.123-0.215-0.254-0.212-0.451
		c0.009-0.778,0.014-1.558,0.002-2.337c-0.038-2.392-0.502-4.688-1.678-6.794c-1.113-1.999-2.638-3.459-5.084-3.597
		c-0.093-0.005-0.21-0.079-0.268-0.156c-0.433-0.586-0.996-1.01-1.642-1.329c-1.404-0.692-2.907-0.875-4.445-0.808
		C9.338,1.617,6.578,2.833,4.228,4.969c-2.375,2.158-3.757,4.862-3.935,8.064c-0.137,2.486-0.094,4.987-0.024,7.479
		c0.046,1.632,0.885,2.877,2.314,3.705c0.125,0.073,0.233,0.201,0.308,0.328c0.438,0.748,0.815,1.537,1.304,2.25
		c1.268,1.849,2.922,3.259,5.038,4.05c2.717,1.016,5.422,0.907,8.057-0.305c0.726-0.334,1.387-0.804,2.081-1.212
		c-0.016-0.037-0.032-0.074-0.048-0.111c-0.074-0.005-0.147-0.014-0.22-0.014c-2.044,0-4.087-0.006-6.13,0.003
		c-2.093,0.008-3.909-0.698-5.452-2.1c-1.268-1.152-2.175-2.554-2.77-4.155c-0.121-0.323-0.287-0.509-0.633-0.604
		c-0.736-0.204-1.274-0.689-1.434-1.438c-0.142-0.673-0.143-1.376-0.212-2.119c0.461,0,0.828,0,1.172,0
		c0.028-0.065,0.043-0.085,0.044-0.106c0.01-0.157,0.016-0.315,0.026-0.473c0.116-1.667,0.844-2.961,2.419-3.61
		c0.898-0.371,1.864-0.6,2.814-0.822c1.567-0.368,3.165-0.62,4.72-1.03c1.461-0.384,2.769-1.121,3.748-2.305
		c0.507-0.611,0.908-1.308,1.361-1.972c-0.019-0.014,0.021,0.007,0.05,0.04c0.114,0.125,0.233,0.248,0.336,0.381
		c1.989,2.557,2.798,5.525,2.969,8.694c0.078,1.43,0.04,2.865,0.056,4.298c0.001,0.119,0.012,0.238,0.02,0.39
		C22.521,22.276,22.799,22.276,23.131,22.276z"/>
	<path fill-rule="evenodd" clip-rule="evenodd" fill="#171717" d="M23.131,22.276c-0.332,0-0.61,0-0.923,0
		c-0.008-0.152-0.019-0.271-0.02-0.39c-0.016-1.433,0.022-2.869-0.056-4.298c-0.171-3.169-0.98-6.138-2.969-8.694
		c-0.103-0.133-0.222-0.256-0.336-0.381c-0.029-0.032-0.069-0.054-0.05-0.04c-0.453,0.664-0.854,1.36-1.361,1.972
		c-0.979,1.184-2.287,1.92-3.748,2.305c-1.555,0.41-3.153,0.663-4.72,1.03c-0.95,0.222-1.916,0.451-2.814,0.822
		c-1.575,0.649-2.303,1.943-2.419,3.61c-0.01,0.157-0.016,0.315-0.026,0.473c-0.001,0.021-0.016,0.041-0.044,0.106
		c-0.344,0-0.711,0-1.172,0c0.069,0.742,0.07,1.446,0.212,2.119c0.159,0.749,0.697,1.234,1.434,1.438
		c0.346,0.096,0.512,0.281,0.633,0.604c0.595,1.601,1.502,3.002,2.77,4.155c1.542,1.402,3.358,2.108,5.452,2.1
		c2.043-0.009,4.086-0.003,6.13-0.003c0.073,0,0.146,0.008,0.22,0.014c0.016,0.037,0.032,0.074,0.048,0.111
		c-0.693,0.408-1.355,0.878-2.081,1.212c-2.635,1.212-5.34,1.321-8.057,0.305c-2.115-0.791-3.77-2.201-5.038-4.05
		c-0.489-0.713-0.866-1.502-1.304-2.25c-0.074-0.127-0.182-0.255-0.308-0.328c-1.429-0.828-2.269-2.073-2.314-3.705
		c-0.07-2.492-0.113-4.993,0.024-7.479c0.178-3.203,1.561-5.906,3.935-8.064c2.351-2.136,5.111-3.352,8.306-3.491
		c1.538-0.067,3.042,0.116,4.445,0.808c0.646,0.318,1.209,0.742,1.642,1.329c0.057,0.078,0.174,0.151,0.268,0.156
		c2.447,0.138,3.971,1.598,5.084,3.597c1.176,2.106,1.64,4.402,1.678,6.794c0.012,0.779,0.007,1.559-0.002,2.337
		c-0.003,0.197,0.043,0.329,0.212,0.451c0.55,0.399,0.881,0.948,0.916,1.625c0.031,0.594,0.033,1.198-0.028,1.789
		c-0.067,0.649-0.454,1.136-0.974,1.523c-0.104,0.078-0.203,0.212-0.229,0.336c-0.579,2.767-2.903,4.672-5.731,4.673
		c-2.009,0-4.017-0.018-6.026-0.023c-0.463-0.001-0.926,0.034-1.387,0.021c-0.938-0.025-1.653-0.647-1.764-1.512
		c-0.111-0.854,0.4-1.714,1.259-1.862c0.674-0.117,1.39-0.072,2.078-0.006c0.477,0.046,0.833,0.391,1.053,0.826
		c0.089,0.178,0.199,0.236,0.393,0.236c1.512-0.007,3.027,0.024,4.539-0.011c1.367-0.031,2.372-0.701,3.013-1.908
		C23.028,22.553,23.064,22.437,23.131,22.276z"/>
</g>
</svg>
