<svg xmlns="http://www.w3.org/2000/svg" width="22.387" height="19.975" viewBox="0 0 22.387 19.975"><g id="Calque_2" data-name="Calque 2"><g id="Calque_1-2" data-name="Calque 1"><path d="M0,4.282c.037-.184.069-.37.111-.553A4.7,4.7,0,0,1,4.741.014q6.447-.028,12.9,0a4.7,4.7,0,0,1,4.685,3.965,4.647,4.647,0,0,1,.062.826q.008,2.961,0,5.922a4.727,4.727,0,0,1-4.015,4.733,5.61,5.61,0,0,1-.87.056c-2.375,0-4.75,0-7.125.006a.739.739,0,0,0-.364.1c-2.291,1.415-4.577,2.839-6.87,4.251a.706.706,0,0,1-.443.1c-.2-.033-.281-.248-.219-.493q.432-1.725.867-3.449c.055-.217.107-.435.165-.666-.131-.043-.25-.075-.363-.12A4.692,4.692,0,0,1,.04,11.379,1.484,1.484,0,0,0,0,11.234ZM3.432,18.8c.117-.068.186-.106.253-.148Q6.7,16.779,9.718,14.913a1.068,1.068,0,0,1,.528-.15c2.412-.01,4.824,0,7.235-.011a4.763,4.763,0,0,0,1.019-.1,3.945,3.945,0,0,0,3.127-3.926c.01-1.982,0-3.963,0-5.945A3.992,3.992,0,0,0,17.579.777q-6.382,0-12.765,0a4.336,4.336,0,0,0-.867.077A3.953,3.953,0,0,0,.759,4.8c-.007,1.981,0,3.963,0,5.945a3.847,3.847,0,0,0,.05.652,3.949,3.949,0,0,0,3.173,3.287c.318.068.426.236.347.55-.109.437-.22.874-.33,1.312C3.816,17.278,3.631,18.01,3.432,18.8Z"/><path d="M11.17,9.169c.337-.838.659-1.64.981-2.443.147-.364.292-.729.439-1.093a.608.608,0,0,1,.8-.388c.257.048.389.249.389.6,0,1.245,0,2.491,0,3.737a.4.4,0,0,1-.193.407.355.355,0,0,1-.509-.364c0-.809,0-1.618,0-2.426V6.4l-.054-.02a1.814,1.814,0,0,0-.112.2q-.62,1.527-1.234,3.054a.528.528,0,0,1-.475.389.511.511,0,0,1-.536-.392q-.615-1.516-1.228-3.034c-.03-.074-.068-.146-.1-.219l-.057.012c0,.076-.011.151-.011.226q0,1.452,0,2.906a.938.938,0,0,1-.017.238.325.325,0,0,1-.376.259.311.311,0,0,1-.3-.313c-.011-.167-.005-.335-.005-.5q0-1.683,0-3.365c0-.339.123-.553.372-.584.388-.048.643-.042.806.367q.66,1.652,1.322,3.3C11.091,8.992,11.125,9.063,11.17,9.169Z"/><path d="M5.927,10.057a3.934,3.934,0,0,1-1.449-.282c-.261-.1-.362-.28-.282-.481s.259-.242.518-.14a2.98,2.98,0,0,0,1.626.2,1.408,1.408,0,0,0,.39-.129.551.551,0,0,0,.3-.54.453.453,0,0,0-.328-.423C6.442,8.16,6.168,8.085,5.9,8c-.311-.1-.63-.183-.929-.312a1.1,1.1,0,0,1-.75-1.031,1.224,1.224,0,0,1,.657-1.175,2.374,2.374,0,0,1,.8-.255,3.374,3.374,0,0,1,1.612.191.319.319,0,0,1,.224.43.309.309,0,0,1-.426.184,2.87,2.87,0,0,0-1.44-.13,1.373,1.373,0,0,0-.446.167.538.538,0,0,0,.051.978,8.872,8.872,0,0,0,.932.3,5.827,5.827,0,0,1,.882.31A1.189,1.189,0,0,1,7.174,9.73,2.085,2.085,0,0,1,5.927,10.057Z"/><path d="M16.433,10.106a5.135,5.135,0,0,1-1.5-.346c-.234-.1-.325-.267-.251-.457s.249-.258.49-.161a2.986,2.986,0,0,0,1.645.211,1.258,1.258,0,0,0,.428-.147.517.517,0,0,0-.041-.939A7.368,7.368,0,0,0,16.4,8c-.311-.1-.629-.183-.929-.309a1.115,1.115,0,0,1-.765-1.044,1.24,1.24,0,0,1,.683-1.183,2.313,2.313,0,0,1,.719-.232,3.4,3.4,0,0,1,1.675.185.318.318,0,0,1,.221.43.31.31,0,0,1-.427.181A2.771,2.771,0,0,0,16.137,5.9a1.336,1.336,0,0,0-.529.233.517.517,0,0,0,.074.877,3.479,3.479,0,0,0,.651.242c.347.108.7.184,1.044.31a1.15,1.15,0,0,1,.838,1.151,1.194,1.194,0,0,1-.838,1.161A7.3,7.3,0,0,1,16.433,10.106Z"/></g></g></svg>