<?xml version="1.0" encoding="utf-8"?>
<!-- Generator: Adobe Illustrator 16.0.0, SVG Export Plug-In . SVG Version: 6.00 Build 0)  -->
<!DOCTYPE svg PUBLIC "-//W3C//DTD SVG 1.1//EN" "http://www.w3.org/Graphics/SVG/1.1/DTD/svg11.dtd">
<svg version="1.1" id="Calque_1" xmlns="http://www.w3.org/2000/svg" xmlns:xlink="http://www.w3.org/1999/xlink" x="0px" y="0px"
	 width="21.25px" height="19px" viewBox="0 0 21.25 19" enable-background="new 0 0 21.25 19" xml:space="preserve">
<path fill="#10893E" d="M8.026,0.23c1.069,0,4.138,0,5.207,0c0.059,0.011,0.116,0.001,0.176,0.004c0.034,0,0.07,0,0.105,0
	c0.21,0.001,0.421,0.004,0.63,0.023c0.244,0.021,0.486,0.059,0.728,0.103c0.369,0.067,0.731,0.159,1.088,0.276
	c0.271,0.089,0.537,0.193,0.798,0.314c0.366,0.171,0.723,0.366,1.058,0.596c0.227,0.155,0.44,0.321,0.646,0.501
	c0.121,0.106,0.24,0.215,0.354,0.33c0.387,0.392,0.729,0.821,1.014,1.295c0.277,0.462,0.504,0.948,0.678,1.458
	c0.171,0.503,0.291,1.018,0.365,1.543c0.035,0.262,0.062,0.525,0.065,0.791c0.009,0.338,0.009,0.676,0.009,1.015
	c0,0.948,0,1.894-0.003,2.843c0,0.24,0,0.482-0.021,0.723c-0.023,0.277-0.063,0.551-0.113,0.826
	c-0.078,0.428-0.189,0.848-0.336,1.258c-0.129,0.361-0.282,0.709-0.465,1.047c-0.186,0.34-0.393,0.666-0.633,0.973
	c-0.143,0.182-0.291,0.361-0.455,0.527c-0.077,0.078-0.156,0.158-0.235,0.236c-0.226,0.219-0.467,0.414-0.718,0.598
	c-0.225,0.164-0.457,0.314-0.699,0.447c-0.251,0.137-0.506,0.264-0.771,0.371c-0.361,0.148-0.732,0.271-1.112,0.367
	c-0.339,0.084-0.685,0.145-1.03,0.188c-0.212,0.027-0.425,0.037-0.639,0.043c-0.053,0.002-0.107,0.004-0.163,0.004
	c-0.037,0-0.075,0-0.114,0c-0.056,0.002-0.111-0.006-0.167,0.004c-1.094,0-4.188,0-5.281,0c-0.05-0.012-0.1-0.002-0.149-0.004
	c-0.033,0-0.066,0-0.1,0c-0.026,0-0.053,0-0.08,0c-0.373-0.002-0.745-0.031-1.114-0.092c-0.516-0.084-1.021-0.209-1.515-0.383
	c-0.341-0.121-0.672-0.268-0.992-0.438c-0.329-0.176-0.644-0.375-0.941-0.602c-0.173-0.131-0.34-0.27-0.5-0.418
	c-0.397-0.365-0.746-0.77-1.046-1.221c-0.137-0.205-0.262-0.416-0.377-0.637c-0.201-0.379-0.363-0.771-0.493-1.18
	c-0.137-0.43-0.237-0.869-0.303-1.313c-0.042-0.279-0.068-0.561-0.069-0.842c-0.001-0.051-0.004-0.1-0.004-0.148
	c0-0.023,0-0.049,0-0.07c0-0.031,0-0.061,0-0.092c-0.002-0.057,0.006-0.113-0.004-0.168c0-1.209,0-2.417,0-3.626
	c0.008-0.035-0.001-0.072,0.002-0.11c0-0.031,0-0.063,0-0.095c0-0.424,0.041-0.843,0.119-1.26C0.5,5.832,0.602,5.43,0.737,5.041
	c0.087-0.257,0.19-0.509,0.306-0.755c0.165-0.349,0.357-0.681,0.576-0.999c0.152-0.22,0.317-0.429,0.495-0.629
	C2.225,2.532,2.341,2.411,2.46,2.294c0.185-0.182,0.382-0.35,0.587-0.509C3.325,1.57,3.617,1.379,3.923,1.21
	c0.26-0.144,0.527-0.272,0.802-0.384C5.08,0.683,5.442,0.565,5.813,0.474c0.344-0.085,0.692-0.147,1.043-0.193
	c0.219-0.027,0.438-0.039,0.658-0.043C7.567,0.237,7.62,0.234,7.673,0.234c0.044,0,0.087,0,0.131,0c0.039,0,0.078,0,0.118,0
	C7.956,0.232,7.992,0.24,8.026,0.23z"/>
<path fill="#8A86F5" d="M11.979,0.19c-0.06-0.002-0.119,0.01-0.178-0.009c0.059,0,0.117,0,0.176,0
	C11.982,0.184,11.984,0.186,11.979,0.19z"/>
<path fill="#8480F5" d="M-1.132,11.282c0.019,0.055,0.006,0.11,0.009,0.169c-0.004,0.005-0.007,0.005-0.009-0.002
	C-1.132,11.395-1.132,11.337-1.132,11.282z"/>
<path fill="#9491F6" d="M11.838,18.887c0.057-0.018,0.112-0.007,0.169-0.008c0.003,0.003,0.004,0.005,0.002,0.006
	c-0.001,0.001-0.002,0.002-0.004,0.002C11.949,18.887,11.895,18.887,11.838,18.887z"/>
<path fill="#8986F5" d="M6.407,18.879c0.049,0.001,0.101-0.011,0.15,0.008c-0.05,0-0.1,0-0.149,0
	C6.401,18.885,6.401,18.882,6.407,18.879z"/>
<path fill="#D2D1FA" d="M6.229,0.189C6.23,0.187,6.23,0.184,6.23,0.182c0.047,0,0.094,0,0.14,0c0.006,0.003,0.006,0.006,0,0.008
	C6.323,0.189,6.277,0.189,6.229,0.189z"/>
<path fill="#ABA9F8" d="M6.37,0.189c0-0.002,0-0.005,0-0.008c0.041,0,0.081,0,0.121,0c0.006,0.003,0.006,0.006,0,0.009
	C6.451,0.19,6.41,0.189,6.37,0.189z"/>
<path fill="#CDCBFA" d="M12.005,18.887c0.001-0.003,0.001-0.005,0.002-0.008c0.04,0,0.08,0,0.121,0
	c-0.001,0.003-0.001,0.005-0.001,0.008C12.086,18.887,12.046,18.887,12.005,18.887z"/>
<path fill="#BEBCF9" d="M11.979,0.19c0-0.003,0-0.006-0.002-0.009c0.039,0,0.075,0,0.112,0c0,0.002,0.001,0.005,0.001,0.007
	C12.053,0.189,12.016,0.189,11.979,0.19z"/>
<path fill="#A6A4F8" d="M-1.124,7.543c0.001,0.038,0.008,0.076-0.008,0.113c0-0.038,0-0.074,0-0.111
	C-1.13,7.538-1.127,7.537-1.124,7.543z"/>
<path fill="#8E8BF5" d="M6.491,0.19c0-0.003,0-0.006,0-0.009c0.034,0,0.068,0,0.103,0C6.561,0.198,6.525,0.189,6.491,0.19z"/>
<path fill="#D8D6FB" d="M-1.124,7.543c-0.002,0-0.005,0-0.008,0.002c0-0.034,0-0.069,0-0.104c0.002,0,0.005,0,0.008,0
	C-1.124,7.475-1.124,7.51-1.124,7.543z"/>
<path fill="#AFADF8" d="M6.407,18.879c0,0.003,0,0.005,0,0.008c-0.034,0-0.068,0-0.103,0c-0.006-0.002-0.007-0.005,0-0.008
	C6.339,18.879,6.373,18.879,6.407,18.879z"/>
<path fill="#B1AFF8" d="M-1.132,11.449c0.002,0.001,0.005,0.001,0.009,0.002c-0.001,0.031-0.001,0.063-0.001,0.092
	c-0.003,0.007-0.006,0.007-0.008,0C-1.132,11.512-1.132,11.48-1.132,11.449z"/>
<path fill="#DDDCFB" d="M6.305,18.879c0,0.003,0,0.005,0,0.008c-0.028,0-0.056,0-0.083,0c0-0.003,0-0.005,0-0.008
	C6.249,18.879,6.277,18.879,6.305,18.879z"/>
<path fill="#E0DFFC" d="M-1.132,11.543c0.002,0,0.005,0.001,0.008,0c0,0.023,0,0.05,0,0.074l-0.003,0.001l-0.004-0.001
	C-1.132,11.592-1.132,11.566-1.132,11.543z"/>
<g>
	<path fill="#FFFFFF" d="M3.503,13.113c-0.776,0-1.545-0.208-1.928-0.425l0.313-1.308c0.415,0.218,1.046,0.435,1.707,0.435
		c0.707,0,1.083-0.301,1.083-0.757c0-0.435-0.325-0.684-1.14-0.984C2.407,9.669,1.668,9.027,1.668,8.012
		c0-1.193,0.969-2.104,2.577-2.104c0.766,0,1.331,0.164,1.736,0.352L5.638,7.534C5.365,7.4,4.881,7.204,4.214,7.204
		c-0.665,0-0.989,0.311-0.989,0.673c0,0.446,0.382,0.642,1.263,0.985c1.201,0.456,1.765,1.099,1.765,2.083
		C6.247,12.118,5.37,13.113,3.503,13.113z"/>
	<path fill="#FFFFFF" d="M12.882,13.009l-0.099-2.676c-0.03-0.838-0.061-1.854-0.061-2.871h-0.029
		c-0.215,0.891-0.493,1.885-0.756,2.706l-0.829,2.728H9.904l-0.731-2.706C8.955,9.371,8.722,8.375,8.561,7.462H8.54
		C8.5,8.405,8.468,9.485,8.419,10.355l-0.122,2.653H6.874l0.433-6.986h2.05l0.666,2.332c0.214,0.809,0.425,1.68,0.575,2.499h0.029
		c0.191-0.809,0.422-1.731,0.647-2.509L12,6.022h2.01l0.374,6.986H12.882L12.882,13.009z"/>
	<path fill="#FFFFFF" d="M16.857,13.113c-0.777,0-1.545-0.208-1.931-0.425l0.315-1.308c0.416,0.218,1.048,0.435,1.707,0.435
		c0.704,0,1.083-0.301,1.083-0.757c0-0.435-0.325-0.684-1.142-0.984c-1.131-0.405-1.87-1.047-1.87-2.062
		c0-1.193,0.969-2.104,2.574-2.104c0.771,0,1.335,0.164,1.739,0.352L18.99,7.534c-0.272-0.133-0.757-0.33-1.424-0.33
		c-0.665,0-0.988,0.311-0.988,0.673c0,0.446,0.381,0.642,1.26,0.985c1.203,0.456,1.768,1.099,1.768,2.083
		C19.604,12.118,18.725,13.113,16.857,13.113z"/>
</g>
</svg>
