<?xml version="1.0" encoding="utf-8"?>
<!-- Generator: Adobe Illustrator 25.0.1, SVG Export Plug-In . SVG Version: 6.00 Build 0)  -->
<svg version="1.1" id="Calque_1" xmlns="http://www.w3.org/2000/svg" xmlns:xlink="http://www.w3.org/1999/xlink" x="0px" y="0px"
	 viewBox="0 0 362 53"
	 style="enable-background:new 0 0 362 53;" xml:space="preserve">
<style type="text/css">
	.st0{fill:#FFFFFF;}
	.st1{fill:#ED1C24;}
	.st2{opacity:0.43;fill:url(#SVGID_1_);enable-background:new    ;}
	.st3{opacity:0.43;fill:url(#SVGID_2_);enable-background:new    ;}
	.st4{fill:none;stroke:#FFFFFF;stroke-miterlimit:10;}
</style>
<g>
	<path class="st0" d="M263.6,37.6c-1.5,0-3-0.3-4.3-0.8c-1.3-0.5-2.5-1.4-3.5-2.4c-1-1-1.8-2.2-2.3-3.5c-1.1-2.8-1.1-5.9,0-8.6
		c0.5-1.3,1.3-2.5,2.3-3.5c3.3-3.2,8.1-4.1,12.3-2.4c1.3,0.6,2.4,1.4,3.4,2.3l-2.4,2.4c-0.6-0.7-1.4-1.3-2.3-1.6
		c-1-0.4-2.1-0.6-3.2-0.6c-1,0-2,0.2-2.9,0.6c-0.9,0.4-1.6,0.9-2.3,1.6c-0.7,0.7-1.2,1.5-1.5,2.4c-0.7,2-0.7,4.2,0,6.2
		c0.3,0.9,0.8,1.7,1.5,2.4c0.6,0.7,1.4,1.2,2.3,1.6c0.9,0.4,1.9,0.6,2.9,0.6c1.1,0,2.3-0.2,3.3-0.6c0.9-0.4,1.7-0.9,2.3-1.6l2.4,2.4
		c-1,1-2.2,1.8-3.5,2.4C266.7,37.4,265.2,37.7,263.6,37.6z"/>
	<path class="st0" d="M274.8,37.3V15.8h3.5v21.5H274.8z M277.2,27.8v-3.2h12v3.2H277.2z M288.5,37.3V15.8h3.5v21.5H288.5z"/>
	<path class="st1" d="M306.6,37.6c-1.5,0-2.9-0.3-4.3-0.9c-4.1-1.8-6.7-5.8-6.7-10.2c0-1.5,0.3-2.9,0.8-4.3c0.5-1.3,1.3-2.5,2.3-3.5
		c1-1,2.2-1.8,3.5-2.4c4.1-1.8,8.9-0.8,12.1,2.4c4.3,4.3,4.3,11.4,0,15.7c-1,1-2.2,1.8-3.4,2.3C309.5,37.3,308.1,37.6,306.6,37.6z
		 M306.5,34.2c1.3,0,2.7-0.3,3.8-1c1.1-0.7,2-1.6,2.6-2.7c0.6-1.2,1-2.6,0.9-4c0-1.1-0.2-2.1-0.5-3.1c-0.3-0.9-0.9-1.7-1.5-2.4
		c-0.7-0.7-1.4-1.2-2.3-1.6c-0.9-0.4-2-0.6-3-0.6c-1.3,0-2.6,0.3-3.8,1c-1.1,0.6-2,1.6-2.6,2.7c-0.6,1.2-1,2.6-0.9,4
		c0,1.1,0.2,2.1,0.5,3.1c0.3,0.9,0.8,1.7,1.5,2.4c0.7,0.7,1.4,1.2,2.3,1.6C304.5,34.1,305.5,34.3,306.5,34.2L306.5,34.2z"/>
	<path class="st1" d="M324.9,37.6c-1.5,0-2.9-0.3-4.3-0.9c-5.6-2.5-8.2-8.9-5.9-14.5c0.5-1.3,1.3-2.5,2.3-3.5c1-1,2.2-1.8,3.5-2.4
		c4.1-1.8,8.9-0.8,12.1,2.4c4.3,4.3,4.3,11.4,0,15.7c-1,1-2.2,1.8-3.4,2.3C327.8,37.3,326.4,37.6,324.9,37.6z M324.8,34.2
		c1.3,0,2.7-0.3,3.8-1c1.1-0.7,2-1.6,2.6-2.7c0.6-1.2,1-2.6,0.9-4c0-1.1-0.2-2.1-0.5-3.1c-0.3-0.9-0.9-1.7-1.5-2.4
		c-0.7-0.7-1.4-1.2-2.3-1.6c-0.9-0.4-2-0.6-3-0.6c-1.3,0-2.6,0.3-3.8,1c-1.1,0.6-2,1.6-2.6,2.7c-0.6,1.2-1,2.6-0.9,4
		c0,1.1,0.2,2.1,0.5,3.1c0.3,0.9,0.8,1.7,1.5,2.4c0.7,0.7,1.4,1.2,2.3,1.6C322.8,34.1,323.8,34.3,324.8,34.2L324.8,34.2z"/>
	
		<radialGradient id="SVGID_1_" cx="316.1066" cy="35.4639" r="10.5738" gradientTransform="matrix(1 0 0 -1 0 54)" gradientUnits="userSpaceOnUse">
		<stop  offset="0" style="stop-color:#000000"/>
		<stop  offset="0.132" style="stop-color:#333333"/>
		<stop  offset="0.309" style="stop-color:#707070"/>
		<stop  offset="0.479" style="stop-color:#A3A3A3"/>
		<stop  offset="0.638" style="stop-color:#CBCBCB"/>
		<stop  offset="0.782" style="stop-color:#E8E8E8"/>
		<stop  offset="0.908" style="stop-color:#F9F9F9"/>
		<stop  offset="1" style="stop-color:#FFFFFF"/>
	</radialGradient>
	<path class="st2" d="M314.7,30.9c-0.6-1.4-0.9-2.8-0.8-4.3c0,1.4-0.3,2.8-0.9,4c-0.6,1.1-1.5,2.1-2.6,2.7c-1.2,0.7-2.5,1-3.8,1
		c-1,0-2-0.2-3-0.6c-0.9-0.4-1.7-0.9-2.3-1.6c-0.7-0.7-1.2-1.5-1.5-2.4c-0.4-1-0.5-2.1-0.5-3.1c0-1.4,0.3-2.8,0.9-4
		c0.6-1.1,1.5-2.1,2.6-2.7c1.2-0.7,2.5-1,3.8-1c1,0,2,0.2,3,0.6c0.9,0.4,1.7,0.9,2.3,1.6c0.7,0.7,1.2,1.5,1.5,2.4
		c0.4,1,0.6,2,0.5,3.1c0-1.5,0.3-2.9,0.8-4.3c0.3-0.6,0.6-1.2,1-1.8c-1.2-1.8-2.9-3.2-4.9-4.1c-4.1-1.8-8.9-0.8-12.1,2.4
		c-1,1-1.8,2.2-2.3,3.5c-0.6,1.4-0.9,2.8-0.8,4.3c0,4.5,2.6,8.5,6.7,10.2c1.4,0.6,2.8,0.9,4.3,0.9c1.5,0,2.9-0.3,4.3-0.9
		c1.3-0.6,2.5-1.4,3.5-2.4c0.5-0.5,1-1.1,1.4-1.7C315.3,32.1,315,31.5,314.7,30.9z"/>
	
		<radialGradient id="SVGID_2_" cx="-801.1036" cy="1381.3851" r="10.5738" gradientTransform="matrix(-1 0 0 1 -485.5601 -1347.358)" gradientUnits="userSpaceOnUse">
		<stop  offset="0" style="stop-color:#000000"/>
		<stop  offset="0.132" style="stop-color:#333333"/>
		<stop  offset="0.309" style="stop-color:#707070"/>
		<stop  offset="0.479" style="stop-color:#A3A3A3"/>
		<stop  offset="0.638" style="stop-color:#CBCBCB"/>
		<stop  offset="0.782" style="stop-color:#E8E8E8"/>
		<stop  offset="0.908" style="stop-color:#F9F9F9"/>
		<stop  offset="1" style="stop-color:#FFFFFF"/>
	</radialGradient>
	<path class="st3" d="M316.7,22.3c0.6,1.4,0.9,2.8,0.8,4.3c0-1.4,0.3-2.8,0.9-4c0.6-1.1,1.5-2.1,2.6-2.7c1.2-0.7,2.5-1,3.8-1
		c1,0,2,0.2,3,0.6c0.9,0.4,1.7,0.9,2.3,1.6c0.7,0.7,1.2,1.5,1.5,2.4c0.4,1,0.5,2.1,0.5,3.1c0,1.4-0.3,2.8-0.9,4
		c-0.6,1.1-1.5,2.1-2.6,2.7c-1.2,0.7-2.5,1-3.8,1c-1,0-2-0.2-3-0.6c-0.9-0.4-1.7-0.9-2.3-1.6c-0.7-0.7-1.2-1.5-1.5-2.4
		c-0.4-1-0.6-2-0.5-3.1c0,1.5-0.3,2.9-0.8,4.3c-0.3,0.6-0.6,1.2-1,1.8c1.2,1.8,2.9,3.2,4.9,4.1c4.1,1.8,8.9,0.8,12.1-2.4
		c1-1,1.8-2.2,2.3-3.5c0.6-1.4,0.9-2.8,0.8-4.3c0-4.5-2.6-8.5-6.7-10.2c-1.4-0.6-2.8-0.9-4.3-0.9c-1.5,0-2.9,0.3-4.3,0.9
		c-1.3,0.6-2.5,1.4-3.5,2.4c-0.5,0.5-1,1.1-1.4,1.7C316.1,21,316.4,21.6,316.7,22.3z"/>
	<path class="st0" d="M338.8,37.3V15.8h3.5v21.5H338.8z M341.2,19v-3.2h11.5V19H341.2z M341.2,28.1v-3.2h10.9v3.2H341.2z"/>
</g>
<path class="st0" d="M189.6,12.8c0,2.7-2.2,4.8-4.8,4.8s-4.8-2.2-4.8-4.8s2.2-4.8,4.8-4.8l0,0C187.5,8,189.6,10.2,189.6,12.8z
	 M182,28.2c-0.1,7.4-6.1,13.4-13.5,13.3c-7.3-0.1-13.3-6-13.3-13.3c0,7.4-6.1,13.4-13.5,13.4c-7.3,0-13.3-6-13.4-13.3
	c0,7.4-6,13.4-13.4,13.4c-3.8,0-7.4-1.6-9.9-4.4c-1.6-1.8-2.8-4-3.2-6.4l-20,0l0.3,0.8c1,2,2.9,3.4,5.1,3.8c0.7,0.1,1.3,0.2,2,0.2
	l0.3,0c1.4,0,2.7-0.4,4-1.1l0.6-0.4c0.4-0.3,0.9-0.4,1.4-0.1l3.6,2c0.3,0.2,0.5,0.5,0.6,0.9c0,0.3-0.1,0.7-0.3,0.9l-0.9,0.9
	c0,0-0.1,0.1-0.1,0.1l0,0c-2.3,1.8-5.2,2.8-8.7,2.9c-0.2,0-0.3,0-0.5,0c-0.4,0-0.8,0-1.2,0L87,41.6c-6.8-0.7-12-6.6-11.9-13.5
	c0-1.6,0.3-3.2,0.9-4.7l0,0l-0.1-0.1c-1.6-1.8-4-2.8-6.4-2.5c-3.7,0.3-6.6,3.4-6.5,7.1L63,40c0,0.8-0.7,1.5-1.5,1.5h-2.9
	c-0.8,0-1.5-0.7-1.5-1.5V28.5c-0.1,7.4-6.3,13.3-13.7,13.2c-7.3-0.1-13.2-6.1-13.2-13.4c0,7.4-6,13.4-13.4,13.4
	c-7.4,0-13.4-6-13.4-13.4c0-7.4,6-13.4,13.4-13.4c7.4,0,13.4,6,13.4,13.4c0-7.4,6-13.4,13.4-13.4c7.3,0,13.3,5.9,13.4,13.2V16.7
	c0-0.8,0.7-1.5,1.5-1.5h2.9c0.8,0,1.5,0.7,1.5,1.5v0.7c1.8-1.4,3.9-2.3,6.1-2.6c3.8-0.4,7.5,1,10.2,3.7c5.4-5.1,13.9-4.8,19,0.5
	c1.7,1.8,2.9,4.1,3.4,6.5l0,0c1.5-7.3,8.5-12,15.8-10.5c1.6,0.3,3,0.9,4.4,1.7l0.3,0.2l0-10c0-1,0.8-1.7,1.7-1.7h2.6
	c1,0,1.7,0.8,1.7,1.7l0,0l0,21.2c0-7.4,6-13.4,13.5-13.4c7.4,0,13.4,6,13.4,13.5c0.1-7.4,6.1-13.4,13.5-13.3
	C176.1,14.9,182,20.9,182,28.2z M24.1,28.2c0-4.1-3.3-7.4-7.4-7.4c-4.1,0-7.4,3.3-7.4,7.4c0,4.1,3.3,7.4,7.4,7.4c0,0,0,0,0,0
	C20.8,35.6,24.1,32.3,24.1,28.2L24.1,28.2z M51,28.2c0-4.1-3.3-7.4-7.4-7.4s-7.4,3.3-7.4,7.4c0,4.1,3.3,7.4,7.4,7.4
	C47.7,35.6,51,32.3,51,28.2L51,28.2z M95.3,25.4c-1.6-3.7-5.8-5.5-9.6-4c-1.8,0.7-3.2,2.2-4,3.9L95.3,25.4z M122.2,28.2
	c0-4.1-3.3-7.4-7.4-7.4h-0.1c-3.9,0.1-7.1,3.3-7.2,7.2c-0.1,4.1,3.2,7.4,7.3,7.5C118.9,35.6,122.2,32.4,122.2,28.2
	C122.2,28.3,122.2,28.2,122.2,28.2z M149.1,28.2c0-4.1-3.3-7.4-7.4-7.4c-4.1,0-7.4,3.3-7.4,7.4c0,4.1,3.3,7.4,7.4,7.4
	C145.8,35.6,149.1,32.3,149.1,28.2z M176,28.2c0-4.1-3.3-7.4-7.4-7.4c-4.1,0-7.4,3.3-7.4,7.4c0,4.1,3.3,7.4,7.4,7.4
	C172.7,35.6,176,32.3,176,28.2z"/>
<line class="st4" x1="217.5" y1="13.5" x2="217.5" y2="41.3"/>
</svg>
