<?xml version="1.0" encoding="utf-8"?>
<!-- Generator: Adobe Illustrator 16.0.0, SVG Export Plug-In . SVG Version: 6.00 Build 0)  -->
<!DOCTYPE svg PUBLIC "-//W3C//DTD SVG 1.1//EN" "http://www.w3.org/Graphics/SVG/1.1/DTD/svg11.dtd">
<svg version="1.1" id="Calque_1" xmlns="http://www.w3.org/2000/svg" xmlns:xlink="http://www.w3.org/1999/xlink" x="0px" y="0px"
	 width="362px" height="53px" viewBox="-223 0 362 53" enable-background="new -223 0 362 53" xml:space="preserve">
<g>
	<g>
		
			<linearGradient id="SVGID_1_" gradientUnits="userSpaceOnUse" x1="-220.8887" y1="138.5078" x2="-208.8549" y2="158.6097" gradientTransform="matrix(1 0 0 -1 287.7002 175.4551)">
			<stop  offset="0.0012" style="stop-color:#CB0000"/>
			<stop  offset="0.2173" style="stop-color:#C60000"/>
			<stop  offset="0.4912" style="stop-color:#B60000"/>
			<stop  offset="0.7746" style="stop-color:#9E0000"/>
			<stop  offset="0.9974" style="stop-color:#720000"/>
		</linearGradient>
		<path fill="url(#SVGID_1_)" d="M72.662,41.277c-7.777,0-14.105-6.325-14.105-14.104c0-7.777,6.328-14.104,14.105-14.104
			c7.775,0,14.104,6.326,14.104,14.104C86.766,34.952,80.438,41.277,72.662,41.277z M72.662,18.872
			c-4.579,0-8.304,3.724-8.304,8.301c0,4.58,3.725,8.306,8.304,8.306c4.577,0,8.303-3.726,8.303-8.306
			C80.965,22.596,77.239,18.872,72.662,18.872z"/>
	</g>
	
		<linearGradient id="SVGID_2_" gradientUnits="userSpaceOnUse" x1="-188.1206" y1="159.8809" x2="-196.7361" y2="137.7267" gradientTransform="matrix(1 0 0 -1 287.7002 175.4551)">
		<stop  offset="0.0012" style="stop-color:#CB0000"/>
		<stop  offset="0.2173" style="stop-color:#C60000"/>
		<stop  offset="0.4912" style="stop-color:#B60000"/>
		<stop  offset="0.7746" style="stop-color:#9E0000"/>
		<stop  offset="0.9974" style="stop-color:#720000"/>
	</linearGradient>
	<path fill="url(#SVGID_2_)" d="M95.068,41.277c-7.775,0-14.104-6.325-14.104-14.104c0-7.777,6.327-14.104,14.104-14.104
		c7.779,0,14.104,6.326,14.104,14.104C109.174,34.952,102.848,41.277,95.068,41.277z M95.068,19.092
		c-4.457,0-8.082,3.627-8.082,8.081c0,4.459,3.627,8.084,8.082,8.084c4.457,0,8.082-3.625,8.082-8.084
		C103.15,22.719,99.525,19.092,95.068,19.092z"/>
	<g>
		<path opacity="0.44" fill="#CB0000" enable-background="new    " d="M95.023,13.069L95.023,13.069c0.008,0,0.015,0,0.023,0H95.023
			z"/>
		<path opacity="0.44" fill="#CB0000" enable-background="new    " d="M95.047,41.277c-0.009,0-0.016,0-0.023,0l0,0H95.047z"/>
		<path opacity="0.44" fill="#CB0000" enable-background="new    " d="M86.506,29.917c0.326-1.983,0.857-3.419,0.975-4.083
			c0.807-4.295,4.02-6.723,8.02-6.732V13.07c-5,0.009-9.741,2.771-12.189,6.937c0,0-2.131,3.286-2.153,6.178
			c-0.027,0.361,0.174,1.404,0.036,2.101c-0.721,4.897-4.693,7.788-9.693,7.073v5.836c6,0.557,9.936-2.037,12.604-5.534
			C84.104,35.659,85.941,33.285,86.506,29.917z"/>
	</g>
	<g>
		<path fill="#FFFFFF" d="M7.501,26.963c0-8.049,5.733-13.9,13.625-13.9c4.868,0,7.814,1.847,9.541,3.887
			c0.511,0.629,0.785,1.258,0.785,1.885c0,1.611-1.295,2.75-2.749,2.75c-0.667,0-1.255-0.275-1.727-0.59
			c-1.768-1.177-2.945-2.434-5.929-2.434c-4.083,0-7.303,3.533-7.303,8.439c0,4.908,3.298,8.441,7.459,8.441
			c3.023,0,4.28-1.334,5.93-2.435c0.47-0.313,1.06-0.59,1.728-0.59c1.453,0,2.709,1.14,2.709,2.751c0,0.629-0.236,1.257-0.746,1.882
			c-1.69,2.083-4.673,3.89-9.777,3.89C13.193,40.939,7.501,35.051,7.501,26.963z"/>
		<path fill="#FFFFFF" d="M56.226,16.205v23.006c0,0.825-0.51,1.337-1.296,1.337h-3.69c-0.825,0-1.334-0.512-1.334-1.337v-8.988
			H39.657v8.988c0,0.825-0.511,1.337-1.295,1.337H34.67c-0.824,0-1.334-0.512-1.334-1.337V16.205c0-1.729,1.414-3.143,3.142-3.143
			c1.727,0,3.18,1.414,3.18,3.143v8.324h10.249v-8.324c0-1.729,1.413-3.143,3.141-3.143C54.773,13.063,56.226,14.477,56.226,16.205z
			"/>
		<path fill="#FFFFFF" d="M118.85,19.347v5.299h8.44c1.728,0,3.142,1.217,3.142,2.944c0,1.727-1.414,2.944-3.142,2.944h-8.44v8.677
			c0,0.825-0.512,1.337-1.297,1.337h-3.688c-0.826,0-1.335-0.512-1.335-1.337V16.519c0-2.042,1.412-3.063,3.102-3.063h0.038h13.39
			c1.728,0,3.142,1.217,3.142,2.945s-1.414,2.945-3.142,2.945L118.85,19.347L118.85,19.347z"/>
	</g>
</g>
<g>
	<path fill="#ED1C24" d="M-52.43,10.629c-5.008,0-9.4,2.372-12.299,5.973c-2.814-3.689-7.291-5.973-12.299-5.973
		c-5.01,0-9.402,2.372-12.303,5.973c-1.141-1.492-2.547-2.724-4.129-3.778v13.267c0,4.479-3.602,8.084-8.082,8.084
		c-4.481,0-8.084-3.602-8.084-8.084c0-4.481,3.603-8.084,8.084-8.084c1.492,0,2.986,0.44,4.217,1.23l0.35,0.176v-8.17
		c-1.404-0.44-2.984-0.703-4.566-0.703c-5.009,0-9.401,2.372-12.301,5.974c-2.811-3.689-7.291-5.974-12.301-5.974
		c-5.007,0-9.398,2.372-12.298,5.974c-2.724-3.514-7.115-5.886-12.125-5.886c-5.008,0-9.402,2.372-12.299,5.973
		c-2.812-3.689-7.293-5.973-12.3-5.973c-5.007,0-9.399,2.372-12.299,5.973c-2.812-3.689-7.291-5.973-12.3-5.973
		c-8.61,0-15.551,6.941-15.551,15.551c0,8.609,6.941,15.551,15.551,15.551c5.009,0,9.401-2.375,12.3-5.973
		c2.812,3.687,7.292,5.973,12.299,5.973c5.009,0,9.401-2.375,12.3-5.973c2.811,3.687,7.291,5.973,12.299,5.973
		c5.009,0,9.401-2.375,12.3-5.973c2.812,3.687,7.292,5.973,12.3,5.973c5.007,0,9.4-2.375,12.299-5.973
		c2.813,3.687,7.294,5.973,12.301,5.973c5.008,0,9.4-2.375,12.299-5.973c2.813,3.687,7.291,5.973,12.301,5.973
		c5.008,0,9.4-2.375,12.299-5.973c2.811,3.687,7.291,5.973,12.301,5.973c8.611,0,15.551-6.942,15.551-15.551
		C-36.879,17.568-43.818,10.629-52.43,10.629z"/>
	<path fill="#FFFFFF" d="M-76.941,34.261c-4.479,0-8.082-3.602-8.082-8.083c0-4.48,3.604-8.084,8.082-8.084
		c4.482,0,8.084,3.602,8.084,8.084C-68.857,30.659-72.549,34.261-76.941,34.261z M-76.941,21.609c-2.547,0-4.568,2.022-4.568,4.569
		c0,2.547,2.021,4.567,4.568,4.567c2.551,0,4.57-2.02,4.57-4.567C-72.459,23.718-74.48,21.609-76.941,21.609z"/>
	<path fill="#FFFFFF" d="M-52.43,34.261c-4.48,0-8.082-3.602-8.082-8.083c0-4.48,3.602-8.084,8.082-8.084s8.084,3.602,8.084,8.084
		C-44.346,30.659-47.949,34.261-52.43,34.261z M-52.43,21.609c-2.547,0-4.566,2.022-4.566,4.569c0,2.547,2.02,4.567,4.566,4.567
		c2.549,0,4.568-2.02,4.568-4.567C-47.861,23.718-49.969,21.609-52.43,21.609z"/>
	<path fill="#FFFFFF" d="M-175.078,34.261c-4.479,0-8.083-3.602-8.083-8.083c0-4.48,3.602-8.084,8.083-8.084
		c4.48,0,8.084,3.602,8.084,8.084C-166.994,30.659-170.596,34.261-175.078,34.261z M-175.078,21.609
		c-2.547,0-4.568,2.022-4.568,4.569c0,2.547,2.021,4.567,4.568,4.567c2.549,0,4.569-2.02,4.569-4.567
		C-170.508,23.718-172.618,21.609-175.078,21.609z"/>
	<path fill="#FFFFFF" d="M-199.589,34.261c-4.48,0-8.083-3.602-8.083-8.083c0-4.48,3.602-8.084,8.083-8.084s8.084,3.602,8.084,8.084
		C-191.505,30.659-195.197,34.261-199.589,34.261z M-199.589,21.609c-2.548,0-4.569,2.022-4.569,4.569
		c0,2.547,2.021,4.567,4.569,4.567c2.549,0,4.568-2.02,4.568-4.567C-195.108,23.718-197.128,21.609-199.589,21.609z"/>
	<path fill="#FFFFFF" d="M-125.787,34.261c-0.268,0-0.529,0-0.704,0h-0.175h-0.266c-4.127-0.439-7.203-3.866-7.203-7.994
		c0-4.48,3.604-8.082,8.084-8.082s8.082,3.602,8.082,8.082c0,0.527-0.086,0.968-0.174,1.493h-12.215l0.265,0.615
		c0.615,1.232,1.845,2.109,3.161,2.374c0.352,0.087,0.791,0.087,1.231,0.087h0.176c1.142,0,2.282-0.441,3.075-1.143l0.087-0.086
		l3.249,1.754l-0.174,0.178c-1.492,1.757-3.603,2.725-6.237,2.811C-125.614,34.261-125.701,34.261-125.787,34.261z M-126.055,21.609
		c-1.842,0-3.512,1.143-4.215,2.812v0.088h8.434v-0.088C-122.539,22.752-124.209,21.609-126.055,21.609z"/>
	<path fill="#FFFFFF" d="M-158.208,33.821v-7.641v-0.44c0.262-4.306,3.776-7.645,8.083-7.645c3.076,0,5.798,1.669,7.203,4.479
		l-3.162,1.669c-0.791-1.581-2.373-2.635-4.13-2.635c-2.546,0-4.567,2.022-4.567,4.569v7.643H-158.208L-158.208,33.821z"/>
	<circle fill="#EA212E" cx="-101.541" cy="26.179" r="4.57"/>
	<path fill="#FFFFFF" d="M-96.971,11.332v8.17l-0.352-0.176c-1.229-0.791-2.723-1.23-4.215-1.23c-4.482,0-8.086,3.602-8.086,8.084
		c0,4.479,3.601,8.083,8.086,8.083c4.477,0,8.08-3.604,8.08-8.083V12.913C-94.512,12.298-95.656,11.682-96.971,11.332z
		 M-101.541,30.749c-2.547,0-4.568-2.021-4.568-4.568c0-2.547,2.021-4.57,4.568-4.57s4.566,2.023,4.566,4.57
		C-96.975,28.729-98.994,30.749-101.541,30.749z"/>
</g>
<line fill="none" stroke="#FFFFFF" stroke-miterlimit="10" x1="-15.5" y1="13.456" x2="-15.5" y2="41.277"/>
</svg>
