<?xml version="1.0" encoding="utf-8"?>
<!-- Generator: Adobe Illustrator 16.0.0, SVG Export Plug-In . SVG Version: 6.00 Build 0)  -->
<!DOCTYPE svg PUBLIC "-//W3C//DTD SVG 1.1//EN" "http://www.w3.org/Graphics/SVG/1.1/DTD/svg11.dtd">
<svg version="1.1" id="Calque_1" xmlns="http://www.w3.org/2000/svg" xmlns:xlink="http://www.w3.org/1999/xlink" x="0px" y="0px"
	 width="182.833px" height="53px" viewBox="-40.833 -2.146 182.833 53" enable-background="new -40.833 -2.146 182.833 53"
	 xml:space="preserve">
<g>
	<path fill="#ED1C24" d="M124.466,7.483c-5.008,0-9.401,2.372-12.3,5.973c-2.813-3.689-7.291-5.973-12.298-5.973
		c-5.01,0-9.402,2.372-12.303,5.973c-1.141-1.492-2.547-2.724-4.129-3.778v13.267c0,4.479-3.602,8.084-8.083,8.084
		c-4.481,0-8.083-3.602-8.083-8.084c0-4.481,3.602-8.084,8.083-8.084c1.493,0,2.987,0.44,4.218,1.23l0.35,0.176v-8.17
		c-1.405-0.44-2.985-0.703-4.567-0.703c-5.008,0-9.401,2.372-12.3,5.974c-2.81-3.689-7.291-5.974-12.3-5.974
		c-5.007,0-9.399,2.372-12.298,5.974c-2.723-3.514-7.115-5.886-12.125-5.886c-5.008,0-9.402,2.372-12.299,5.973
		c-2.812-3.689-7.293-5.973-12.3-5.973c-5.007,0-9.399,2.372-12.299,5.973c-2.812-3.689-7.291-5.973-12.3-5.973
		c-8.61,0-15.551,6.941-15.551,15.551c0,8.609,6.941,15.551,15.551,15.551c5.009,0,9.401-2.375,12.3-5.973
		c2.812,3.687,7.292,5.973,12.299,5.973c5.009,0,9.401-2.375,12.3-5.973c2.811,3.687,7.291,5.973,12.299,5.973
		c5.009,0,9.401-2.375,12.3-5.973c2.811,3.687,7.292,5.973,12.299,5.973s9.401-2.375,12.3-5.973
		c2.812,3.687,7.293,5.973,12.301,5.973c5.007,0,9.399-2.375,12.299-5.973c2.812,3.687,7.291,5.973,12.3,5.973
		s9.401-2.375,12.3-5.973c2.811,3.687,7.291,5.973,12.301,5.973c8.61,0,15.55-6.942,15.55-15.551
		C140.016,14.423,133.076,7.483,124.466,7.483z"/>
	<path fill="#FFFFFF" d="M99.954,31.115c-4.479,0-8.082-3.602-8.082-8.083c0-4.48,3.604-8.084,8.082-8.084
		c4.481,0,8.084,3.602,8.084,8.084C108.037,27.514,104.346,31.115,99.954,31.115z M99.954,18.464c-2.548,0-4.568,2.022-4.568,4.569
		c0,2.547,2.021,4.567,4.568,4.567c2.55,0,4.57-2.02,4.57-4.567C104.436,20.573,102.414,18.464,99.954,18.464z"/>
	<path fill="#FFFFFF" d="M124.466,31.115c-4.481,0-8.082-3.602-8.082-8.083c0-4.48,3.601-8.084,8.082-8.084
		c4.479,0,8.084,3.602,8.084,8.084C132.55,27.514,128.945,31.115,124.466,31.115z M124.466,18.464c-2.548,0-4.567,2.022-4.567,4.569
		c0,2.547,2.02,4.567,4.567,4.567s4.568-2.02,4.568-4.567C129.034,20.573,126.927,18.464,124.466,18.464z"/>
	<path fill="#FFFFFF" d="M1.817,31.115c-4.479,0-8.083-3.602-8.083-8.083c0-4.48,3.602-8.084,8.083-8.084
		c4.48,0,8.084,3.602,8.084,8.084C9.901,27.514,6.299,31.115,1.817,31.115z M1.817,18.464c-2.547,0-4.568,2.022-4.568,4.569
		c0,2.547,2.021,4.567,4.568,4.567c2.549,0,4.569-2.02,4.569-4.567C6.387,20.573,4.277,18.464,1.817,18.464z"/>
	<path fill="#FFFFFF" d="M-22.694,31.115c-4.48,0-8.083-3.602-8.083-8.083c0-4.48,3.602-8.084,8.083-8.084s8.084,3.602,8.084,8.084
		C-14.61,27.514-18.302,31.115-22.694,31.115z M-22.694,18.464c-2.548,0-4.569,2.022-4.569,4.569c0,2.547,2.021,4.567,4.569,4.567
		c2.549,0,4.568-2.02,4.568-4.567C-18.213,20.573-20.233,18.464-22.694,18.464z"/>
	<path fill="#FFFFFF" d="M51.107,31.115c-0.267,0-0.528,0-0.704,0h-0.175h-0.265c-4.127-0.439-7.203-3.866-7.203-7.994
		c0-4.48,3.603-8.082,8.083-8.082c4.481,0,8.083,3.602,8.083,8.082c0,0.527-0.086,0.967-0.175,1.493H46.538l0.264,0.615
		c0.615,1.233,1.845,2.11,3.162,2.375c0.351,0.087,0.791,0.087,1.231,0.087h0.176c1.142,0,2.283-0.441,3.075-1.142l0.087-0.086
		l3.25,1.754l-0.175,0.178c-1.492,1.757-3.602,2.725-6.237,2.811C51.281,31.115,51.193,31.115,51.107,31.115z M50.84,18.464
		c-1.842,0-3.512,1.143-4.215,2.812v0.088h8.434v-0.088C54.356,19.606,52.687,18.464,50.84,18.464z"/>
	<path fill="#FFFFFF" d="M18.687,30.676v-7.641v-0.44c0.262-4.306,3.776-7.645,8.083-7.645c3.076,0,5.798,1.669,7.204,4.479
		l-3.162,1.669c-0.792-1.581-2.373-2.635-4.131-2.635c-2.546,0-4.567,2.022-4.567,4.569v7.643H18.687L18.687,30.676z"/>
	<circle fill="#EA212E" cx="75.354" cy="23.034" r="4.57"/>
	<path fill="#FFFFFF" d="M79.925,8.187v8.17l-0.353-0.176c-1.229-0.791-2.723-1.23-4.215-1.23c-4.482,0-8.085,3.602-8.085,8.084
		c0,4.479,3.601,8.083,8.085,8.083c4.478,0,8.081-3.604,8.081-8.083V9.768C82.383,9.153,81.239,8.536,79.925,8.187z M75.354,27.604
		c-2.547,0-4.568-2.021-4.568-4.568s2.021-4.57,4.568-4.57c2.548,0,4.567,2.023,4.567,4.57S77.901,27.604,75.354,27.604z"/>
</g>
</svg>
