<?xml version="1.0" encoding="utf-8"?>
<!-- Generator: Adobe Illustrator 21.0.0, SVG Export Plug-In . SVG Version: 6.00 Build 0)  -->
<svg version="1.1" id="Layer_1" xmlns="http://www.w3.org/2000/svg" xmlns:xlink="http://www.w3.org/1999/xlink" x="0px" y="0px"
	 viewBox="0 0 145.5 39" style="enable-background:new 0 0 145.5 39;" xml:space="preserve">
<style type="text/css">
	.st0{fill:#FFFFFF;}
	.st1{clip-path:url(#SVGID_2_);fill:url(#SVGID_3_);}
	.st2{clip-path:url(#SVGID_5_);fill:url(#SVGID_6_);}
	.st3{clip-path:url(#SVGID_8_);fill:url(#SVGID_9_);}
	.st4{clip-path:url(#SVGID_11_);fill:url(#SVGID_12_);}
</style>
<g>
	<path class="st0" d="M115.9,27.2c-0.6,0-1.3-0.1-1.8-0.4c-0.5-0.3-1-0.7-1.4-1.2h-0.1c0.1,0.6,0.1,1.3,0.1,1.9V32h-1.5V15.8h1.3
		l0.2,1.5h0.1c0.4-0.6,0.9-1,1.4-1.3c0.5-0.3,1.1-0.4,1.8-0.4c1.3,0,2.4,0.5,3.1,1.5c0.8,1,1.1,2.4,1.1,4.3s-0.3,3.3-1.1,4.3
		C118.2,26.7,117.2,27.2,115.9,27.2z M115.6,17.1c-1,0-1.8,0.3-2.3,1c-0.5,0.6-0.7,1.7-0.7,3v0.4c0,1.6,0.2,2.7,0.7,3.4
		c0.5,0.7,1.2,1,2.3,1c0.9,0,1.6-0.4,2-1.2c0.5-0.8,0.8-1.9,0.8-3.3s-0.2-2.4-0.8-3.2C117.3,17.4,116.6,17.1,115.6,17.1z"/>
	<path class="st0" d="M123.6,27h-1.5V11.1h1.5V27z"/>
	<path class="st0" d="M132.5,27l-0.3-1.6h-0.1c-0.5,0.7-1,1.2-1.5,1.4s-1.1,0.4-1.9,0.4c-1,0-1.8-0.3-2.4-0.8
		c-0.6-0.6-0.9-1.4-0.9-2.4c0-2.2,1.6-3.5,4.9-3.5l1.7-0.1v-0.7c0-0.9-0.2-1.5-0.5-1.9c-0.3-0.4-0.9-0.6-1.6-0.6
		c-0.9,0-1.8,0.3-2.8,0.8l-0.5-1.3c0.5-0.3,1-0.5,1.6-0.7c0.6-0.2,1.2-0.3,1.8-0.3c1.2,0,2.1,0.3,2.7,0.9c0.6,0.6,0.9,1.5,0.9,2.8
		V27C133.7,27,132.5,27,132.5,27z M129,25.8c0.9,0,1.7-0.3,2.3-0.9c0.5-0.6,0.8-1.4,0.8-2.4v-1l-1.5,0.1c-1.2,0.1-2.1,0.3-2.6,0.6
		c-0.5,0.4-0.8,1-0.8,1.7c0,0.6,0.2,1.1,0.5,1.4C127.9,25.6,128.4,25.8,129,25.8z"/>
	<path class="st0" d="M134.5,15.8h1.6l2.2,6.4c0.5,1.5,0.8,2.5,0.9,3.1h0.1c0.1-0.3,0.2-1,0.5-1.8c0.2-0.8,1.1-3.5,2.5-7.8h1.6
		l-4.3,12.7c-0.4,1.3-0.9,2.2-1.5,2.7c-0.6,0.5-1.3,0.8-2.1,0.8c-0.5,0-0.9-0.1-1.4-0.2v-1.3c0.3,0.1,0.7,0.1,1.2,0.1
		c1,0,1.8-0.6,2.3-2l0.6-1.6L134.5,15.8z"/>
</g>
<g>
	<path class="st0" d="M87.8,16.9c0.5,0.4,1.5,1.4,1.5,3.1c0,1.7-0.9,2.6-1.8,3.3c-0.3,0.3-0.6,0.6-0.6,1.2s0.3,0.8,0.6,1l0.8,0.6
		c0.9,0.9,1.8,1.7,1.8,3.3c0,2.2-1.9,4.4-5.6,4.4c-3.1,0-4.6-1.6-4.6-3.3c0-0.8,0.4-2.1,1.6-2.9c1.3-0.9,3.1-1,4.1-1.1
		c-0.3-0.4-0.6-0.9-0.6-1.6c0-0.4,0.1-0.6,0.2-0.9c-0.2,0-0.5,0.1-0.7,0.1c-2.3,0-3.5-1.9-3.5-3.7c0-1.1,0.5-2.2,1.3-3.1
		c1.2-1.1,2.7-1.3,3.8-1.3h4.3l-1.3,0.8C89.1,16.9,87.8,16.9,87.8,16.9z M86.4,27.2c-0.2,0-0.3,0-0.5,0s-1.3,0.1-2.2,0.4
		c-0.5,0.2-1.8,0.8-1.8,2.4c0,1.7,1.4,2.9,3.7,2.9c2,0,3.1-1.1,3.1-2.5C88.6,29.2,87.9,28.5,86.4,27.2z M86.9,22.8
		c0.5-0.5,0.5-1.3,0.5-1.7c0-1.7-0.9-4.3-2.7-4.3c-0.6,0-1.2,0.3-1.5,0.8c-0.3,0.5-0.5,1.2-0.5,1.7c0,1.5,0.8,4.2,2.7,4.2
		C86,23.5,86.6,23.1,86.9,22.8z"/>
	<path class="st0" d="M74.5,26.9c-3.4,0-5.2-2.9-5.2-5.5c0-3.1,2.3-5.7,5.5-5.7c3.1,0,5,2.7,5,5.5C79.9,23.9,78,26.9,74.5,26.9z
		 M77.1,25c0.5-0.8,0.6-1.7,0.6-2.6c0-2.1-0.9-6-3.5-6c-0.7,0-1.4,0.3-1.9,0.8c-0.8,0.8-1,1.9-1,2.9c0,2.3,1,6.2,3.6,6.2
		C75.8,26.1,76.7,25.7,77.1,25z"/>
	<path class="st0" d="M63.1,26.9c-3.4,0-5.2-2.9-5.2-5.5c0-3.1,2.3-5.7,5.5-5.7c3.1,0,5,2.7,5,5.5C68.4,23.9,66.5,26.9,63.1,26.9z
		 M65.7,25c0.5-0.8,0.6-1.7,0.6-2.6c0-2.1-0.9-6-3.5-6c-0.7,0-1.4,0.3-1.9,0.8c-0.8,0.8-1,1.9-1,2.9c0,2.3,1,6.2,3.6,6.2
		C64.3,26.1,65.2,25.7,65.7,25z"/>
	<path class="st0" d="M56.3,26.5l-3,0.8c-1.2,0.2-2.3,0.4-3.5,0.4c-5.9,0-8.1-4.7-8.1-8.5c0-4.5,3.2-8.8,8.6-8.8
		c1.2,0,2.3,0.2,3.2,0.5c1.6,0.5,2.3,1.1,2.8,1.5l-1.7,1.9l-0.8,0.2l0.5-1c-0.7-0.8-2-2.2-4.6-2.2c-3.4,0-5.9,2.8-5.9,6.9
		c0,4.4,2.9,8.6,7.5,8.6c1.4,0,2.1-0.3,2.7-0.6v-3.8l-3.2,0.2l1.7-1H57l-0.6,0.6c-0.2,0.1-0.2,0.2-0.2,0.4c0,0.2-0.1,0.9-0.1,1.2
		v2.8H56.3z"/>
	<path class="st0" d="M94.5,25.8c-0.7-0.1-0.9-0.2-0.9-1.2v-0.3V11.3c0-0.1,0-0.1,0-0.1c0.1-0.8,0.3-1,1-1.4h-3L90,10.6h1.6l0,0l0,0
		v13.7v0.8c0,0.4-0.1,0.5-0.6,1.2h3.8l0.8-0.5C95.3,25.9,94.9,25.9,94.5,25.8z"/>
	<path class="st0" d="M103.2,26c-0.2,0.1-0.5,0.3-0.7,0.4c-0.7,0.4-1.4,0.4-2,0.4c-0.7,0-1.7-0.1-2.8-0.9c-1.5-1.2-2.1-3.2-2.1-4.9
		c0-3.6,2.7-5.4,4.8-5.4c0.8,0,1.6,0.2,2.2,0.6c1,0.8,1.3,1.8,1.4,2.3l-5,2.2L97.4,21c0.5,2.9,2.3,4.7,4.3,4.7
		c1.1,0,1.9-0.4,2.6-0.8L103.2,26z M101.3,19.1c0.4-0.2,0.6-0.3,0.6-0.6c0-1-0.9-2-2.1-2c-0.9,0-2.4,0.7-2.4,3.3
		c0,0.4,0.1,0.8,0.1,1.2L101.3,19.1z"/>
	<g>
		<path class="st0" d="M105.3,15.8v1.5h-0.2v-1.5h-0.5v-0.2h1.1v0.1L105.3,15.8L105.3,15.8z"/>
		<path class="st0" d="M107.2,17.4v-1.5l0,0l-0.4,1.5h-0.1l-0.4-1.5l0,0v1.5h-0.2v-1.7h0.3l0.4,1.3l0,0l0.4-1.3h0.3v1.7H107.2z"/>
	</g>
</g>
<g id="PLAY">
	<g>
		<g>
			<defs>
				<path id="SVGID_1_" d="M24.3,14.4l-7.1-4.4c0,0-13-7.9-13.7-8.4C2.7,1.2,1.9,1.5,1.9,2.4c0,1.6,0,16.9,0,16.9s0,16.5,0,17.3
					c0,0.7,0.5,1,1.2,0.6c0.6-0.4,14-8.6,14-8.6l7.1-4.4c0,0,6-3.7,6.8-4.2c0.8-0.5,0.8-1.2,0.1-1.5S24.3,14.4,24.3,14.4z"/>
			</defs>
			<clipPath id="SVGID_2_">
				<use xlink:href="#SVGID_1_"  style="overflow:visible;"/>
			</clipPath>
			
				<linearGradient id="SVGID_3_" gradientUnits="userSpaceOnUse" x1="10.7531" y1="708.8425" x2="10.7531" y2="745.9375" gradientTransform="matrix(1 0 0 1 0 -708)">
				<stop  offset="0" style="stop-color:#207CB0"/>
				<stop  offset="0.3757" style="stop-color:#3CB2BF"/>
				<stop  offset="0.7961" style="stop-color:#58E9CE"/>
				<stop  offset="1" style="stop-color:#63FFD4"/>
			</linearGradient>
			<polygon class="st1" points="1.9,0.8 1.9,19.4 1.9,37.9 19.6,19.4 			"/>
		</g>
	</g>
	<g>
		<g>
			<defs>
				<path id="SVGID_4_" d="M24.3,14.4l-7.1-4.4c0,0-13-7.9-13.7-8.4C2.7,1.2,1.9,1.5,1.9,2.4c0,1.6,0,16.9,0,16.9s0,16.5,0,17.3
					c0,0.7,0.5,1,1.2,0.6c0.6-0.4,14-8.6,14-8.6l7.1-4.4c0,0,6-3.7,6.8-4.2c0.8-0.5,0.8-1.2,0.1-1.5S24.3,14.4,24.3,14.4z"/>
			</defs>
			<clipPath id="SVGID_5_">
				<use xlink:href="#SVGID_4_"  style="overflow:visible;"/>
			</clipPath>
			
				<linearGradient id="SVGID_6_" gradientUnits="userSpaceOnUse" x1="1.9397" y1="718.0361" x2="24.3211" y2="718.0361" gradientTransform="matrix(1 0 0 1 0 -708)">
				<stop  offset="0" style="stop-color:#4BC3AE"/>
				<stop  offset="1" style="stop-color:#DEE999"/>
			</linearGradient>
			<polygon class="st2" points="24.3,14.4 17.2,10.1 1.9,0.7 1.9,0.8 19.6,19.4 			"/>
		</g>
	</g>
	<g>
		<g>
			<defs>
				<path id="SVGID_7_" d="M24.3,14.4l-7.1-4.4c0,0-13-7.9-13.7-8.4C2.7,1.2,1.9,1.5,1.9,2.4c0,1.6,0,16.9,0,16.9s0,16.5,0,17.3
					c0,0.7,0.5,1,1.2,0.6c0.6-0.4,14-8.6,14-8.6l7.1-4.4c0,0,6-3.7,6.8-4.2c0.8-0.5,0.8-1.2,0.1-1.5S24.3,14.4,24.3,14.4z"/>
			</defs>
			<clipPath id="SVGID_8_">
				<use xlink:href="#SVGID_7_"  style="overflow:visible;"/>
			</clipPath>
			
				<linearGradient id="SVGID_9_" gradientUnits="userSpaceOnUse" x1="13.1304" y1="727.3893" x2="13.1304" y2="746.056" gradientTransform="matrix(1 0 0 1 0 -708)">
				<stop  offset="0" style="stop-color:#EC403D"/>
				<stop  offset="0.384" style="stop-color:#C93B75"/>
				<stop  offset="0.7988" style="stop-color:#A636AC"/>
				<stop  offset="1" style="stop-color:#9934C2"/>
			</linearGradient>
			<polygon class="st3" points="1.9,37.9 1.9,38.1 17.2,28.7 24.3,24.4 19.6,19.4 			"/>
		</g>
	</g>
	<g>
		<g>
			<defs>
				<path id="SVGID_10_" d="M24.3,14.4l-7.1-4.4c0,0-13-7.9-13.7-8.4C2.7,1.2,1.9,1.5,1.9,2.4c0,1.6,0,16.9,0,16.9s0,16.5,0,17.3
					c0,0.7,0.5,1,1.2,0.6c0.6-0.4,14-8.6,14-8.6l7.1-4.4c0,0,6-3.7,6.8-4.2c0.8-0.5,0.8-1.2,0.1-1.5S24.3,14.4,24.3,14.4z"/>
			</defs>
			<clipPath id="SVGID_11_">
				<use xlink:href="#SVGID_10_"  style="overflow:visible;"/>
			</clipPath>
			
				<linearGradient id="SVGID_12_" gradientUnits="userSpaceOnUse" x1="26.0026" y1="722.4118" x2="26.0026" y2="732.3675" gradientTransform="matrix(1 0 0 1 0 -708)">
				<stop  offset="0" style="stop-color:#FF8877"/>
				<stop  offset="0.6121" style="stop-color:#FFB175"/>
				<stop  offset="1" style="stop-color:#FFC774"/>
			</linearGradient>
			<polygon class="st4" points="24.3,14.4 19.6,19.4 24.3,24.4 32.4,19.4 			"/>
		</g>
	</g>
</g>
</svg>
