<?xml version="1.0" encoding="utf-8"?>
<!-- Generator: Adobe Illustrator 21.0.0, SVG Export Plug-In . SVG Version: 6.00 Build 0)  -->
<svg version="1.1" id="Calque_1" xmlns="http://www.w3.org/2000/svg" xmlns:xlink="http://www.w3.org/1999/xlink" x="0px" y="0px"
	 viewBox="0 0 344 42" style="enable-background:new 0 0 344 42;" xml:space="preserve">
<style type="text/css">
	.st0{fill:#ED1C24;}
	.st1{fill:#FFFFFF;}
	.st2{fill:#EA212E;}
	.st3{fill:#CBCBCA;}
	.st4{fill:none;}
</style>
<g>
	<path class="st0" d="M188,3.9c-5.7,0-10.7,2.7-14,6.8c-3.2-4.2-8.3-6.8-14-6.8c-5.7,0-10.7,2.7-14,6.8c-1.3-1.7-2.9-3.1-4.7-4.3
		l0,15.1c0,5.1-4.1,9.2-9.2,9.2c-5.1,0-9.2-4.1-9.2-9.2c0-5.1,4.1-9.2,9.2-9.2c1.7,0,3.4,0.5,4.8,1.4l0.4,0.2l0-9.3
		c-1.6-0.5-3.4-0.8-5.2-0.8c-5.7,0-10.7,2.7-14,6.8c-3.2-4.2-8.3-6.8-14-6.8c-5.7,0-10.7,2.7-14,6.8C87,6.6,82,3.9,76.3,3.9
		c-5.7,0-10.7,2.7-14,6.8c-3.2-4.2-8.3-6.8-14-6.8c-5.7,0-10.7,2.7-14,6.8c-3.2-4.2-8.3-6.8-14-6.8c-9.8,0-17.7,7.9-17.7,17.7
		c0,9.8,7.9,17.7,17.7,17.7c5.7,0,10.7-2.7,14-6.8c3.2,4.2,8.3,6.8,14,6.8c5.7,0,10.7-2.7,14-6.8c3.2,4.2,8.3,6.8,14,6.8
		c5.7,0,10.7-2.7,14-6.8c3.2,4.2,8.3,6.8,14,6.8c5.7,0,10.7-2.7,14-6.8c3.2,4.2,8.3,6.8,14,6.8c5.7,0,10.7-2.7,14-6.8
		c3.2,4.2,8.3,6.8,14,6.8c5.7,0,10.7-2.7,14-6.8c3.2,4.2,8.3,6.8,14,6.8c9.8,0,17.7-7.9,17.7-17.7C205.7,11.8,197.8,3.9,188,3.9z"/>
	<path class="st1" d="M160.1,30.8c-5.1,0-9.2-4.1-9.2-9.2c0-5.1,4.1-9.2,9.2-9.2c5.1,0,9.2,4.1,9.2,9.2
		C169.3,26.7,165.1,30.8,160.1,30.8z M160.1,16.4c-2.9,0-5.2,2.3-5.2,5.2c0,2.9,2.3,5.2,5.2,5.2c2.9,0,5.2-2.3,5.2-5.2
		C165.2,18.8,162.9,16.4,160.1,16.4z"/>
	<path class="st1" d="M188,30.8c-5.1,0-9.2-4.1-9.2-9.2c0-5.1,4.1-9.2,9.2-9.2c5.1,0,9.2,4.1,9.2,9.2
		C197.2,26.7,193.1,30.8,188,30.8z M188,16.4c-2.9,0-5.2,2.3-5.2,5.2c0,2.9,2.3,5.2,5.2,5.2c2.9,0,5.2-2.3,5.2-5.2
		C193.2,18.8,190.8,16.4,188,16.4z"/>
	<path class="st1" d="M48.4,30.8c-5.1,0-9.2-4.1-9.2-9.2c0-5.1,4.1-9.2,9.2-9.2c5.1,0,9.2,4.1,9.2,9.2
		C57.6,26.7,53.5,30.8,48.4,30.8z M48.4,16.4c-2.9,0-5.2,2.3-5.2,5.2c0,2.9,2.3,5.2,5.2,5.2c2.9,0,5.2-2.3,5.2-5.2
		C53.6,18.8,51.2,16.4,48.4,16.4z"/>
	<path class="st1" d="M20.5,30.8c-5.1,0-9.2-4.1-9.2-9.2c0-5.1,4.1-9.2,9.2-9.2c5.1,0,9.2,4.1,9.2,9.2
		C29.7,26.7,25.5,30.8,20.5,30.8z M20.5,16.4c-2.9,0-5.2,2.3-5.2,5.2c0,2.9,2.3,5.2,5.2,5.2c2.9,0,5.2-2.3,5.2-5.2
		C25.6,18.8,23.3,16.4,20.5,16.4z"/>
	<path class="st1" d="M104.5,30.8c-0.3,0-0.6,0-0.8,0l-0.2,0l-0.3,0c-4.7-0.5-8.2-4.4-8.2-9.1c0-5.1,4.1-9.2,9.2-9.2
		c5.1,0,9.2,4.1,9.2,9.2c0,0.6-0.1,1.1-0.2,1.7l-13.9,0l0.3,0.7c0.7,1.4,2.1,2.4,3.6,2.7c0.4,0.1,0.9,0.1,1.4,0.1l0.2,0
		c1.3,0,2.6-0.5,3.5-1.3l0.1-0.1l3.7,2l-0.2,0.2c-1.7,2-4.1,3.1-7.1,3.2C104.7,30.8,104.6,30.8,104.5,30.8z M104.2,16.4
		c-2.1,0-4,1.3-4.8,3.2l0,0.1l9.6,0l0-0.1C108.2,17.7,106.3,16.4,104.2,16.4z"/>
	<path class="st1" d="M67.6,30.3l0-8.7l0-0.5c0.3-4.9,4.3-8.7,9.2-8.7c3.5,0,6.6,1.9,8.2,5.1l-3.6,1.9c-0.9-1.8-2.7-3-4.7-3
		c-2.9,0-5.2,2.3-5.2,5.2l0,8.7H67.6z"/>
	<circle class="st2" cx="132.1" cy="21.6" r="5.2"/>
	<path class="st1" d="M137.3,4.7l0,9.3l-0.4-0.2c-1.4-0.9-3.1-1.4-4.8-1.4c-5.1,0-9.2,4.1-9.2,9.2c0,5.1,4.1,9.2,9.2,9.2
		c5.1,0,9.2-4.1,9.2-9.2l0-15.1C140.1,5.8,138.8,5.1,137.3,4.7z M132.1,26.8c-2.9,0-5.2-2.3-5.2-5.2c0-2.9,2.3-5.2,5.2-5.2
		c2.9,0,5.2,2.3,5.2,5.2C137.3,24.5,135,26.8,132.1,26.8z"/>
</g>
<rect x="220.2" y="4.6" class="st3" width="1.5" height="33.9"/>
<g>
	<g>
		<path class="st4" d="M295.3,20.5c-2.3,2.3-2.3,6-0.1,8.3c2,2.2,6,2.6,8.5,0.1c2.3-2.3,2.3-6.1,0-8.4
			C301.4,18.2,297.6,18.2,295.3,20.5z"/>
		<path d="M304.2,17.8c-3.9-2.6-8.8-1.7-11.5,2.1c-3.2,4.5-1.2,10.8,4,12.6c0.9,0.3,1.9,0.4,2.9,0.6c0,0,0,0,0,0c-2,2-1.4,1.5-4,4
			l1.7,1.7c3.6-3.5,4.8-4.8,8.1-8.1c0.3-0.3,0.6-0.6,0.9-1C309,26.1,308.1,20.4,304.2,17.8z M303.7,28.9c-2.5,2.5-6.5,2.1-8.5-0.1
			c-2.2-2.3-2.2-6,0.1-8.3c2.3-2.3,6.1-2.3,8.4,0C306,22.8,306,26.6,303.7,28.9z"/>
	</g>
	<g>
		<path class="st4" d="M277.3,20.5c-2.3,2.3-2.3,6-0.1,8.3c2,2.2,6,2.6,8.5,0.1c2.3-2.3,2.3-6.1,0-8.4
			C283.4,18.2,279.6,18.2,277.3,20.5z"/>
		<path d="M286.2,17.8c-3.9-2.6-8.8-1.7-11.5,2.1c-3.2,4.5-1.2,10.8,4,12.6c0.9,0.3,1.9,0.4,2.9,0.6c0,0,0,0,0,0c-2,2-1.4,1.5-4,4
			l1.7,1.7c3.6-3.5,4.8-4.8,8.1-8.1c0.3-0.3,0.6-0.6,0.9-1C291,26.1,290.1,20.4,286.2,17.8z M285.7,28.9c-2.5,2.5-6.5,2.1-8.5-0.1
			c-2.2-2.3-2.2-6,0.1-8.3c2.3-2.3,6.1-2.3,8.4,0C288,22.8,288,26.6,285.7,28.9z"/>
	</g>
	<path class="st4" d="M262.6,18.1c-3.3,0-5.9,2.6-6,5.8c-0.1,3,2.4,6.1,5.9,6.1c3.3,0,6-2.7,6-6C268.5,20.8,265.9,18.1,262.6,18.1z"
		/>
	<path d="M340,18.3c0-0.1,0-0.1,0-0.2c-0.8,0-1.6,0-2.4,0c0,0.3,0,0.4,0,0.6c0,2.6,0,5.2-0.1,7.8c-0.1,1.9-1.1,3-2.8,3.4
		c-0.5,0.1-1,0.1-1.6,0.1c-2.7,0-4.8-2.1-4.9-4.8c0-2.2,0-4.4,0-6.5c0-0.2,0-0.4,0-0.5c-0.9,0-1.7,0-2.5,0c0,1.2,0,2.3,0,3.5
		c0,1.5,0,2.9-0.2,4.4c-0.3,2.3-1.7,3.7-3.9,4c-1.7,0.2-3.2-0.2-4.3-1.6c-0.7-0.9-0.9-2-0.9-3.1c0-2.2,0-4.4,0-6.6
		c0-0.2,0-0.3,0-0.5c-0.9,0-1.7,0-2.5,0c0,1.2,0,2.4,0,3.5c0,1.4,0,2.9-0.2,4.3c-0.4,2.5-2.2,4-4.7,4c-1.7,0-3.4,0-5.1,0
		c-0.1,0-0.2,0-0.3,0v2.4c1.8,0,3.7,0,5.5,0c2.7,0,4.7-1.2,6-3.5c0.1-0.1,0.1-0.2,0.2-0.3c1.3,2.5,3.1,3.9,5.9,3.9
		c2.8-0.1,4.7-1.4,5.9-3.9c0.1,0.1,0.1,0.2,0.1,0.2c1.8,3,5.8,4.4,9,3.3c2.2-0.8,3.7-2.8,3.8-5.4C340,23.9,340,21.1,340,18.3z"/>
	<path d="M261.2,15.9c-5.5,0.9-8.5,6.8-6.1,11.7c0.4,0.9,1.1,1.6,1.6,2.5c0,0,0,0,0,0c-3.1,0-6.2,0.1-9.3,0
		c-2.6-0.1-4.5-1.3-5.7-3.7c-0.7-1.4-0.9-2.8-1-4.3c0-1.3,0-2.6,0-3.9c-0.9,0-1.7,0-2.5,0c0,1.4,0,2.9,0,4.3
		c0.1,1.9,0.5,3.7,1.4,5.3c1.8,3.2,4.7,4.6,8.3,4.7c4.8,0.1,9.7,0,14.5,0c0.4,0,0.9,0,1.3-0.1c4.6-0.5,8.1-5.2,7.1-9.8
		C269.8,18,265.7,15.1,261.2,15.9z M262.6,30c-3.6,0-6-3.1-5.9-6.1c0.1-3.2,2.7-5.8,6-5.8c3.3,0,5.9,2.7,5.9,5.9
		C268.5,27.3,265.8,30,262.6,30z"/>
	<path d="M323,14.5c1.4,0,2.5-1.1,2.5-2.5c0-1.4-1.1-2.5-2.5-2.5c-1.4,0-2.5,1-2.5,2.4C320.5,13.4,321.6,14.5,323,14.5z"/>
	<path d="M328,12.1c0,1.4,1.1,2.5,2.5,2.5c1.4,0,2.5-1.1,2.5-2.5c0-1.4-1.1-2.5-2.5-2.5C329.1,9.6,328,10.6,328,12.1z"/>
	<path d="M294.5,25.9c0,2.1,1.6,3.6,3.7,3.6c2.1,0,3.7-1.6,3.6-3.7c0-2.1-1.6-3.6-3.7-3.6C296,22.2,294.5,23.8,294.5,25.9z"/>
	<path d="M276.4,25.9c0,2.1,1.6,3.6,3.7,3.6c2.1,0,3.7-1.6,3.6-3.7c0-2.1-1.6-3.6-3.7-3.6C277.9,22.2,276.4,23.8,276.4,25.9z"/>
	<path d="M326.7,8.9c1.5,0,2.5-1,2.5-2.4c0-1.4-1-2.5-2.4-2.5c-1.4,0-2.5,1.1-2.5,2.5C324.2,7.9,325.2,8.9,326.7,8.9z"/>
	<path d="M262.8,14.5c1.4,0,2.5-1,2.5-2.4c0-1.4-1.1-2.5-2.5-2.5c-1.4,0-2.5,1-2.5,2.5C260.3,13.5,261.3,14.5,262.8,14.5z"/>
</g>
</svg>
