<?xml version="1.0" encoding="utf-8"?>
<!-- Generator: Adobe Illustrator 16.0.0, SVG Export Plug-In . SVG Version: 6.00 Build 0)  -->
<!DOCTYPE svg PUBLIC "-//W3C//DTD SVG 1.1//EN" "http://www.w3.org/Graphics/SVG/1.1/DTD/svg11.dtd">
<svg version="1.1" id="Calque_1" xmlns="http://www.w3.org/2000/svg" xmlns:xlink="http://www.w3.org/1999/xlink" x="0px" y="0px"
	 width="1417.32px" height="199px" viewBox="0 322.445 1417.32 199" enable-background="new 0 322.445 1417.32 199"
	 xml:space="preserve">
<g>
	<path fill="#ED1C24" d="M774.582,350.491c-23.484,0-44.085,11.124-57.682,28.017c-13.185-17.305-34.197-28.017-57.682-28.017
		s-44.085,11.124-57.682,28.017c-5.356-7.004-11.948-12.772-19.364-17.717v62.214c0,21.013-16.893,37.905-37.905,37.905
		s-37.905-16.893-37.905-37.905s16.893-37.905,37.905-37.905c7.004,0,14.009,2.061,19.776,5.769l1.648,0.824v-38.317
		c-6.593-2.06-14.009-3.296-21.425-3.296c-23.484,0-44.085,11.124-57.682,28.017c-13.185-17.305-34.197-28.017-57.682-28.017
		c-23.485,0-44.085,11.124-57.682,28.017c-12.772-16.48-33.373-27.604-56.857-27.604c-23.485,0-44.085,11.124-57.682,28.017
		c-13.185-17.305-34.197-28.017-57.682-28.017c-23.484,0-44.085,11.124-57.682,28.017c-13.184-17.305-34.197-28.017-57.682-28.017
		c-40.377,0-72.926,32.549-72.926,72.926s32.549,72.926,72.926,72.926c23.485,0,44.085-11.124,57.682-28.017
		c13.185,17.305,34.197,28.017,57.682,28.017c23.485,0,44.085-11.124,57.682-28.017c13.184,17.305,34.197,28.017,57.682,28.017
		c23.484,0,44.085-11.124,57.682-28.017c13.184,17.305,34.197,28.017,57.682,28.017c23.484,0,44.085-11.124,57.682-28.017
		c13.185,17.305,34.196,28.017,57.682,28.017c23.484,0,44.085-11.124,57.682-28.017c13.185,17.305,34.196,28.017,57.682,28.017
		c23.484,0,44.085-11.124,57.682-28.017c13.185,17.305,34.196,28.017,57.682,28.017c40.377,0,72.926-32.549,72.926-72.926
		C847.508,383.04,814.959,350.491,774.582,350.491z"/>
	<path fill="#FFFFFF" d="M659.631,461.322c-21.013,0-37.905-16.893-37.905-37.905s16.893-37.905,37.905-37.905
		s37.905,16.893,37.905,37.905S680.231,461.322,659.631,461.322z M659.631,401.992c-11.948,0-21.425,9.477-21.425,21.425
		s9.477,21.425,21.425,21.425s21.425-9.477,21.425-21.425C680.644,411.881,671.167,401.992,659.631,401.992z"/>
	<path fill="#FFFFFF" d="M774.582,461.322c-21.013,0-37.905-16.893-37.905-37.905s16.893-37.905,37.905-37.905
		s37.905,16.893,37.905,37.905S795.595,461.322,774.582,461.322z M774.582,401.992c-11.948,0-21.425,9.477-21.425,21.425
		s9.477,21.425,21.425,21.425s21.425-9.477,21.425-21.425C796.007,411.881,786.118,401.992,774.582,401.992z"/>
	<path fill="#FFFFFF" d="M199.414,461.322c-21.013,0-37.905-16.893-37.905-37.905s16.892-37.905,37.905-37.905
		s37.905,16.893,37.905,37.905S220.426,461.322,199.414,461.322z M199.414,401.992c-11.948,0-21.424,9.477-21.424,21.425
		s9.476,21.425,21.424,21.425s21.425-9.477,21.425-21.425C220.838,411.881,210.95,401.992,199.414,401.992z"/>
	<path fill="#FFFFFF" d="M84.462,461.322c-21.013,0-37.905-16.893-37.905-37.905s16.893-37.905,37.905-37.905
		s37.905,16.893,37.905,37.905S105.063,461.322,84.462,461.322z M84.462,401.992c-11.948,0-21.425,9.477-21.425,21.425
		s9.477,21.425,21.425,21.425s21.425-9.477,21.425-21.425C105.475,411.881,95.999,401.992,84.462,401.992z"/>
	<path fill="#FFFFFF" d="M430.552,461.322c-1.235,0-2.472,0-3.296,0h-0.823h-1.236c-19.365-2.061-33.785-18.129-33.785-37.493
		c0-21.013,16.893-37.905,37.905-37.905s37.905,16.893,37.905,37.905c0,2.472-0.412,4.532-0.824,7.004h-57.27l1.236,2.885
		c2.884,5.768,8.652,9.888,14.833,11.124c1.647,0.412,3.708,0.412,5.768,0.412h0.824c5.356,0,10.713-2.061,14.421-5.356l0.412-0.412
		l15.244,8.24l-0.824,0.824c-7.004,8.24-16.893,12.772-29.253,13.185C431.376,461.322,430.964,461.322,430.552,461.322z
		 M429.316,401.992c-8.652,0-16.48,5.356-19.777,13.185v0.412h39.553v-0.412C445.797,407.349,437.969,401.992,429.316,401.992z"/>
	<path fill="#FFFFFF" d="M278.52,459.262v-35.845v-2.06c1.236-20.188,17.716-35.846,37.905-35.846
		c14.42,0,27.193,7.828,33.785,21.013l-14.833,7.828c-3.708-7.416-11.125-12.36-19.365-12.36c-11.948,0-21.424,9.477-21.424,21.425
		v35.845H278.52z"/>
	<circle fill="#EA212E" cx="544.268" cy="423.417" r="21.425"/>
	<path fill="#FFFFFF" d="M565.692,353.787v38.317l-1.648-0.824c-5.768-3.708-12.772-5.769-19.776-5.769
		c-21.013,0-37.905,16.893-37.905,37.905s16.893,37.905,37.905,37.905s37.905-16.893,37.905-37.905v-62.214
		C577.229,358.319,571.872,355.436,565.692,353.787z M544.268,444.842c-11.948,0-21.425-9.477-21.425-21.425
		s9.477-21.425,21.425-21.425s21.425,9.477,21.425,21.425S556.216,444.842,544.268,444.842z"/>
</g>
<rect x="887.6" y="353.375" fill="#CBCBCA" width="6.18" height="139.672"/>
<g>
	<g>
		
			<linearGradient id="SVGID_1_" gradientUnits="userSpaceOnUse" x1="872.2813" y1="503.2715" x2="918.6346" y2="580.7027" gradientTransform="matrix(1 0 0 -1 287.7002 964.3457)">
			<stop  offset="0.0012" style="stop-color:#CB0000"/>
			<stop  offset="0.2173" style="stop-color:#C60000"/>
			<stop  offset="0.4912" style="stop-color:#B60000"/>
			<stop  offset="0.7746" style="stop-color:#9E0000"/>
			<stop  offset="0.9974" style="stop-color:#720000"/>
		</linearGradient>
		<path fill="url(#SVGID_1_)" d="M1182.519,477.756c-29.957,0-54.331-24.363-54.331-54.326c0-29.954,24.374-54.329,54.331-54.329
			c29.949,0,54.324,24.367,54.324,54.329C1236.843,453.393,1212.468,477.756,1182.519,477.756z M1182.519,391.456
			c-17.638,0-31.988,14.342-31.988,31.974c0,17.642,14.351,31.991,31.988,31.991c17.631,0,31.981-14.35,31.981-31.991
			C1214.5,405.798,1200.149,391.456,1182.519,391.456z"/>
	</g>
	
		<linearGradient id="SVGID_2_" gradientUnits="userSpaceOnUse" x1="998.502" y1="585.5957" x2="965.3153" y2="500.2584" gradientTransform="matrix(1 0 0 -1 287.7002 964.3457)">
		<stop  offset="0.0012" style="stop-color:#CB0000"/>
		<stop  offset="0.2173" style="stop-color:#C60000"/>
		<stop  offset="0.4912" style="stop-color:#B60000"/>
		<stop  offset="0.7746" style="stop-color:#9E0000"/>
		<stop  offset="0.9974" style="stop-color:#720000"/>
	</linearGradient>
	<path fill="url(#SVGID_2_)" d="M1268.823,477.756c-29.949,0-54.323-24.363-54.323-54.326c0-29.954,24.371-54.329,54.323-54.329
		c29.966,0,54.329,24.367,54.329,54.329C1323.155,453.393,1298.789,477.756,1268.823,477.756z M1268.823,392.302
		c-17.167,0-31.13,13.97-31.13,31.127c0,17.174,13.971,31.138,31.13,31.138c17.168,0,31.131-13.964,31.131-31.138
		C1299.954,406.272,1285.991,392.302,1268.823,392.302z"/>
	<g>
		<path opacity="0.44" fill="#CB0000" enable-background="new    " d="M1268.651,369.101L1268.651,369.101c0.029,0,0.057,0,0.09,0
			H1268.651z"/>
		<path opacity="0.44" fill="#CB0000" enable-background="new    " d="M1268.741,477.756c-0.033,0-0.061,0-0.09,0l0,0H1268.741z"/>
		<path opacity="0.44" fill="#CB0000" enable-background="new    " d="M1235.843,433.998c1.256-7.639,3.302-13.168,3.754-15.726
			c3.106-16.544,15.481-25.895,30.89-25.932v-23.232c-19.259,0.035-37.521,10.671-46.952,26.719c0,0-8.207,12.656-8.294,23.798
			c-0.105,1.388,0.67,5.405,0.14,8.091c-2.776,18.865-18.079,29.997-37.336,27.243v22.48c23.11,2.144,38.269-7.847,48.544-21.317
			C1226.588,456.116,1233.669,446.973,1235.843,433.998z"/>
	</g>
	<g>
		<path fill="#171717" d="M931.53,422.62c0-31.003,22.085-53.542,52.481-53.542c18.751,0,30.097,7.117,36.749,14.975
			c1.968,2.423,3.024,4.845,3.024,7.259c0,6.203-4.987,10.593-10.589,10.593c-2.567,0-4.832-1.057-6.649-2.271
			c-6.813-4.533-11.345-9.378-22.841-9.378c-15.726,0-28.128,13.61-28.128,32.507c0,18.906,12.702,32.517,28.73,32.517
			c11.646,0,16.482-5.14,22.841-9.38c1.813-1.206,4.084-2.271,6.658-2.271c5.596,0,10.433,4.389,10.433,10.597
			c0,2.422-0.908,4.841-2.872,7.248c-6.512,8.023-18.003,14.983-37.662,14.983C953.457,476.456,931.53,453.774,931.53,422.62z"/>
		<path fill="#171717" d="M1119.213,381.183v88.615c0,3.178-1.967,5.147-4.996,5.147h-14.211c-3.179,0-5.139-1.97-5.139-5.147
			v-34.621h-39.477v34.621c0,3.178-1.968,5.147-4.992,5.147h-14.219c-3.174,0-5.138-1.97-5.138-5.147v-88.615
			c0-6.658,5.445-12.104,12.104-12.104c6.65,0,12.248,5.446,12.248,12.104v32.063h39.477v-32.063
			c0-6.658,5.443-12.104,12.097-12.104C1113.614,369.078,1119.213,374.524,1119.213,381.183z"/>
		<path fill="#171717" d="M1360.426,393.287v20.411h32.51c6.654,0,12.102,4.687,12.102,11.337s-5.447,11.34-12.102,11.34h-32.51
			v33.423c0,3.178-1.973,5.147-4.996,5.147h-14.208c-3.182,0-5.142-1.97-5.142-5.147v-87.404c0-7.869,5.439-11.799,11.946-11.799
			h0.146h51.575c6.653,0,12.101,4.687,12.101,11.341c0,6.658-5.447,11.345-12.101,11.345h-39.322V393.287z"/>
	</g>
</g>
</svg>
