<?xml version="1.0" encoding="utf-8"?>
<!-- Generator: Adobe Illustrator 16.0.0, SVG Export Plug-In . SVG Version: 6.00 Build 0)  -->
<!DOCTYPE svg PUBLIC "-//W3C//DTD SVG 1.1//EN" "http://www.w3.org/Graphics/SVG/1.1/DTD/svg11.dtd">
<svg version="1.1" id="Calque_1" xmlns="http://www.w3.org/2000/svg" xmlns:xlink="http://www.w3.org/1999/xlink" x="0px" y="0px"
	 width="21.25px" height="19px" viewBox="0 0 21.25 19" enable-background="new 0 0 21.25 19" xml:space="preserve">
<g>
	<path fill="#1E1E1E" d="M0.831,15.879c0-4.279,0-8.559,0-12.838C0.854,2.999,0.886,2.96,0.899,2.915
		c0.375-1.353,1.377-2.125,2.77-2.126c4.015-0.001,8.031-0.001,12.045,0c1.526,0.001,2.532,1.013,2.535,2.544
		c0.002,0.612,0.001,1.224,0.001,1.843c0.789,0.335,1.352,0.883,1.634,1.678c0.308,0.86,0.119,1.748,0.171,2.643
		c-1.234,0-2.408-0.002-3.584,0c-1.388,0.003-2.43,1.044-2.426,2.414c0.006,1.353,1.042,2.384,2.411,2.39
		c1.063,0.004,2.127,0.001,3.188,0.001c0.131,0,0.264,0,0.405,0c0,0.423,0.007,0.785,0,1.147c-0.028,1.509-1.248,2.748-2.761,2.753
		c-4.566,0.011-9.133,0.015-13.699-0.004c-1.118-0.007-1.948-0.567-2.463-1.563C1.004,16.396,0.928,16.133,0.831,15.879z
		 M17.048,4.993c0-0.57,0-1.083,0-1.595c-0.001-0.954-0.448-1.407-1.394-1.407c-3.064-0.001-6.129-0.001-9.192,0
		c-0.975,0-1.951-0.011-2.926,0.004C2.468,2.011,1.764,3.029,2.125,4.009c0.223,0.605,0.787,0.983,1.496,0.983
		c4.377,0.002,8.755,0.001,13.131,0.001C16.838,4.993,16.923,4.993,17.048,4.993z"/>
	<path fill="#1E1E1E" d="M20.419,10.698c0,0.808,0,1.579,0,2.382c-0.104,0.006-0.214,0.02-0.319,0.021c-1.076,0-2.152,0.002-3.228,0
		c-0.737-0.004-1.243-0.496-1.238-1.209c0.002-0.709,0.507-1.19,1.252-1.192c1.063-0.003,2.128-0.002,3.189-0.002
		C20.184,10.698,20.292,10.698,20.419,10.698z M17.432,11.906c0.004-0.323-0.268-0.602-0.593-0.604
		c-0.323-0.003-0.601,0.269-0.604,0.593c-0.004,0.323,0.27,0.603,0.593,0.604C17.154,12.501,17.428,12.232,17.432,11.906z"/>
	<path fill="#1E1E1E" d="M9.922,2.891c1.825,0,3.648,0,5.475,0c0.11,0,0.229-0.011,0.334,0.013c0.304,0.066,0.49,0.261,0.496,0.574
		c0.004,0.331-0.185,0.537-0.504,0.602c-0.123,0.024-0.25,0.012-0.375,0.012c-3.625,0-7.25,0-10.873,0c-0.099,0-0.2,0.007-0.3-0.004
		C3.852,4.051,3.619,3.795,3.622,3.487C3.624,3.176,3.857,2.93,4.187,2.895c0.098-0.01,0.2-0.004,0.3-0.004
		C6.298,2.891,8.11,2.891,9.922,2.891z"/>
	<path fill="#FFFFFF" d="M17.432,11.906c-0.004,0.326-0.277,0.595-0.604,0.593c-0.323-0.003-0.596-0.281-0.592-0.604
		c0.003-0.324,0.279-0.596,0.604-0.593C17.164,11.307,17.436,11.583,17.432,11.906z"/>
</g>
</svg>
