<?xml version="1.0" encoding="utf-8"?>
<!-- Generator: Adobe Illustrator 21.0.0, SVG Export Plug-In . SVG Version: 6.00 Build 0)  -->
<svg version="1.1" id="Calque_1" xmlns="http://www.w3.org/2000/svg" xmlns:xlink="http://www.w3.org/1999/xlink" x="0px" y="0px"
	 viewBox="0 0 19.3 24.1" style="enable-background:new 0 0 19.3 24.1;" xml:space="preserve">
<style type="text/css">
	.st0{fill:#FFFFFF;}
</style>
<g>
	<path class="st0" d="M9,1C6.8,1,4.7,1.9,3.2,3.4C3,3.6,2.9,3.7,2.8,3.9c-0.2,0.3-0.3,0.7-0.3,1c0,1,0.8,1.9,1.9,1.9
		c0.5,0,0.9-0.2,1.2-0.5L5.9,6C6.7,5.2,7.8,4.8,9,4.8c2.5,0,4.6,2,4.6,4.6c0,2.5-2,4.6-4.6,4.6c-0.2,0-0.4,0-0.6,0l-0.2,0l-0.1,0
		c-0.5,0-1,0.4-1.1,0.9L7,15v2.7c0,0.6,0.5,1.2,1.2,1.2c0.6,0,1.2-0.5,1.2-1.2v-0.1c4.5-0.2,8-3.8,8-8.3C17.4,4.7,13.6,1,9,1"/>
	<path class="st0" d="M10.3,21.6c0,1.1-0.9,2.1-2.1,2.1c-1.1,0-2.1-0.9-2.1-2.1c0-1.1,0.9-2.1,2.1-2.1C9.4,19.6,10.3,20.5,10.3,21.6
		"/>
</g>
</svg>
