<?xml version="1.0" encoding="utf-8"?>
<!-- Generator: Adobe Illustrator 16.0.0, SVG Export Plug-In . SVG Version: 6.00 Build 0)  -->
<!DOCTYPE svg PUBLIC "-//W3C//DTD SVG 1.1//EN" "http://www.w3.org/Graphics/SVG/1.1/DTD/svg11.dtd">
<svg version="1.1" id="Layer_1" xmlns="http://www.w3.org/2000/svg" xmlns:xlink="http://www.w3.org/1999/xlink" x="0px" y="0px"
	 width="109.375px" height="53px" viewBox="0 0 109.375 53" enable-background="new 0 0 109.375 53" xml:space="preserve">
<g>
	<g>
		<g>
			<path fill="#257016" d="M101.988,41.563c0,2.75-2.345,4.978-5.238,4.978H67.147c-2.894,0-5.238-2.228-5.238-4.978V13.428
				c0-2.749,2.345-4.978,5.238-4.978H96.75c2.894,0,5.238,2.229,5.238,4.978V41.563L101.988,41.563z"/>
			<path fill="#65BC54" d="M101.988,39.572c0,2.748-2.345,4.977-5.238,4.977H67.147c-2.894,0-5.238-2.229-5.238-4.977V11.438
				c0-2.749,2.345-4.978,5.238-4.978H96.75c2.894,0,5.238,2.229,5.238,4.978V39.572L101.988,39.572z"/>
			<path fill="#449234" d="M101.985,39.572V22.797c-0.55-0.52-9.313-6.629-10.719-7.963c-1.184-1.122-7.1-0.835-8.941-0.876
				c-1.709-0.037-3.429,0.18-5.062,0.668c-1.48,0.443-5.127,10.974-4.102,12.359c0.549,0.74-1.079,2.518-0.407,3.156
				c0.706,0.671,1.411,1.341,2.116,2.011c0.085,0.082,0.17,0.162,0.255,0.241c0.042,0.041,0.083,0.081,0.126,0.121
				c0.027,0.024,3.696,0.875,3.707,0.909c0.045,0.161-3.626,5.501-3.609,5.667c0.036,0.347-3.153,0.933-3.228,1.272
				c0.612,0.436,8.688,4.188,8.688,4.188h15.938C99.642,44.549,101.985,42.32,101.985,39.572z"/>
			<path fill="#FFFFFF" d="M81.949,12.087c-8.078,0-14.633,5.423-14.633,11.818c0,3.772,2.28,7.125,5.809,9.242
				c1.923,1.762,1.735,4.592-0.932,7.215c3.235,0,8.38-1.912,9.524-4.885c0.079,0,0.154,0,0.23,0
				c8.078,0,14.633-5.183,14.633-11.577C96.582,17.504,90.027,12.087,81.949,12.087z M74.121,27.888
				c-0.821,0-1.632-0.213-2.037-0.437l0.332-1.344c0.438,0.224,1.108,0.447,1.802,0.447c0.747,0,1.143-0.309,1.143-0.779
				c0-0.447-0.342-0.704-1.205-1.013c-1.195-0.416-1.975-1.077-1.975-2.123c0-1.227,1.025-2.165,2.721-2.165
				c0.811,0,1.408,0.17,1.835,0.362l-0.363,1.312c-0.289-0.138-0.8-0.341-1.504-0.341s-1.045,0.32-1.045,0.694
				c0,0.458,0.406,0.66,1.334,1.013c1.269,0.47,1.866,1.131,1.866,2.144C77.022,26.864,76.094,27.888,74.121,27.888z M84.313,27.781
				l-0.107-2.752c-0.032-0.863-0.063-1.909-0.063-2.955h-0.032c-0.225,0.917-0.522,1.941-0.799,2.784l-0.875,2.806h-1.271
				l-0.769-2.784c-0.234-0.842-0.479-1.867-0.65-2.806h-0.021c-0.042,0.971-0.075,2.081-0.129,2.977l-0.128,2.73h-1.504l0.458-7.189
				h2.166l0.704,2.4c0.225,0.832,0.448,1.729,0.607,2.571h0.032c0.202-0.832,0.447-1.781,0.683-2.582l0.768-2.389h2.123l0.395,7.189
				H84.313L84.313,27.781z M88.914,27.888c-0.821,0-1.632-0.213-2.038-0.437l0.332-1.344c0.438,0.224,1.108,0.447,1.802,0.447
				c0.747,0,1.143-0.309,1.143-0.779c0-0.447-0.341-0.704-1.205-1.013c-1.195-0.416-1.975-1.077-1.975-2.123
				c0-1.227,1.024-2.165,2.721-2.165c0.811,0,1.408,0.17,1.835,0.362l-0.363,1.312c-0.289-0.138-0.8-0.341-1.504-0.341
				s-1.046,0.32-1.046,0.694c0,0.458,0.406,0.66,1.333,1.013c1.27,0.47,1.867,1.131,1.867,2.144
				C91.815,26.864,90.887,27.888,88.914,27.888z"/>
		</g>
		<g>
			<path fill="#6D5E16" d="M47.466,41.563c0,2.75-2.346,4.978-5.238,4.978H12.624c-2.893,0-5.237-2.228-5.237-4.978V13.428
				c0-2.749,2.345-4.978,5.237-4.978h29.604c2.893,0,5.238,2.229,5.238,4.978V41.563L47.466,41.563z"/>
			<path fill="#BAB354" d="M47.466,39.572c0,2.748-2.346,4.977-5.238,4.977H12.624c-2.893,0-5.237-2.229-5.237-4.977V11.438
				c0-2.749,2.345-4.978,5.237-4.978h29.604c2.893,0,5.238,2.229,5.238,4.978V39.572L47.466,39.572z"/>
			<path fill="#919134" d="M47.462,39.572V25.505c-0.55-0.52-6.647-8.174-8.054-9.508c-1.184-1.122-9.764-1.999-11.605-2.041
				c-1.709-0.037-3.43,0.18-5.063,0.668c-1.479,0.443-6.244,3.852-6.937,5.039c-0.667,1.143-1.048,2.427-1.066,3.735
				c-0.022,1.7,0.571,3.353,1.598,4.738c0.55,0.74,1.227,1.364,1.897,2.002c0.706,0.67,1.411,1.341,2.116,2.011
				c0.085,0.082,0.17,0.162,0.255,0.241c0.042,0.041,0.083,0.081,0.126,0.121c0.026,0.024,0.033,0.088,0.043,0.122
				c0.045,0.161,0.077,0.324,0.094,0.489c0.036,0.346-4.023,0.962-4.098,1.301c-0.18,0.812,9.518,10.124,9.518,10.124h15.938
				C45.118,44.549,47.462,42.32,47.462,39.572z"/>
			<circle fill="#FFFFFF" cx="27.426" cy="24.397" r="14.636"/>
			<path fill="#919134" d="M31.118,31.52c1.187-0.018,2.177-0.317,3.024-1.027c0.327-0.274,0.634-0.574,0.798-0.978
				c0.142-0.348,0.101-0.735,0.175-1.101c0.072-0.358-0.063-0.572-0.388-0.746c-0.977-0.521-1.961-1.024-2.98-1.455
				c-0.513-0.216-0.534-0.2-0.888,0.227c-0.387,0.465-0.756,0.944-1.103,1.442c-0.146,0.209-0.309,0.265-0.569,0.171
				c-0.552-0.195-1.078-0.438-1.581-0.734c-1.192-0.702-2.171-1.645-3.034-2.711c-0.347-0.429-0.697-0.863-0.902-1.39
				c-0.068-0.178-0.045-0.312,0.087-0.437c0.469-0.44,0.813-0.971,1.131-1.523c0.068-0.121,0.083-0.226,0.028-0.368
				c-0.38-1.004-0.785-1.999-1.228-2.978c-0.324-0.716-0.332-0.712-1.111-0.715c-0.091,0-0.188,0.02-0.271-0.004
				c-0.651-0.183-1.054,0.165-1.439,0.624c-0.646,0.769-1.105,1.6-1.144,2.634c-0.039,1.062,0.265,2.038,0.765,2.941
				c1.635,2.956,3.872,5.333,6.839,6.979C28.532,31.041,29.814,31.484,31.118,31.52z"/>
		</g>
	</g>
	<g>
		<path fill="#8E8164" d="M58.921,30.061c0,0.258-0.208,0.551-0.578,0.551c-0.198,0-0.397-0.129-0.596-0.284
			c-0.182-0.138-0.346-0.276-0.526-0.433c-0.527,0.44-1.141,0.717-1.856,0.717c-1.158,0-1.96-0.674-1.96-1.623
			c0-0.683,0.415-1.2,1.123-1.633c-0.346-0.415-0.587-0.872-0.587-1.416c0-0.872,0.665-1.459,1.691-1.459
			c0.984,0,1.692,0.587,1.692,1.442c0,0.518-0.285,1.14-1.01,1.599l0.837,0.769c0.173-0.233,0.336-0.476,0.492-0.734
			c0.104-0.164,0.294-0.267,0.493-0.267c0.319,0,0.577,0.267,0.577,0.586c0,0.095-0.017,0.199-0.138,0.389
			c-0.173,0.268-0.354,0.535-0.544,0.777c0.199,0.164,0.432,0.345,0.682,0.568C58.844,29.732,58.921,29.844,58.921,30.061z
			 M55.391,29.498c0.354,0,0.673-0.139,0.976-0.362l-0.915-0.846c-0.061-0.062-0.129-0.112-0.189-0.173
			c-0.347,0.207-0.589,0.492-0.589,0.82C54.672,29.283,54.948,29.498,55.391,29.498z M55.121,25.949
			c0,0.294,0.164,0.562,0.415,0.837l0.034-0.017c0.388-0.216,0.613-0.388,0.613-0.82c0-0.302-0.233-0.535-0.552-0.535
			C55.337,25.414,55.121,25.647,55.121,25.949z"/>
	</g>
</g>
</svg>
